<?xml version="1.0" encoding="utf-8"?>
<!-- Generator: Adobe Illustrator 19.0.0, SVG Export Plug-In . SVG Version: 6.00 Build 0)  -->
<svg version="1.1" id="Layer_1" xmlns="http://www.w3.org/2000/svg" xmlns:xlink="http://www.w3.org/1999/xlink" x="0px" y="0px"
	 viewBox="0 0 165 179" style="enable-background:new 0 0 165 179;" xml:space="preserve">
<style type="text/css">
	.st0{fill:none;}
	.st1{fill:#B0EF16;stroke:#AFE230;stroke-width:0.3838;stroke-miterlimit:10;}
	.st2{fill:#A2D630;stroke:#AFE230;stroke-width:0.3838;stroke-miterlimit:10;}
	.st3{fill:#A2D630;}
	.st4{fill:none;stroke:#AFE230;stroke-width:0.3838;stroke-miterlimit:10;}
	.st5{fill:#ECEFE6;stroke:#FBFCF7;stroke-width:0.3838;stroke-miterlimit:10;}
	.st6{fill:#ECEFE6;stroke:#FFFFFF;stroke-width:0.3838;stroke-miterlimit:10;}
</style>
<rect id="XMLID_58_" x="6.1" y="7.9" class="st0" width="150" height="164.3"/>
<path id="XMLID_8_" class="st1" d="M108.3,21.2L108.3,21.2c0.6,0.2,0.8,0.7,0.6,1.1l-6.9,11.2c-0.2,0.4-0.9,0.6-1.4,0.4l0,0
	c-0.6-0.2-0.8-0.7-0.6-1.1l6.9-11.2C107.2,21.2,107.8,21,108.3,21.2z"/>
<path id="XMLID_6_" class="st1" d="M58.7,21.3L58.7,21.3c0.6-0.1,1.2,0,1.4,0.4l5.8,11.6c0.2,0.4-0.1,0.9-0.7,1.1l0,0
	c-0.6,0.1-1.2,0-1.4-0.4L58,22.3C57.8,22,58.1,21.5,58.7,21.3z"/>
<path id="XMLID_2_" class="st2" d="M59.9,155.3h-0.4c-4.1,0-7.5-3.3-7.5-7.5v-20.9c0-4.1,3.3-7.5,7.5-7.5h0.4c4.1,0,7.5,3.3,7.5,7.5
	v20.9C67.3,151.9,64,155.3,59.9,155.3z"/>
<path id="XMLID_3_" class="st2" d="M103.2,154.9h-0.4c-4.1,0-7.5-3.3-7.5-7.5v-20.9c0-4.1,3.3-7.5,7.5-7.5h0.4
	c4.1,0,7.5,3.3,7.5,7.5v20.9C110.5,151.6,107.2,154.9,103.2,154.9z"/>
<path id="XMLID_1_" class="st2" d="M110.6,127.4h-57c-5.7,0-10.3-4.7-10.3-10.3V59.6H121V117C121,122.7,116.4,127.4,110.6,127.4z"/>
<path id="XMLID_4_" class="st2" d="M27.6,114.3h-2.2c-4.4,0-8-3.6-8-8V65.2c0-4.4,3.6-8,8-8h2.2c4.4,0,8,3.6,8,8v41.2
	C35.6,110.8,32.1,114.3,27.6,114.3z"/>
<g id="XMLID_5_">
	<path id="XMLID_24_" class="st3" d="M138.3,114.3h-2.1c-4.2,0-7.7-3.4-7.7-7.7V64.8c0-4.2,3.4-7.7,7.7-7.7h2.1
		c4.2,0,7.7,3.4,7.7,7.7v41.8C146,110.9,142.6,114.3,138.3,114.3z"/>
	<path id="XMLID_23_" class="st4" d="M138.3,114.3h-2.1c-4.2,0-7.7-3.4-7.7-7.7V64.8c0-4.2,3.4-7.7,7.7-7.7h2.1
		c4.2,0,7.7,3.4,7.7,7.7v41.8C146,110.9,142.6,114.3,138.3,114.3z"/>
</g>
<path id="XMLID_9_" class="st2" d="M43.4,57.4l78.3,0.1c0-16.5-17.5-29.7-39.2-29.7C61,27.7,43.4,40.9,43.4,57.4z"/>
<ellipse id="XMLID_7_" class="st5" cx="66.7" cy="42.6" rx="3.2" ry="2.6"/>
<ellipse id="XMLID_10_" class="st6" cx="98.5" cy="42.6" rx="3.2" ry="2.6"/>
<g id="XMLID_96_">
</g>
</svg>
