<?xml version="1.0" encoding="utf-8"?>
<!-- Generator: Adobe Illustrator 19.0.0, SVG Export Plug-In . SVG Version: 6.00 Build 0)  -->
<svg version="1.1" id="Layer_1" xmlns="http://www.w3.org/2000/svg" xmlns:xlink="http://www.w3.org/1999/xlink" x="0px" y="0px"
	 viewBox="0 0 164 177" style="enable-background:new 0 0 164 177;" xml:space="preserve">
<style type="text/css">
	.st0{fill:none;}
	.st1{fill:none;stroke:#000000;stroke-width:0.4927;stroke-miterlimit:10;}
	.st2{fill:#00B8D4;stroke:#28D6E8;stroke-width:0.4927;stroke-miterlimit:10;}
	.st3{fill:#B9CFD1;stroke:#CECECC;stroke-width:0.4927;stroke-miterlimit:10;}
	.st4{fill:#662D91;stroke:#662D91;stroke-width:0.4927;stroke-miterlimit:10;}
</style>
<rect id="XMLID_58_" x="8.1" y="6.9" class="st0" width="150" height="164.3"/>
<path id="XMLID_7_" class="st1" d="M119.3,79.2c0.2,0.2,0.5,0.6,0.7,0.8c-3.8,10.2-10.6,19.5-20.1,26.9s-20.6,11.9-32.1,13.6
	c-0.2-0.2-0.5-0.6-0.8-0.8c-16.5-18.4-20.7-42.6-12.8-63.4C77.5,52.8,102.7,60.8,119.3,79.2z"/>
<path id="XMLID_6_" class="st1" d="M119.3,79.2c0.2,0.2,0.5,0.6,0.7,0.8c-3.8,10.2-10.6,19.5-20.1,26.9s-20.6,11.9-32.1,13.6
	c-0.2-0.2-0.5-0.6-0.8-0.8c-16.5-18.4-20.7-42.6-12.8-63.4C77.5,52.8,102.7,60.8,119.3,79.2z"/>
<path id="XMLID_5_" class="st1" d="M135.9,128.4c-2.7,3-5.5,5.8-8.8,8.3c-3.2,2.5-6.7,4.7-10.3,6.6c-28.2,14.7-65.2,8.6-87.4-15.8
	c-4.7-5.2-8.4-10.9-11.1-16.8c-4.9-10.4-6.6-21.6-5.3-32.5c1.7-15.7,9.7-30.6,23.6-41.4s31.2-15.5,48.2-14.3
	c11.8,0.8,23.3,4.3,33.6,10.5c5.8,3.5,11.2,7.9,15.8,13.1C156.3,70.5,156.3,105.2,135.9,128.4z"/>
<path id="XMLID_4_" class="st1" d="M119.3,79.2c0.2,0.2,0.5,0.6,0.7,0.8c-3.8,10.2-10.6,19.5-20.1,26.9s-20.6,11.9-32.1,13.6
	c-0.2-0.2-0.5-0.6-0.8-0.8c-16.5-18.4-20.7-42.6-12.8-63.4C77.5,52.8,102.7,60.8,119.3,79.2z"/>
<path id="XMLID_3_" class="st2" d="M84.7,22.6c-3.6,1.8-7,4-10.3,6.6C64.7,36.6,58,46,54.2,56.3c-7.9,20.8-3.7,45.1,13.1,63.4
	c0.2,0.2,0.5,0.6,0.8,0.8c-17,2.5-34.8-0.8-49.7-9.8c-4.9-10.4-6.6-21.6-5.3-32.5c1.7-15.7,9.7-30.6,23.6-41.4S67.7,21.4,84.7,22.6z
	"/>
<path id="XMLID_2_" class="st3" d="M120.2,80.1c12.5,14.2,17.6,31.7,15.7,48.4c-2.7,3-5.5,5.8-8.8,8.3c-3.2,2.5-6.7,4.7-10.3,6.6
	c-28.2,14.7-65.2,8.6-87.4-15.8c-4.7-5.2-8.4-10.9-11.1-16.8c14.9,9,32.8,12.4,49.7,9.8c11.6-1.7,22.6-6.2,32.1-13.6
	S116.2,90.3,120.2,80.1z"/>
<path id="XMLID_1_" class="st4" d="M134.1,46.1c22.2,24.5,22.2,59.2,1.7,82.3c1.8-16.6-3.2-34.2-15.7-48.4c-0.2-0.2-0.5-0.6-0.7-0.8
	c-16.8-18.4-41.9-26.3-65.3-22.9C58,46,64.7,36.6,74.3,29.1c3.2-2.5,6.7-4.7,10.3-6.6c11.8,0.8,23.3,4.3,33.6,10.5
	C124.1,36.5,129.5,40.9,134.1,46.1z"/>
</svg>
