<?xml version="1.0" encoding="utf-8"?>
<!-- Generator: Adobe Illustrator 19.0.0, SVG Export Plug-In . SVG Version: 6.00 Build 0)  -->
<svg version="1.1" id="Layer_1" xmlns="http://www.w3.org/2000/svg" xmlns:xlink="http://www.w3.org/1999/xlink" x="0px" y="0px"
	 viewBox="0 0 165 180" style="enable-background:new 0 0 165 180;" xml:space="preserve">
<style type="text/css">
	.st0{fill:none;}
	.st1{fill:#B4B3B3;}
	.st2{fill:#9F3F36;}
	.st3{fill:#C5493B;}
	.st4{fill:#FFFFFF;}
	.st5{fill:#B3B2B3;}
</style>
<rect id="XMLID_58_" x="6.1" y="9.9" class="st0" width="150" height="164.3"/>
<g>
	<g id="XMLID_1_">
		<g>
			<path class="st1" d="M79.8,157.5L79.8,157.5l52.1-28.6L142,48.7L79.8,27.2L20.2,48.7l9.7,79.7L79.8,157.5z M148,44.3l-11.1,88.2
				L79.6,164l-54.8-32.1L14.2,44.3l65.5-23.6L148,44.3z"/>
			<polygon id="XMLID_6_" class="st2" points="142,48.7 131.9,128.9 79.8,157.5 79.8,157.5 79.8,27.2 			"/>
			<polygon id="XMLID_5_" class="st3" points="79.8,27.2 79.8,157.5 29.9,128.3 20.2,48.7 			"/>
		</g>
	</g>
	<path class="st4" d="M79.8,31.6l-43.2,96.5h14L60.9,106H100l10.9,22.1H125L79.8,31.6z M66,92.8l13.7-29.4v0l15.1,29.4L66,92.8
		L66,92.8z"/>
	<path id="XMLID_2_" class="st5" d="M79.8,31.6v31.8l15.1,29.4H79.8V106H100l10.9,22.1H125L79.8,31.6z"/>
</g>
</svg>
