<?xml version="1.0" encoding="utf-8"?>
<!-- Generator: Adobe Illustrator 19.0.0, SVG Export Plug-In . SVG Version: 6.00 Build 0)  -->
<svg version="1.1" id="Layer_1" xmlns="http://www.w3.org/2000/svg" xmlns:xlink="http://www.w3.org/1999/xlink" x="0px" y="0px"
	 viewBox="0 0 165 179" style="enable-background:new 0 0 165 179;" xml:space="preserve">
<style type="text/css">
	.st0{fill:none;}
	.st1{fill:#534176;}
	.st2{enable-background:new    ;}
	.st3{fill:#FCFAFC;}
</style>
<rect id="XMLID_58_" x="7.1" y="9.9" class="st0" width="150" height="164.3"/>
<g>
	<g>
		<path id="XMLID_4_" class="st1" d="M150,144c0,8.5-6.3,15.4-14.2,15.4H28.5c-7.8,0-14.2-6.9-14.2-15.4V39.8
			c0-8.5,6.3-15.4,14.2-15.4h107.3c7.8,0,14.2,6.9,14.2,15.4L150,144L150,144z"/>
		<g class="st2">
			<path class="st3" d="M50.2,51.2h31.7c6.3,0,10.9,0.3,14,0.8c3.1,0.5,5.9,1.6,8.3,3.3c2.5,1.7,4.5,3.9,6.1,6.6
				c1.6,2.7,2.5,5.9,2.5,9.3c0,3.7-1,7.1-3,10.2c-2,3.1-4.7,5.4-8.1,7c4.8,1.4,8.5,3.8,11.1,7.2c2.6,3.4,3.9,7.4,3.9,11.9
				c0,3.6-0.9,7.1-2.5,10.5c-1.7,3.4-3.9,6.1-6.9,8.1c-2.9,2.1-6.5,3.3-10.7,3.7c-2.7,0.3-9.1,0.5-19.4,0.5h-27V51.2H50.2z
				 M66.2,64.4v18.4h10.5c6.3,0,10.1-0.1,11.6-0.3c2.7-0.3,4.9-1.3,6.5-2.9s2.3-3.6,2.3-6.2c0-2.5-0.7-4.5-2-6
				c-1.3-1.5-3.3-2.5-6-2.8c-1.6-0.2-6.1-0.3-13.7-0.3L66.2,64.4L66.2,64.4z M66.2,96v21.2H81c5.8,0,9.4-0.1,11-0.5
				c2.4-0.4,4.3-1.5,5.8-3.1c1.5-1.7,2.3-3.9,2.3-6.7c0-2.4-0.6-4.4-1.7-6.1c-1.1-1.7-2.8-2.9-5-3.6c-2.2-0.7-6.9-1.1-14.2-1.1
				L66.2,96L66.2,96z"/>
		</g>
	</g>
</g>
</svg>
