<?xml version="1.0" encoding="utf-8"?>
<!-- Generator: Adobe Illustrator 19.0.0, SVG Export Plug-In . SVG Version: 6.00 Build 0)  -->
<svg version="1.1" id="Layer_1" xmlns="http://www.w3.org/2000/svg" xmlns:xlink="http://www.w3.org/1999/xlink" x="0px" y="0px"
	 viewBox="0 0 341 383.8" enable-background="new 0 0 341 383.8" xml:space="preserve">
<g id="XMLID_1_">
</g>
<g id="XMLID_4_">
	<path id="XMLID_23_" fill="#8888E2" d="M231.5,93.9C231.9,94.1,231.9,94.1,231.5,93.9S231,93.7,231.5,93.9z"/>
	<path id="XMLID_22_" fill="none" stroke="#8383E5" stroke-miterlimit="10" d="M231.5,93.9C231.9,94.1,231.9,94.1,231.5,93.9
		S231,93.7,231.5,93.9z"/>
</g>
<rect id="XMLID_2_" x="458" y="126.9" transform="matrix(0.9146 0.4044 -0.4044 0.9146 90.5163 -174.729)" fill="#8888E2" stroke="#8383E5" stroke-miterlimit="10" width="1.8" height="0"/>
<g id="XMLID_5_">
	<path id="XMLID_35_" fill="#9966FF" d="M185.6,8.2l145.1,100.1c0.8,0.5,0.7,1.7-0.1,2.2l-289.8,153c-0.9,0.5,0,0-28.1,13.2
		c-0.4,0.2-0.9,0.2-1.3-0.1h0c-0.4-0.2-0.6-0.7-0.6-1.1l4.3-180.2c0.2-6.3,3.7-12,9.4-14.9L168.6,7.1C174,4.3,180.6,4.7,185.6,8.2z"
		/>
	<path id="XMLID_34_" fill="none" stroke="#8D92CC" stroke-miterlimit="10" d="M185.6,8.2l145.1,100.1c0.8,0.5,0.7,1.7-0.1,2.2
		l-289.8,153c-0.9,0.5,0,0-28.1,13.2c-0.4,0.2-0.9,0.2-1.3-0.1h0c-0.4-0.2-0.6-0.7-0.6-1.1l4.3-180.2c0.2-6.3,3.7-12,9.4-14.9
		L168.6,7.1C174,4.3,180.6,4.7,185.6,8.2z"/>
</g>
<g id="XMLID_7_">
	<path id="XMLID_36_" fill="#46137C" d="M332,276.8l-0.7-167.3c0-2-2.1-3.3-3.9-2.3L13.6,272.9c-0.9,0.5-1.4,1.4-1.4,2.4l0,0
		c0,0.9,0.5,1.7,1.2,2.2l146.7,95.2c7.7,5,17.5,5.3,25.5,1l131.9-72.1C326.5,296.6,332,287.1,332,276.8z"/>
	<path id="XMLID_32_" fill="none" stroke="#440D84" stroke-miterlimit="10" d="M332,276.8l-0.7-167.3c0-2-2.1-3.3-3.9-2.3
		L13.6,272.9c-0.9,0.5-1.4,1.4-1.4,2.4l0,0c0,0.9,0.5,1.7,1.2,2.2l146.7,95.2c7.7,5,17.5,5.3,25.5,1l131.9-72.1
		C326.5,296.6,332,287.1,332,276.8z"/>
</g>
<g id="XMLID_8_">
	<circle id="XMLID_20_" fill="none" stroke="#FAFAFC" stroke-width="43" stroke-miterlimit="10" cx="174.9" cy="187.1" r="77.8"/>
</g>
<g id="XMLID_3_">
	<path id="XMLID_24_" fill="#341466" d="M330,252.8c0,1.6-1.2,2.4-2.7,1.7L185,184.6c-1.5-0.7-1.5-2,0-2.7l141-74.7
		c1.5-0.8,2.7-0.1,2.7,1.6L330,252.8z"/>
	<path id="XMLID_18_" fill="none" stroke="#330C66" stroke-miterlimit="10" d="M330,252.8c0,1.6-1.2,2.4-2.7,1.7L185,184.6
		c-1.5-0.7-1.5-2,0-2.7l141-74.7c1.5-0.8,2.7-0.1,2.7,1.6L330,252.8z"/>
</g>
<g id="XMLID_6_">
	<path id="XMLID_76_" fill="#FAFAFC" stroke="#F7F7F9" stroke-width="2" d="M242.1,212l-1.1-16.3l-8.5,2.1l-1.2-4.7l9.5-2.3l-0.9-12
		l-9,2.2l-1.2-4.7l9.9-2.4l-1-15.9l6-1.5l1.1,15.8l10.8-2.7l-1-15.9l6.1-1.5l1.1,15.8l8.5-2.1l1.2,4.7l-9.5,2.3l1,12l9-2.2l1.2,4.7
		l-9.9,2.4l1.1,16.3l-6.2,1.5l-1.1-16.3l-10.8,2.7l1.1,16.3L242.1,212z M257.9,186.7l-0.9-12l-10.8,2.7l0.9,12L257.9,186.7z"/>
</g>
<g id="XMLID_75_">
</g>
<g id="XMLID_79_">
</g>
<g id="XMLID_80_">
</g>
<g id="XMLID_81_">
</g>
<g id="XMLID_82_">
</g>
<g id="XMLID_83_">
</g>
<g id="XMLID_84_">
</g>
<g id="XMLID_85_">
</g>
<g id="XMLID_86_">
</g>
<g id="XMLID_87_">
</g>
<g id="XMLID_88_">
</g>
<g id="XMLID_89_">
</g>
<g id="XMLID_90_">
</g>
<g id="XMLID_91_">
</g>
<g id="XMLID_92_">
</g>
</svg>
