<?xml version="1.0" encoding="utf-8"?>
<!-- Generator: Adobe Illustrator 19.0.0, SVG Export Plug-In . SVG Version: 6.00 Build 0)  -->
<svg version="1.1" id="Layer_1" xmlns="http://www.w3.org/2000/svg" xmlns:xlink="http://www.w3.org/1999/xlink" x="0px" y="0px"
	 viewBox="0 0 164 176" style="enable-background:new 0 0 164 176;" xml:space="preserve">
<style type="text/css">
	.st0{fill:none;}
	.st1{fill:#2E6ECC;}
	.st2{fill:#FFFFFF;}
</style>
<rect id="XMLID_58_" x="9.1" y="5.9" class="st0" width="150" height="164.3"/>
<g>
	<polygon id="XMLID_6_" class="st1" points="33,144 14.1,17.3 154.4,17.3 135.4,144 84.2,157.7 	"/>
	<g>
		<path class="st1" d="M154.2,17.7L135.3,144l-51.1,13.6l-51-13.6L14.3,17.7h140.1 M154.6,17.3H17.9l18.5,127L86.3,158l49.9-13.7
			L154.6,17.3L154.6,17.3z"/>
	</g>
</g>
<g>
	<polygon id="XMLID_3_" class="st2" points="41.7,127.9 38.7,109.1 52.4,109.1 54,118.8 83.8,127.7 105.8,120.1 110.8,94.2 
		36.8,94.2 34.4,81.3 93.4,46.4 32.3,46.4 29.4,34.3 127.7,34.3 125.9,46.2 68,82 125.8,82 123.4,94.1 116.3,127.1 83.8,138.9 	"/>
	<path class="st2" d="M127.5,34.7l-1.8,11.6L68.4,81.8l-0.9,0.6h1.1h57.1l-2.3,11.7l-7.2,32.9l-32.3,11.8l-42-11l-2.9-18.3h13.5
		l1.5,9.3l0,0.2l0.2,0l29.8,8.9l0.1,0l0.1,0l21.8-7.6l0.2,0l0-0.2l4.9-25.9l0.1-0.4h-0.4H36.9l-2.3-12.6L93,46.6l1-0.6h-1.1H32.4
		l-2.8-11.3L127.5,34.7 M127.9,34.3H29.2l2.9,12.1h60.7L34.2,81.1l2.4,13.1h74l-4.9,25.8l-21.8,7.6l-29.8-8.9l-1.5-9.6H38.5l3,18.9
		l42.4,11.1l32.6-11.9l7.2-33.2l2.4-12.1H68.6l57.4-35.6L127.9,34.3L127.9,34.3z"/>
</g>
</svg>
