<?xml version="1.0" encoding="utf-8"?>
<!-- Generator: Adobe Illustrator 19.0.0, SVG Export Plug-In . SVG Version: 6.00 Build 0)  -->
<svg version="1.1" id="Layer_1" xmlns="http://www.w3.org/2000/svg" xmlns:xlink="http://www.w3.org/1999/xlink" x="0px" y="0px"
	 viewBox="0 0 165 180" style="enable-background:new 0 0 165 180;" xml:space="preserve">
<style type="text/css">
	.st0{fill:none;}
	.st1{fill:#FF931E;stroke:#FF931E;stroke-width:0.5685;stroke-miterlimit:10;}
	.st2{fill:#FFFFFF;}
</style>
<rect id="XMLID_58_" x="9.1" y="8.9" class="st0" width="150" height="164.3"/>
<circle id="XMLID_1_" class="st1" cx="84.5" cy="90.5" r="68.5"/>
<g id="XMLID_2_">
	<path id="XMLID_56_" class="st2" d="M78.6,62.7V87h12.3c3.2,0,5.3-0.5,6.4-1.6c1.4-1.4,2.2-3.8,2.4-7.3h1.5v21.4h-1.5
		c-0.4-3-0.8-4.9-1.2-5.7c-0.5-1.1-1.3-1.9-2.4-2.6c-1.1-0.6-2.9-0.9-5.2-0.9H78.6v20.3c0,2.7,0.1,4.4,0.3,5c0.2,0.6,0.6,1,1.1,1.4
		c0.6,0.3,1.6,0.5,3.2,0.5h9.6c3.1,0,5.5-0.2,6.9-0.7c1.4-0.5,2.8-1.4,4.1-2.8c1.7-1.9,3.5-4.7,5.2-8.5h1.6l-4.8,15.5H62.6v-1.7h1.9
		c1.4,0,2.6-0.3,3.8-1c0.9-0.5,1.4-1.2,1.8-2.2c0.3-1,0.5-3,0.5-5.9V70c0-3.9-0.3-6.3-1.1-7.2c-1-1.2-2.7-1.8-5-1.8h-1.9v-1.7h43.2
		l0.6,13.5h-1.6c-0.6-3.3-1.3-5.5-1.9-6.7c-0.7-1.2-1.8-2.1-3.1-2.8c-1.1-0.5-3.1-0.7-5.9-0.7L78.6,62.7L78.6,62.7z"/>
</g>
<g id="XMLID_71_">
</g>
</svg>
