<?xml version="1.0" encoding="utf-8"?>
<!-- Generator: Adobe Illustrator 19.0.0, SVG Export Plug-In . SVG Version: 6.00 Build 0)  -->
<svg version="1.1" id="Layer_1" xmlns="http://www.w3.org/2000/svg" xmlns:xlink="http://www.w3.org/1999/xlink" x="0px" y="0px"
	 viewBox="0 0 164 181" style="enable-background:new 0 0 164 181;" xml:space="preserve">
<style type="text/css">
	.st0{fill:none;}
	.st1{fill:#D26330;}
	.st2{fill:#888888;}
	.st3{fill:#FFFFFF;}
	.st4{fill:#FFFFFF;stroke:#FFFFFF;stroke-width:0.2838;stroke-miterlimit:10;}
</style>
<rect id="XMLID_58_" x="8.1" y="7.9" class="st0" width="150" height="164.3"/>
<g id="XMLID_37_">
	<polygon id="XMLID_6_" class="st1" points="37.2,138.9 20.2,28.7 146.4,28.7 129.3,138.9 83.3,150.8 	"/>
	<g id="XMLID_38_">
		<path id="XMLID_39_" class="st2" d="M146.2,29l-17,109.8l-45.9,11.9l-45.9-11.9L20.4,29h126 M146.6,28.7H20l17.1,110.4L83.3,151
			l46.2-11.9L146.6,28.7L146.6,28.7z"/>
	</g>
</g>
<polygon id="XMLID_3_" class="st3" points="119.8,55.6 55.4,55.6 56.8,81.6 119.1,82 114.2,120.8 114.1,120.7 80.1,129.8 
	80.2,121.3 104,114.2 106.9,91.1 46.7,91.1 44.2,46.1 121.2,46.1 "/>
<polyline id="XMLID_2_" class="st4" points="48.5,120.4 47,102.4 55.7,102.4 55.9,103.3 57,114.2 "/>
<polygon id="XMLID_1_" class="st3" points="80.1,129.8 48.5,120.4 56.9,113.8 80.2,121.3 "/>
</svg>
