<?xml version="1.0" encoding="utf-8"?>
<!-- Generator: Adobe Illustrator 19.0.0, SVG Export Plug-In . SVG Version: 6.00 Build 0)  -->
<svg version="1.1" id="Layer_1" xmlns="http://www.w3.org/2000/svg" xmlns:xlink="http://www.w3.org/1999/xlink" x="0px" y="0px"
	 viewBox="0 0 161 176" style="enable-background:new 0 0 161 176;" xml:space="preserve">
<style type="text/css">
	.st0{fill:none;}
	.st1{fill:#0071BC;stroke:#0071BC;stroke-width:0.5276;stroke-miterlimit:10;}
	.st2{fill:#FFFFFF;stroke:#FFFFFF;stroke-width:1.2924;stroke-miterlimit:10;}
	.st3{fill:#FFFFFF;stroke:#FFFFFF;stroke-width:0.8621;stroke-miterlimit:10;}
	.st4{fill:#FFFFFF;stroke:#FFFFFF;stroke-width:0.7588;stroke-miterlimit:10;}
</style>
<rect id="XMLID_58_" x="5.1" y="6.9" class="st0" width="150" height="164.3"/>
<circle id="XMLID_1_" class="st1" cx="81" cy="89" r="67"/>
<g id="XMLID_3_">
	<path id="XMLID_61_" class="st2" d="M21.1,77h3.5v10.7h0.1c0.6-0.9,1.4-1.7,2.5-2.2c1-0.5,2.2-0.9,3.5-0.9c2.5,0,6.6,1.4,6.6,7.3
		v10.2h-3.5v-9.9c0-2.8-1.1-5.1-4.4-5.1c-2.2,0-4,1.4-4.6,3.1c-0.2,0.4-0.2,0.9-0.2,1.5v10.4h-3.5V77z"/>
	<path id="XMLID_63_" class="st2" d="M46.9,80.1V85h5v2.4h-5v9.3c0,2.1,0.7,3.3,2.6,3.3c0.9,0,1.6-0.1,2-0.2l0.2,2.3
		c-0.7,0.2-1.7,0.4-3.1,0.4c-1.6,0-2.9-0.4-3.7-1.3c-1-0.9-1.3-2.4-1.3-4.5v-9.4h-2.9V85h2.9v-4.1L46.9,80.1z"/>
	<path id="XMLID_65_" class="st2" d="M59.9,80.1V85h5v2.4h-5v9.3c0,2.1,0.7,3.3,2.6,3.3c0.9,0,1.6-0.1,2-0.2l0.2,2.3
		c-0.7,0.2-1.7,0.4-3.1,0.4c-1.6,0-2.9-0.4-3.7-1.3c-1-0.9-1.3-2.4-1.3-4.5v-9.4h-2.9V85h2.9v-4.1L59.9,80.1z"/>
	<path id="XMLID_67_" class="st2" d="M68.7,90.6c0-2.2-0.1-4-0.2-5.6h3.1l0.2,2.9h0.1c1.4-2.1,3.6-3.3,6.8-3.3c4.6,0,8,3.5,8,8.7
		c0,6.2-4.2,9.2-8.6,9.2c-2.5,0-4.7-1-5.8-2.7h-0.1v9.3h-3.4L68.7,90.6L68.7,90.6z M72.1,95.2c0,0.4,0.1,0.9,0.2,1.3
		c0.6,2.2,2.7,3.6,5.2,3.6c3.6,0,5.8-2.7,5.8-6.6c0-3.4-2-6.4-5.7-6.4c-2.4,0-4.6,1.5-5.2,3.9c-0.1,0.4-0.2,0.8-0.2,1.3L72.1,95.2
		L72.1,95.2z"/>
</g>
<rect id="XMLID_4_" x="94.5" y="102.2" class="st3" width="5.1" height="6.3"/>
<rect id="XMLID_6_" x="94.5" y="81.3" class="st3" width="5.1" height="6.3"/>
<polygon id="XMLID_5_" class="st4" points="106.2,114.3 111.4,114.1 123.7,71.1 118.6,71.1 "/>
<polygon id="XMLID_8_" class="st4" points="123.1,115.5 128.3,115.2 140.7,72.2 135.6,72.2 "/>
<g id="XMLID_92_">
</g>
</svg>
