<?xml version="1.0" encoding="utf-8"?>
<!-- Generator: Adobe Illustrator 19.0.0, SVG Export Plug-In . SVG Version: 6.00 Build 0)  -->
<svg version="1.1" id="Layer_1" xmlns="http://www.w3.org/2000/svg" xmlns:xlink="http://www.w3.org/1999/xlink" x="0px" y="0px"
	 viewBox="0 0 164 176" style="enable-background:new 0 0 164 176;" xml:space="preserve">
<style type="text/css">
	.st0{fill:none;}
	.st1{fill:#FBA919;}
	.st2{fill:#E78724;}
	.st3{fill:#FDC168;}
	.st4{fill:#FFFFFF;}
	.st5{fill:#C9C9C9;}
	.st6{fill:#463014;}
</style>
<rect id="XMLID_58_" x="8.1" y="6.9" class="st0" width="150" height="164.3"/>
<g>
	<path id="XMLID_76_" class="st1" d="M31,47.1c0,0,2.8,10.7,3.2,14.2c0.4,3.6-7.1,11.4-7.1,15.4s1.6,11.1,10.3,14.6
		c8.7,3.6,9.9,12.6,9.9,18.2c0,5.5-3.2,16.2-3.2,16.2s-2,26.4,8.7,31.2c10.7,4.7,8.3,4.7,10.7,4.7c2.4,0,19.7,7.1,30,4.3
		c10.3-2.8,13-5.9,13-5.9s10.3,0.8,13.4-8.3c3.2-9.1,5.1-28,3.9-36.7c-1.2-8.7-2.8-20.1,4.3-24.1c7.1-3.9,14.6-8.7,13.4-12.6
		c-1.2-3.9-7.5-9.5-7.5-9.5s-1.6-9.9-0.4-12.2c1.2-2.4,8.3-8.3,4.3-12.6c-3.9-4.3-11.1-4.3-11.1-4.3l-9.1,0.8c0,0-15.4-13.8-35.5-13
		c-20.1,0.8-32.8,13-32.8,13s-6.7-2.4-12.6,0C31,42.7,29.8,40.3,31,47.1L31,47.1L31,47.1z"/>
	<path id="XMLID_75_" class="st2" d="M67,105.8c0,0-7.8,12-13.6,20.4c-0.9,1.3,5.7,1.4,5.7,1.4L67,105.8L67,105.8z"/>
	<path id="XMLID_74_" class="st2" d="M70.8,81c0,0-2.4,5.9-3.6,9c-1.4,3.4-6.7,5.1-6.7,5.1s2.8-2.9,2.8-10.3c0-3.1,4-4.3,4-4.3
		L70.8,81L70.8,81z"/>
	<path id="XMLID_73_" class="st2" d="M68.4,84.4c0,0-4.8,5.7-13.8,2.5c-9-3.2-9.9-14.7-9.9-17.9c0-3.2,17,3.2,19.3,4.6
		C66.3,74.9,70.7,80.5,68.4,84.4L68.4,84.4L68.4,84.4z"/>
	<path id="XMLID_72_" class="st2" d="M34.5,23c0,0,8.3-1.6,13.8,2.8c5.5,4.4,7.1,7.8,7.1,7.8l-9.3,7.4c0,0-4.5-2.1-5.9-8.1
		C38.9,26.9,39.8,24.1,34.5,23L34.5,23L34.5,23z"/>
	<path id="XMLID_71_" class="st2" d="M66,67.8c-3.6-5.1-9.4-7.3-14.1-7.6c-8-0.6-11.8,2.2-11.8,2.2s13.1,0.6,16.9,5.5
		c7,9.2,17.3,10,18.9,7.9c-1.9,0.1-4-0.8-6.2-3C68.2,71.5,67.1,69.4,66,67.8L66,67.8L66,67.8z"/>
	<path id="XMLID_70_" class="st2" d="M43.9,85.7c0,0-14.5-5-11.8-10c2.8-5.1,0.6-7.8,0.6-7.8s-8.1,6.1-6,12.5
		c1.3,4,3.4,6.8,15.1,12.3c5.6,10.4,1.2,29.2,1.4,29.3c0.4,0.1,7.9-3.7,7.4-21.2C50.4,95.2,49.9,87.9,43.9,85.7L43.9,85.7L43.9,85.7
		z"/>
	<path id="XMLID_69_" class="st2" d="M62.9,32c-6.1,3.1-14.4,7.4-14.4,7.4l3.3,1.6c-0.3,0.5-0.5,0.8-0.5,0.8l3.4,1.5
		c0,0,8.2,6,13.3,9.8c-1.7-5.2-6.6-13.3-6.6-13.3S59.9,36.1,62.9,32L62.9,32L62.9,32z"/>
	<path id="XMLID_68_" class="st2" d="M83.1,158.1c-18.7,0-25.1-9.5-25.1-9.5l2.9,7.1c1.1,3.1,12.9,12.7,22.1,12.7"/>
	<path id="XMLID_67_" class="st2" d="M60.1,142.2c0,0,1.7,10.5,8.6,10.5c5.9,0,7.6-8.9,7.6-10.7L60.1,142.2L60.1,142.2z"/>
	<path id="XMLID_66_" class="st2" d="M48.6,126.3c0.6-1.7,2.8-8.5,3.4-14.7c0.8-7.4,0.5-18.3,0.5-18.3s-1.8,7.1-3.4,8.3
		c-1.6,1.1-4.6,9-4.6,9s-1.6,11.6-2.4,15.5C44.3,126.5,46.1,125.2,48.6,126.3L48.6,126.3L48.6,126.3z"/>
	<path id="XMLID_65_" class="st2" d="M32,80.2c0,0,3.9-1.4,5.1-9.9c1.1-8.5-1.4-15.9-1.4-15.9s0.2,11.7-1.1,14c-1.4,2.3-2.5,3-4.1,6
		C28.8,77.4,31.1,79.2,32,80.2L32,80.2L32,80.2z"/>
	<path id="XMLID_64_" class="st3" d="M36.7,25l-0.8-0.5C33.5,24.5,36.7,25,36.7,25L36.7,25L36.7,25z"/>
	<path id="XMLID_63_" class="st1" d="M66.1,29.4c0,0-3.7-0.6-5.5-3.4c-1.8-2.8-7-8.3-15.4-8.3c-8.3-0.1-16.5,2.2-16.5,2.2l7.2,4.5
		c0.8,0,2.1,0,4.3,0.1c9,0.3,10.4,9.2,10.4,9.2l31.7-4.4"/>
	<path id="XMLID_62_" class="st4" d="M69.1,78.6c0,0-4.3,4.3-10.9,2.9c-6.6-1.4-10.6-4.3-10.9-9.3c-0.3-5.1,1.4-7,1.4-7
		s7.4,2.3,10.9,5.4C63.2,73.6,65.8,78.5,69.1,78.6L69.1,78.6L69.1,78.6z"/>
	<path id="XMLID_61_" class="st5" d="M64,77.1c0,0-3.7,1.7-7.9,0.3c-5.4-1.8-5.8-7.5-5.8-7.5s-3.3,9.8,6,11.7c7.5,1.5,12-2.8,12-2.8
		L64,77.1L64,77.1z"/>
	<path id="XMLID_60_" class="st6" d="M66.6,27.4C66.2,19,73.1,12.3,75.5,12c0.1,1.4-0.1,7,2.3,8.7c0.7-4.5,3-9.5,12.3-12.8
		c-2,5.3-0.3,9.7,0.6,11.7c6.3-5.8,10.6-4.8,10.6-4.8s-4.4,7.6-2.7,12.6C85.8,26.4,66.7,28.7,66.6,27.4L66.6,27.4L66.6,27.4z"/>
	<path id="XMLID_59_" class="st6" d="M39.6,40.2c-3-2.5-0.8-4.9-1-7.7c-0.1-1.5-0.3-3-0.8-3.8c-2.8-4.4-9.4-5.8-9.5-5.8l-3.1-0.6
		l2-2.4c0.3-0.3,8.7-8.3,21.7-4.1c9.1,2.9,15.8,12.9,16.1,13.3l-4.6,2.1c-0.1-0.1-5.4-9.4-13.2-12c-6.3-2-12.1-0.1-14.6,1.2
		c2.6,1.1,6.1,3,8.2,6.3c1,1.6,1.2,3.5,1.3,5.4c0.2,2.5,0.4,4.9,2.3,6.4L39.6,40.2L39.6,40.2z"/>
	<path id="XMLID_57_" class="st6" d="M31.5,76.9c0,0,3.8-4.7,5-14c0.4-3.6-0.3-10.8-1.6-13.6c0.2,6.8-1.5,13.6-1.5,13.6
		S32.2,75.6,31.5,76.9L31.5,76.9L31.5,76.9z"/>
	<path id="XMLID_56_" class="st6" d="M51.7,35.4c0,0-1.2-5.4-4.6-8.1c-4.8-3.8-10.6-1.8-10.7-1.8l-0.8-2.6c0.3-0.1,7-2.2,13.1,2.1
		c6.2,4.4,6.9,8.3,7,8.7L51.7,35.4L51.7,35.4z"/>
	<path id="XMLID_55_" class="st6" d="M43.5,73.5c0,0-2-2.9-1.6-6c0.2-1.6,0.9-3.2,2.2-3.7c2.4-1.1,3.5,1.7,3.5,1.7
		S44.2,66.3,43.5,73.5L43.5,73.5L43.5,73.5z"/>
	<path id="XMLID_54_" class="st6" d="M65.6,77.9c0.1,0.2,0.1,0.2,0.1,0.2s-6.3,4.7-12.7-0.1c-3.4-2.6-3.1-8.9-2.1-11.5
		c2.7,0.6,5.1,1.7,7,3c-2.5-2.2-4.6-3.8-4.6-3.8L50.6,65l-5.4-1.9c-0.1,0.4-2,9.7,3.7,16c2.5,2.8,14.4,9.1,20-1.6L65.6,77.9
		L65.6,77.9z"/>
	<path id="XMLID_53_" class="st6" d="M65,78.6c3.5,5.4,12.4,2.3,12.3-3.4c0,0-5.9,3.3-11.2-2.8c-3.1-3.5-12.9-13.2-26.2-10
		C49,64.5,61.2,72.9,65,78.6L65,78.6L65,78.6z"/>
	<path id="XMLID_52_" class="st6" d="M38.6,93.7c0.8,0.5,3.8,3.6,3.8,8.2c0,2.3-0.2,14-1.4,21.1c1.7,1.1,2.9,1.4,4.7,2.5
		c0.9-8.3,1.5-20.2,1.2-25c-0.3-5.5-3.3-9.2-6-10.8c-0.9-0.5-1.8-1-2.7-1.5c-4.7-2.5-9.5-5.1-9.5-9.6c0-3.5,1.4-4.6,2.8-5.7l0.2-0.1
		c1-0.8,2-1.6,2.7-3.1c1.7-3.9,2-13.9,0-16.5c-1-1.3-3.7-5.5-2.9-8.4c0.3-1.1,1-1.9,2.1-2.5c1.2-0.6,2.8-0.9,4.8-0.9
		c3.9,0,8.2,1.2,10.4,1.9c7.9,2.5,17.5,9.7,20.2,11.9c0.1,0.1,0.1,0.1,0.1,0.1l1.8,1.2l-1.1-1.8c-0.1-0.1-7-11.5-19.4-15.7
		c-2.4-0.8-7.1-2.2-11.8-2.2c-2.8,0-5.1,0.5-7,1.4c-2.3,1.2-3.8,3-4.4,5.4c-1.6,5.7,3.5,12.1,3.7,12.3c0.6,1.1,0.8,8.8-0.5,11.9
		c-0.2,0.4-0.7,0.8-1.4,1.4c-0.2,0.2-0.4,0.3-0.7,0.5c-1.9,1.5-4.9,3.7-4.9,8.8c0,7,7.1,10.7,12.7,13.8
		C36.9,92.8,37.8,93.3,38.6,93.7L38.6,93.7L38.6,93.7z"/>
	<path id="XMLID_51_" class="st6" d="M39.6,40.2c-3-2.5-0.8-4.9-1-7.7c-0.1-1.5-0.3-3-0.8-3.8c-2.8-4.4-9.4-5.8-9.5-5.8l-3.1-0.6
		l2-2.4c0.3-0.3,8.7-8.3,21.7-4.1c9.1,2.9,15.8,12.9,16.1,13.3l-4.6,2.1c-0.1-0.1-5.4-9.4-13.2-12c-6.3-2-12.1-0.1-14.6,1.2
		c2.6,1.1,6.1,3,8.2,6.3c1,1.6,1.2,3.5,1.3,5.4c0.2,2.5,0.4,4.9,2.3,6.4L39.6,40.2L39.6,40.2z"/>
	<path id="XMLID_50_" class="st6" d="M39.5,40.7l-0.2-0.2c-2.3-1.9-1.9-3.7-1.5-5.5c0.2-0.8,0.4-1.7,0.3-2.5
		c-0.1-1.5-0.2-2.8-0.7-3.5c-2.7-4.2-9.1-5.5-9.2-5.6l-3.9-0.8l2.6-3c0-0.1,5.4-5.5,14.6-5.5c2.5,0,5,0.4,7.6,1.2
		c9.5,3.1,16.3,13.4,16.3,13.5l0.3,0.4l-5.4,2.5l-0.2-0.3c-0.6-1-5.7-9.4-12.9-11.8c-1.8-0.6-3.7-0.9-5.6-0.9
		c-3.5,0-6.3,0.9-7.8,1.6c2.5,1.1,5.5,3,7.5,6.1c1,1.6,1.2,3.7,1.4,5.6c0.2,2.4,0.4,4.7,2.1,6.1l0.6,0.5L39.5,40.7L39.5,40.7z"/>
	<path id="XMLID_49_" class="st6" d="M51.7,35.4c0,0-1.2-5.4-4.6-8.1c-4.8-3.8-10.6-1.8-10.7-1.8l-0.8-2.6c0.3-0.1,7-2.2,13.1,2.1
		c6.2,4.4,6.9,8.3,7,8.7L51.7,35.4L51.7,35.4z"/>
	<path class="st6" d="M51.4,36l-0.1-0.5c0-0.1-1.2-5.2-4.5-7.8c-1.9-1.5-4.1-2.2-6.6-2.2c-2,0-3.5,0.5-3.6,0.5l-0.4,0.1l-1.1-3.5
		l0.4-0.1c0.2-0.1,2-0.6,4.5-0.6c3.3,0,6.4,1,9.1,2.8c6.4,4.5,7.1,8.6,7.2,9.1l0.1,0.4L51.4,36L51.4,36z M40.1,24.5
		c2.7,0,5.2,0.8,7.2,2.4c2.9,2.3,4.2,6.4,4.7,7.8l3.1-1.2c-0.3-1.1-1.5-4.4-6.7-8.1c-2.5-1.8-5.4-2.6-8.5-2.6
		c-1.7,0-3.1,0.3-3.8,0.4l0.6,1.7C37.3,24.8,38.6,24.5,40.1,24.5L40.1,24.5L40.1,24.5z"/>
	<path id="XMLID_46_" class="st6" d="M68.5,150.2L68.5,150.2c-1.4,0-2.7-0.5-3.7-1.3c-0.7-0.6-3.2-2.9-4.3-5.7
		c-0.4-1-0.3-1.9,0.3-2.5c0.4-0.4,1.3-0.9,3-0.9l1.2,0c1.5,0,3.9,0,6,0h2c1.3,0,2.3,0.3,2.8,0.8c0.7,0.7,0.5,1.6,0.3,2.1
		c-0.3,0.8-1.7,3.6-4.1,6.1C71.1,149.7,69.8,150.2,68.5,150.2L68.5,150.2L68.5,150.2z"/>
	<path id="XMLID_45_" class="st6" d="M69.9,78.9L65,78.6c0,0,1.3,2.2,2.1,5.1c0.9,3.2-0.8,8-0.8,8S72.7,84.2,69.9,78.9L69.9,78.9
		L69.9,78.9z"/>
	<path id="XMLID_44_" class="st6" d="M63.8,163.1c-17.5-1.3-23.6-17.8-23.6-21.3l4.6,0l-2.3,0h2.3c0,1.5,4.7,15.6,19.4,16.7
		L63.8,163.1L63.8,163.1z"/>
	<path id="XMLID_43_" class="st4" d="M58.9,133.6c-0.3-1.6-0.3-3.1,0-4.5c-1.3-1-3.7-1.4-5.5-1.9c-1.5-0.9-8.9,0.9-14.4-5.6
		c-6.8-8.2-5.4-13.1-5.4-13.1c-1.7,1.9-3.4,1.2-6.1,10.2c-2.7,9,1.2,15.3,8.5,21.6c3.4,3,8.3,4.2,12.5,4.7c-1.4-1.4,2.4-1.5,5-2.5
		c-0.2-2.1,0.1-4.2,1.7-5.8c0.9-1,2.2-1.6,3.4-2.1c0.1-0.2,0.1-0.3,0.2-0.5C58.9,133.9,58.9,133.7,58.9,133.6L58.9,133.6L58.9,133.6
		z"/>
	<path id="XMLID_42_" class="st5" d="M53.6,142.3c-0.2-0.4-0.3-0.9-0.4-1.3c-0.1-0.5-0.7-1.9,0-0.3c-0.2-0.4-0.3-0.8-0.4-1.3
		c-11.8,0-22.1-8.1-20.1-25.1c-1.5-2-3.7,4.1-3.7,4.1s-5.9,17.1,9.3,23.8c5.1,2.2,9.6,3.8,10.6,3.2c2.2,0.4,4.2-1.1,4.9-2.1
		C53.8,142.9,53.7,142.6,53.6,142.3L53.6,142.3L53.6,142.3z"/>
	<path id="XMLID_41_" class="st6" d="M58.6,131.1c0-1.4,0.3-2.8,1-4.2c0-0.1,0.1-0.2,0.2-0.3c-4.5,0-9.8-0.5-14.2-2.3
		c-4.9-2-11-8.7-12.1-16.5c0,0-9.2,7.1-6.5,22.3c2.5,14.3,14.5,18.9,28.1,19.7c0-0.1-1.5-3.3-1-5.2c-7.7,0.6-16.4-2.4-20.6-9.3
		c-3.8-6.3-2.8-17-1.2-18.6C36.2,128.8,50,131.3,58.6,131.1L58.6,131.1L58.6,131.1z"/>
	<path id="XMLID_40_" class="st6" d="M60.1,122.4c-2.5,7.2-7.5,13-7.5,13s6.9-0.3,7.3-1.5c0.3-0.9,6.2-14.8,8.5-31.1
		C66.2,106.3,60.3,121.8,60.1,122.4L60.1,122.4L60.1,122.4z"/>
	<path id="XMLID_39_" class="st2" d="M99.1,105.8c0,0,7.8,12,13.6,20.4c0.9,1.3-5.7,1.4-5.7,1.4L99.1,105.8L99.1,105.8z"/>
	<path id="XMLID_38_" class="st2" d="M95.4,81c0,0,2.4,5.9,3.6,9c1.4,3.4,6.7,5.1,6.7,5.1s-2.8-2.9-2.8-10.3c0-3.1-4-4.3-4-4.3
		L95.4,81L95.4,81z"/>
	<path id="XMLID_37_" class="st2" d="M97.8,84.4c0,0,4.8,5.7,13.8,2.5s9.9-14.7,9.9-17.9c0-3.2-17,3.2-19.3,4.6
		C99.9,74.9,95.5,80.5,97.8,84.4L97.8,84.4L97.8,84.4z"/>
	<path id="XMLID_36_" class="st2" d="M131.6,23c0,0-8.3-1.6-13.8,2.8c-5.5,4.4-7.1,7.8-7.1,7.8l9.3,7.4c0,0,4.5-2.1,5.9-8.1
		C127.3,26.9,126.4,24.1,131.6,23L131.6,23L131.6,23z"/>
	<path id="XMLID_35_" class="st2" d="M100.2,67.8c3.6-5.1,9.4-7.3,14.1-7.6c8-0.6,11.8,2.2,11.8,2.2s-13.1,0.6-16.9,5.5
		c-7,9.2-17.3,10-18.9,7.9c1.9,0.1,4-0.8,6.2-3C97.9,71.5,99.1,69.4,100.2,67.8L100.2,67.8L100.2,67.8z"/>
	<path id="XMLID_34_" class="st2" d="M122.3,85.7c0,0,14.5-5,11.8-10c-2.8-5.1-0.6-7.8-0.6-7.8s8.1,6.1,6,12.5
		c-1.3,4-3.4,6.8-15.1,12.3c-5.6,10.4-1.2,29.2-1.4,29.3c-0.4,0.1-7.9-3.7-7.4-21.2C115.8,95.2,116.2,87.9,122.3,85.7L122.3,85.7
		L122.3,85.7z"/>
	<path id="XMLID_33_" class="st2" d="M103.3,32c6.1,3.1,14.4,7.4,14.4,7.4l-3.3,1.6c0.3,0.5,0.5,0.8,0.5,0.8l-3.4,1.5
		c0,0-8.2,6-13.3,9.8c1.7-5.2,6.6-13.3,6.6-13.3S106.3,36.1,103.3,32L103.3,32L103.3,32z"/>
	<path id="XMLID_32_" class="st2" d="M83,158.1c18.7,0,25.1-9.5,25.1-9.5l-2.9,7.1c-1.1,3.1-12.9,12.7-22.1,12.7"/>
	<path id="XMLID_31_" class="st2" d="M106,142.2c0,0-1.7,10.5-8.6,10.5c-5.9,0-7.6-8.9-7.6-10.7L106,142.2L106,142.2z"/>
	<path id="XMLID_30_" class="st2" d="M117.5,126.3c-0.6-1.7-2.8-8.5-3.4-14.7c-0.8-7.4-0.5-18.3-0.5-18.3s1.8,7.1,3.4,8.3
		c1.6,1.1,4.6,9,4.6,9s1.6,11.6,2.4,15.5C121.8,126.5,120.1,125.2,117.5,126.3L117.5,126.3L117.5,126.3z"/>
	<path id="XMLID_29_" class="st2" d="M134.2,80.2c0,0-3.9-1.4-5.1-9.9c-1.1-8.5,1.4-15.9,1.4-15.9s-0.2,11.7,1.1,14
		c1.4,2.3,2.5,3,4.1,6C137.4,77.4,135.1,79.2,134.2,80.2L134.2,80.2L134.2,80.2z"/>
	<path id="XMLID_28_" class="st3" d="M129.5,25l0.8-0.5C132.7,24.5,129.5,25,129.5,25L129.5,25L129.5,25z"/>
	<path id="XMLID_27_" class="st1" d="M100.1,29.4c0,0,3.7-0.6,5.5-3.4c1.8-2.8,7.1-8.3,15.4-8.3c8.3-0.1,16.5,2.2,16.5,2.2l-7.2,4.5
		c-0.8,0-2.1,0-4.3,0.1c-9,0.3-10.4,9.2-10.4,9.2l-31.7-4.4"/>
	<path id="XMLID_26_" class="st4" d="M97,78.6c0,0,4.3,4.3,10.9,2.9c6.6-1.4,10.6-4.3,10.9-9.3c0.3-5.1-1.4-7-1.4-7
		s-7.4,2.3-10.9,5.4C103,73.6,100.4,78.5,97,78.6L97,78.6L97,78.6z"/>
	<path id="XMLID_25_" class="st5" d="M102.2,77.1c0,0,3.7,1.7,7.9,0.3c5.4-1.8,5.8-7.5,5.8-7.5s3.3,9.8-6,11.7
		c-7.5,1.5-12-2.8-12-2.8L102.2,77.1L102.2,77.1z"/>
	<path id="XMLID_24_" class="st6" d="M126.5,40.2c3-2.5,0.8-4.9,1-7.7c0.1-1.5,0.2-3,0.8-3.8c2.8-4.4,9.4-5.8,9.5-5.8l3.1-0.6
		l-2-2.4c-0.3-0.3-8.7-8.3-21.7-4.1c-9.1,2.9-15.8,12.9-16.1,13.3l4.6,2.1c0.1-0.1,5.4-9.4,13.2-12c6.3-2,12.1-0.1,14.6,1.2
		c-2.6,1.1-6.1,3-8.2,6.3c-1,1.6-1.1,3.5-1.3,5.4c-0.2,2.5-0.4,4.9-2.3,6.4L126.5,40.2L126.5,40.2z"/>
	<path id="XMLID_23_" class="st6" d="M134.7,76.9c0,0-3.8-4.7-5-14c-0.4-3.6,0.3-10.8,1.6-13.6c-0.2,6.8,1.5,13.6,1.5,13.6
		S134,75.6,134.7,76.9L134.7,76.9L134.7,76.9z"/>
	<path id="XMLID_22_" class="st6" d="M114.5,35.4c0,0,1.2-5.4,4.6-8.1c4.8-3.8,10.6-1.8,10.7-1.8l0.9-2.6c-0.3-0.1-7-2.2-13.1,2.1
		c-6.2,4.4-6.9,8.3-7,8.7L114.5,35.4L114.5,35.4z"/>
	<path id="XMLID_21_" class="st6" d="M122.6,73.5c0,0,2-2.9,1.6-6c-0.2-1.6-0.9-3.2-2.2-3.7c-2.4-1.1-3.5,1.7-3.5,1.7
		S122,66.3,122.6,73.5L122.6,73.5L122.6,73.5z"/>
	<path id="XMLID_20_" class="st6" d="M100.6,77.9c-0.1,0.2-0.1,0.2-0.1,0.2s6.3,4.7,12.7-0.1c3.4-2.6,3.1-8.9,2.1-11.5
		c-2.7,0.6-5.1,1.7-7,3c2.5-2.2,4.6-3.8,4.6-3.8l2.8-0.8l5.4-1.9c0.1,0.4,2,9.7-3.7,16c-2.5,2.8-14.4,9.1-20-1.6L100.6,77.9
		L100.6,77.9z"/>
	<path id="XMLID_19_" class="st6" d="M101.2,78.6c-3.5,5.4-12.4,2.3-12.3-3.4c0,0,5.9,3.3,11.2-2.8c3.1-3.5,12.9-13.2,26.2-10
		C117.1,64.5,105,72.9,101.2,78.6L101.2,78.6L101.2,78.6z"/>
	<path id="XMLID_18_" class="st6" d="M127.6,93.7c-0.8,0.5-3.8,3.6-3.8,8.2c0,2.3,0.2,14,1.4,21.1c-1.7,1.1-2.9,1.4-4.7,2.5
		c-0.9-8.3-1.5-20.2-1.2-25c0.3-5.5,3.3-9.2,6-10.8c0.9-0.5,1.8-1,2.7-1.5c4.7-2.5,9.5-5.1,9.5-9.6c0-3.5-1.4-4.6-2.8-5.7l-0.2-0.1
		c-1-0.8-2-1.6-2.7-3.1c-1.7-3.9-2-13.9,0-16.5c1-1.3,3.7-5.5,2.9-8.4c-0.3-1.1-1-1.9-2.1-2.5c-1.2-0.6-2.8-0.9-4.8-0.9
		c-3.9,0-8.2,1.2-10.4,1.9c-7.9,2.5-17.5,9.7-20.2,11.9c-0.1,0.1-0.1,0.1-0.1,0.1l-1.8,1.2l1.1-1.8c0.1-0.1,7-11.5,19.4-15.7
		c2.4-0.8,7.1-2.2,11.8-2.2c2.8,0,5.1,0.5,7,1.4c2.3,1.2,3.8,3,4.4,5.4c1.6,5.7-3.5,12.1-3.7,12.3c-0.6,1.1-0.8,8.8,0.5,11.9
		c0.2,0.4,0.7,0.8,1.4,1.4c0.2,0.2,0.4,0.3,0.7,0.5c1.9,1.5,4.9,3.7,4.9,8.8c0,7-7.1,10.7-12.7,13.8
		C129.3,92.8,128.4,93.3,127.6,93.7L127.6,93.7L127.6,93.7z"/>
	<path id="XMLID_17_" class="st6" d="M119.1,39.3c-1.1-1.9-4-5.6-10.6-8.8c-7.4-3.6-15.9-5.4-25.4-5.4v0h0h0v0
		c-9.5,0-18,1.8-25.4,5.4c-6.6,3.2-9.5,6.9-10.6,8.8L46.5,40l5.7,1.3l0.2-0.2l0.1-0.2c0.1-0.4,0.8-2.4,7.2-5.5
		c6.8-3.3,14.6-5,23.4-5c8.8,0,16.7,1.7,23.4,5c6.3,3.1,7.1,5.1,7.2,5.5l0.1,0.2l0.2,0.2l5.7-1.3L119.1,39.3L119.1,39.3z"/>
	<path id="XMLID_16_" class="st6" d="M126.5,40.2c3-2.5,0.8-4.9,1-7.7c0.1-1.5,0.2-3,0.8-3.8c2.8-4.4,9.4-5.8,9.5-5.8l3.1-0.6
		l-2-2.4c-0.3-0.3-8.7-8.3-21.7-4.1c-9.1,2.9-15.8,12.9-16.1,13.3l4.6,2.1c0.1-0.1,5.4-9.4,13.2-12c6.3-2,12.1-0.1,14.6,1.2
		c-2.6,1.1-6.1,3-8.2,6.3c-1,1.6-1.1,3.5-1.3,5.4c-0.2,2.5-0.4,4.9-2.3,6.4L126.5,40.2L126.5,40.2z"/>
	<path id="XMLID_15_" class="st6" d="M120.7,38.7l0.6-0.5c1.7-1.4,1.9-3.7,2.1-6.1c0.2-1.9,0.3-4,1.4-5.6c1.9-3,5-4.9,7.5-6.1
		c-1.5-0.6-4.3-1.6-7.8-1.6c-1.9,0-3.8,0.3-5.6,0.9c-7.2,2.3-12.4,10.8-12.9,11.8l-0.2,0.3l-5.4-2.5l0.3-0.4
		c0.1-0.1,6.8-10.4,16.3-13.5c2.5-0.8,5.1-1.2,7.6-1.2c9.1,0,14.5,5.5,14.6,5.5l2.6,3l-3.9,0.8c-0.1,0-6.5,1.4-9.2,5.6
		c-0.4,0.7-0.6,2.1-0.7,3.5c-0.1,0.9,0.1,1.7,0.3,2.5c0.4,1.8,0.8,3.6-1.5,5.5l-0.2,0.2L120.7,38.7L120.7,38.7z"/>
	<path id="XMLID_14_" class="st6" d="M114.5,35.4c0,0,1.2-5.4,4.6-8.1c4.8-3.8,10.6-1.8,10.7-1.8l0.9-2.6c-0.3-0.1-7-2.2-13.1,2.1
		c-6.2,4.4-6.9,8.3-7,8.7L114.5,35.4L114.5,35.4z"/>
	<path class="st6" d="M110,34.1l0.1-0.4c0.1-0.5,0.8-4.6,7.2-9.1c2.6-1.8,5.7-2.8,9.1-2.8c2.5,0,4.3,0.6,4.5,0.6l0.4,0.1l-1.1,3.5
		l-0.4-0.1c-0.2-0.1-1.6-0.5-3.6-0.5c-2.5,0-4.8,0.7-6.6,2.2c-3.2,2.6-4.5,7.8-4.5,7.8l-0.1,0.5L110,34.1L110,34.1z M129.5,25
		l0.6-1.7c-0.7-0.2-2-0.4-3.8-0.4c-3.2,0-6,0.9-8.5,2.6c-5.2,3.7-6.5,7-6.7,8.1l3.1,1.2c0.4-1.5,1.8-5.5,4.7-7.8
		c2-1.6,4.5-2.4,7.2-2.4C127.6,24.5,128.9,24.8,129.5,25L129.5,25L129.5,25z"/>
	<path id="XMLID_11_" class="st6" d="M94.2,148.8c-2.4-2.5-3.8-5.3-4.1-6.1c-0.2-0.5-0.4-1.4,0.3-2.1c0.5-0.6,1.5-0.8,2.8-0.8h2
		c2.1,0,4.6,0,6,0l1.2,0c1.7,0,2.6,0.5,3,0.9c0.6,0.6,0.7,1.4,0.3,2.5c-1.1,2.8-3.6,5.1-4.3,5.7c-1,0.8-2.3,1.3-3.7,1.3l0,0
		C96.3,150.2,95.1,149.7,94.2,148.8L94.2,148.8L94.2,148.8z"/>
	<path id="XMLID_10_" class="st6" d="M96.3,78.9l4.9-0.3c0,0-1.3,2.2-2.1,5.1c-0.9,3.2,0.8,8,0.8,8S93.4,84.2,96.3,78.9L96.3,78.9
		L96.3,78.9z"/>
	<path id="XMLID_9_" class="st2" d="M83.1,61.4c-3.1,0-7.2-0.1-10.3-2.3c0,0,4,7,10.3,7l0-0.9l0,0.9c6.3,0,10.3-7,10.3-7
		C90.3,61.3,86.2,61.4,83.1,61.4L83.1,61.4L83.1,61.4z"/>
	<path id="XMLID_8_" class="st6" d="M91.7,61.4c-3.1,1.9-5.9,2.6-8.6,2.6c-2.7-0.1-5.5-0.7-8.6-2.6c0,0,4.6,5.6,8.6,5.6v0
		c0,0,0,0,0,0c0,0,0,0,0,0v0C87.1,66.9,91.7,61.4,91.7,61.4L91.7,61.4L91.7,61.4z"/>
	<path id="XMLID_7_" class="st6" d="M102.4,163.1l-0.3-4.5c14.7-1.1,19.4-15.2,19.4-16.7h4.6C126,145.3,119.9,161.8,102.4,163.1
		L102.4,163.1L102.4,163.1z"/>
	<path id="XMLID_6_" class="st4" d="M107.3,133.6c0.3-1.6,0.3-3.1,0-4.5c1.3-1,3.7-1.4,5.5-1.9c1.5-0.9,8.9,0.9,14.4-5.6
		c6.8-8.2,5.4-13.1,5.4-13.1c1.7,1.9,3.4,1.2,6.1,10.2c2.7,9-1.2,15.3-8.5,21.6c-3.4,3-8.3,4.2-12.5,4.7c1.4-1.4-2.4-1.5-5-2.5
		c0.2-2.1-0.1-4.2-1.7-5.8c-0.9-1-2.2-1.6-3.4-2.1c-0.1-0.2-0.1-0.3-0.2-0.5C107.2,133.9,107.3,133.7,107.3,133.6L107.3,133.6
		L107.3,133.6z"/>
	<path id="XMLID_5_" class="st5" d="M112.6,142.3c0.2-0.4,0.3-0.9,0.4-1.3c0.1-0.5,0.7-1.9,0-0.3c0.2-0.4,0.3-0.8,0.4-1.3
		c11.8,0,22.1-8.1,20.1-25.1c1.5-2,3.7,4.1,3.7,4.1s5.9,17.1-9.3,23.8c-5.1,2.2-9.6,3.8-10.6,3.2c-2.2,0.4-4.2-1.1-4.9-2.1
		C112.4,142.9,112.5,142.6,112.6,142.3L112.6,142.3L112.6,142.3z"/>
	<path id="XMLID_4_" class="st6" d="M107.5,131.1c0-1.4-0.3-2.8-1-4.2c0-0.1-0.1-0.2-0.2-0.3c4.5,0,9.8-0.5,14.2-2.3
		c4.9-2,11-8.7,12.1-16.5c0,0,9.2,7.1,6.5,22.3c-2.5,14.3-14.5,18.9-28.1,19.7c0-0.1,1.5-3.3,1-5.2c7.7,0.6,16.4-2.4,20.6-9.3
		c3.8-6.3,2.8-17,1.2-18.6C130,128.8,116.2,131.3,107.5,131.1L107.5,131.1L107.5,131.1z"/>
	<path class="st6" d="M113,134.7c-1.6-1.8-4.6-3.9-11.5-3.9c0,0-13.1,0-18.4,0l0,0h0h0c-5.3,0-18.4,0-18.4,0
		c-6.9,0-9.9,2.1-11.5,3.9c-2.4,2.6-2.7,6.1-1.1,10.6c4.4,11.9,10.5,23.9,31,23.9v0c0,0,0,0,0,0c0,0,0,0,0,0v0
		c20.5,0,26.7-12.1,31-23.9C115.8,140.8,115.4,137.2,113,134.7L113,134.7L113,134.7z M109.8,144.4c-2.1,6-7.7,20.4-26.8,20.4
		c-19.1,0-24.7-14.4-26.8-20.4c-1.2-3.3-1.1-5.8,0.3-7.3c0.9-1,3-2.3,7.8-2.3l5,0c3.7,0,8.3,0,13.7,0c5.5,0,10.1,0,13.7,0l5,0
		c4.8,0,6.9,1.2,7.8,2.3C110.9,138.7,111,141.1,109.8,144.4L109.8,144.4L109.8,144.4z"/>
	<path id="XMLID_1_" class="st6" d="M106.1,122.4c2.5,7.2,7.5,13,7.5,13s-6.9-0.3-7.3-1.5c-0.3-0.9-6.2-14.8-8.5-31.1
		C99.9,106.3,105.9,121.8,106.1,122.4L106.1,122.4L106.1,122.4z"/>
</g>
</svg>
