<?xml version="1.0" encoding="utf-8"?>
<!-- Generator: Adobe Illustrator 19.0.0, SVG Export Plug-In . SVG Version: 6.00 Build 0)  -->
<svg version="1.1" id="Layer_1" xmlns="http://www.w3.org/2000/svg" xmlns:xlink="http://www.w3.org/1999/xlink" x="0px" y="0px"
	 viewBox="0 0 309.3 270.1" enable-background="new 0 0 309.3 270.1" xml:space="preserve">
<path id="XMLID_2_" fill="#62166D" d="M89.8,104.5c12.8,4.7,26.9,9.9,41.7,15.3c2.1-5.6,2.8-7.6,3.7-10.1c1.4-3.7,2.5-6.7,3.2-8.6
	L96.7,85.8L89.8,104.5z"/>
<polygon id="XMLID_1_" fill="#62166D" points="140.3,106.8 138.4,101 131.5,119.7 131.5,119.7 136.8,116.2 "/>
<path id="XMLID_4_" fill="#62166D" d="M206.5,82.4c-12.2,6.2-25.7,13-39.8,20.1c2.4,5.4,3.3,7.3,4.4,9.8c1.6,3.6,2.9,6.5,3.7,8.4
	l39.8-20.1L206.5,82.4z"/>
<polygon id="XMLID_3_" fill="#62166D" points="169.6,118.1 174.9,120.8 166.8,102.7 166.7,102.6 165.4,109 "/>
<path id="XMLID_6_" fill="#62166D" d="M120.3,171.4c9.3-10.2,19.5-21.5,30.3-33.4c-4.1-4.2-5.6-5.7-7.5-7.6c-2.8-2.8-4.9-5-6.4-6.4
	l-30.3,33.4L120.3,171.4z"/>
<polygon id="XMLID_5_" fill="#62166D" points="142.5,124.6 136.6,124.2 150.4,138.3 150.5,138.3 149.5,131.7 "/>
<path id="XMLID_8_" fill="#62166D" d="M206.5,82.4c-12.2,6.2-25.7,13-39.8,20.1c2.4,5.4,3.3,7.3,4.4,9.8c1.6,3.6,2.9,6.5,3.7,8.4
	l39.8-20.1L206.5,82.4z"/>
<polygon id="XMLID_7_" fill="#62166D" points="169.6,118.1 174.9,120.8 166.8,102.7 166.7,102.6 165.4,109 "/>
<path id="XMLID_12_" fill="#62166D" d="M143.8,52.8c-0.1,14-0.2,29.5-0.3,45.7c5.8,0.2,7.8,0.2,10.5,0.3c3.9,0.1,6.9,0.2,8.9,0.3
	l0.3-45.7L143.8,52.8z"/>
<polygon id="XMLID_11_" fill="#62166D" points="158.3,102.8 163,99 143.7,98.5 143.6,98.5 148.5,102.5 "/>
<path id="XMLID_10_" fill="#62166D" d="M143.8,52.8c-0.1,14-0.2,29.5-0.3,45.7c5.8,0.2,7.8,0.2,10.5,0.3c3.9,0.1,6.9,0.2,8.9,0.3
	l0.3-45.7L143.8,52.8z"/>
<polygon id="XMLID_9_" fill="#62166D" points="158.3,102.8 163,99 143.7,98.5 143.6,98.5 148.5,102.5 "/>
<path id="XMLID_16_" fill="#62166D" d="M200.7,159c-8.9-10.6-18.7-22.4-28.9-34.6c-4.5,3.8-6.1,5.1-8.1,6.9c-3,2.5-5.3,4.5-6.9,5.8
	l28.9,34.6L200.7,159z"/>
<polygon id="XMLID_15_" fill="#62166D" points="158,131.1 156.8,137.1 171.8,124.4 171.8,124.4 165.5,124.7 "/>
<path id="XMLID_14_" fill="#62166D" d="M200.7,159c-8.9-10.6-18.7-22.4-28.9-34.6c-4.5,3.8-6.1,5.1-8.1,6.9c-3,2.5-5.3,4.5-6.9,5.8
	l28.9,34.6L200.7,159z"/>
<polygon id="XMLID_13_" fill="#62166D" points="158,131.1 156.8,137.1 171.8,124.4 171.8,124.4 165.5,124.7 "/>
<polygon id="XMLID_17_" fill="#62166D" points="171.7,94 169,92.2 182.6,70.9 185.2,72.7 "/>
<polygon id="XMLID_18_" fill="#62166D" points="183.3,126.3 182.9,123.1 207.5,120.3 207.8,123.5 "/>
<polygon id="XMLID_19_" fill="#62166D" points="158.3,171 155.2,171.4 152.1,146.1 155.3,145.7 "/>
<polygon id="XMLID_20_" fill="#62166D" points="122,125.2 123.3,128.1 100.8,138.7 99.5,135.7 "/>
<polygon id="XMLID_21_" fill="#62166D" points="136.2,88.2 133.8,90.3 117.9,70.6 120.4,68.6 "/>
<ellipse id="XMLID_22_" fill="none" stroke="#4F1459" stroke-width="26.4069" stroke-miterlimit="10" cx="152.4" cy="111.9" rx="92.5" ry="90.8"/>
<g id="XMLID_23_">
	<path id="XMLID_77_" fill="#450951" stroke="#5F0D70" stroke-width="0.6602" stroke-miterlimit="10" d="M32.7,206.1h21.5v3.4h-2.1
		c-1.4,0-2.5,0.1-3.1,0.4c-0.6,0.3-1.1,0.8-1.4,1.4c-0.3,0.6-0.5,1.6-0.5,2.9v29.5c0,4.5-0.7,7.9-2.2,10.5c-1.4,2.5-3.8,4.6-6.9,6.2
		c-3.2,1.6-6.9,2.5-11.2,2.5c-5.7,0-10.3-1.5-13.8-4.5c-3.5-3-5.2-6.5-5.2-10.5c0-2,0.5-3.5,1.4-4.6c0.9-1.1,2.1-1.6,3.4-1.6
		c1.1,0,2,0.4,2.7,1.2c0.7,0.8,1.1,1.8,1.1,3.1c0,0.4-0.1,1.1-0.3,2.3c-0.2,1.2-0.4,2-0.4,2.5c0,2,1,3.8,3,5.4
		c2,1.6,4.6,2.4,7.9,2.4c2.7,0,5-0.6,7.2-1.8c2.1-1.2,3.6-2.6,4.6-4.4s1.4-4.3,1.4-7.6v-29.1c0-2-0.2-3.3-0.5-4
		c-0.3-0.7-0.8-1.2-1.5-1.5c-0.7-0.3-1.9-0.5-3.7-0.5h-1.3V206.1z"/>
	<path id="XMLID_79_" fill="#450951" stroke="#5F0D70" stroke-width="0.6602" stroke-miterlimit="10" d="M89.4,238.7l0-4.4
		c0-3-0.8-5.1-2.5-6.3c-1.7-1.3-4-1.9-7.1-1.9c-1.5,0-2.8,0.2-4,0.5c-1.1,0.4-2,0.9-2.7,1.5c-0.7,0.6-1.2,1.3-1.5,2.1
		c-0.1,0.3-0.5,1.4-1,3.4c-0.6,2.4-1.9,3.6-3.7,3.6c-1.1,0-1.9-0.4-2.6-1.1c-0.7-0.7-1-1.7-1-2.9c0-1.8,0.7-3.5,2-5.2
		c1.3-1.7,3.3-3.1,6-4.2c2.7-1.1,5.9-1.7,9.6-1.7c3.4,0,6.4,0.5,8.8,1.6c2.4,1.1,4.2,2.6,5.4,4.5c0.8,1.4,1.2,3.8,1.2,7.4v15.4
		c0,2.2,0.1,3.6,0.2,4.3c0.3,1.1,0.8,2,1.5,2.6c0.7,0.6,1.7,0.9,2.9,0.9c1.2,0,2.7-0.3,4.4-0.8v3.5c-2.2,0.6-4.2,1-6,1
		c-1.9,0-3.5-0.3-4.8-0.8c-1.3-0.5-2.4-1.3-3.2-2.3c-0.8-1-1.4-2.2-1.6-3.7c-3.2,2.5-6.1,4.3-8.7,5.3c-2.6,1-5.2,1.5-7.9,1.5
		c-3.7,0-6.7-1-9-3c-2.3-2-3.5-4.3-3.5-7c0-1.6,0.4-3.2,1.3-4.6c0.8-1.5,2.1-2.8,3.9-3.9c1.7-1.1,4.5-2.1,8.2-3
		C77.7,240.2,82.9,239.4,89.4,238.7z M89.4,242.2c-6.2,0.9-10.1,1.5-11.6,1.9c-2.9,0.7-5,1.4-6.3,2.2c-1.3,0.8-2.2,1.7-2.7,2.6
		c-0.5,0.9-0.8,1.9-0.8,2.9c0,1,0.3,2,0.9,3c0.6,1,1.5,1.7,2.6,2.3c1.1,0.6,2.3,0.8,3.5,0.8c1.7,0,3.7-0.4,5.9-1.2
		c2.2-0.8,5-2.4,8.5-4.8L89.4,242.2z"/>
	<path id="XMLID_82_" fill="#450951" stroke="#5F0D70" stroke-width="0.6602" stroke-miterlimit="10" d="M135.5,223.3h2.8l3.6,12.2
		l-3.6,1.2c-1.4-3.3-3.5-5.9-6.1-7.7c-2.6-1.9-5.3-2.8-7.9-2.8c-2.1,0-3.7,0.5-5,1.5s-1.9,2.2-1.9,3.5c0,1.2,0.5,2.3,1.4,3.2
		c0.9,0.9,3,1.9,6.2,3.1l7.8,2.8c4.4,1.6,7.4,3.3,9.1,5c1.6,1.8,2.4,3.9,2.4,6.2c0,1.9-0.6,3.8-1.8,5.6c-1.2,1.8-2.9,3.2-5.1,4.3
		c-2.2,1.1-4.8,1.6-7.7,1.6c-4.5,0-8.4-1.3-11.6-3.8l-0.8,2.9h-2.9l-5-13.1l3.6-1.4c2.4,3.8,4.8,6.6,6.9,8.2c3,2.3,6.3,3.4,9.8,3.4
		c2.3,0,4.3-0.6,5.8-1.9c1.5-1.2,2.3-2.6,2.3-4.1c0-1.3-0.5-2.4-1.4-3.4c-1-1-2.8-2-5.6-3l-9.3-3.4c-4-1.4-6.8-3-8.3-4.7
		c-1.6-1.7-2.3-3.7-2.3-5.9c0-2.7,1.3-5.1,3.8-7.1c2.5-2.1,5.8-3.1,9.7-3.1c2,0,3.9,0.3,5.5,0.8c1.6,0.5,3.2,1.4,4.7,2.6
		L135.5,223.3z"/>
	<path id="XMLID_84_" fill="#450951" stroke="#5F0D70" stroke-width="0.6602" stroke-miterlimit="10" d="M151,229.1v-3.4
		c2-0.2,3.8-0.5,5.3-1c1.5-0.5,3.2-1.3,5.2-2.4h3v6.7c3.1-2.4,5.4-4,7.2-4.8c2.6-1.3,5.1-1.9,7.5-1.9c1.6,0,3.2,0.3,4.8,0.9
		c1.6,0.6,2.8,1.3,3.8,2.2c1,0.9,1.8,2.1,2.4,3.6c2.8-2.5,5.4-4.2,7.8-5.2c2.4-1,4.8-1.5,7.3-1.5c2.4,0,4.4,0.5,6.3,1.5
		c1.8,1,3.1,2.2,3.9,3.7c0.8,1.5,1.2,3.6,1.2,6.4v18.6c0,1.9,0,3.1,0.1,3.4c0.1,0.5,0.4,1,0.9,1.4c0.4,0.5,0.9,0.8,1.5,1
		c0.6,0.2,1.6,0.3,3.1,0.3h1.3v3.4h-20.2v-3.4c2.3,0,3.8-0.2,4.5-0.5c0.7-0.3,1.2-0.8,1.5-1.5c0.3-0.7,0.5-2.1,0.5-4.1v-17.6
		c0-2.2-0.2-3.8-0.6-4.6c-0.4-0.9-1.1-1.6-2.2-2.1s-2.3-0.9-3.9-0.9c-1.9,0-3.9,0.5-6,1.5c-2.8,1.4-5,2.9-6.6,4.7v19.1
		c0,1.8,0.1,3,0.3,3.6c0.2,0.6,0.5,1.1,0.9,1.4c0.4,0.4,0.9,0.7,1.4,0.8c0.6,0.1,1.9,0.2,4,0.2v3.4h-19.8v-3.4h1.1
		c1.6,0,2.7-0.2,3.4-0.6c0.7-0.4,1.2-0.9,1.5-1.7c0.3-0.6,0.4-1.9,0.4-3.8v-17c0-2.5-0.2-4.2-0.6-5.1c-0.4-0.9-1.1-1.6-2.2-2.2
		c-1.1-0.6-2.4-0.9-3.9-0.9c-1.7,0-3.5,0.4-5.3,1.3c-2.6,1.3-5.1,2.9-7.3,4.9v20.6c0,1.2,0.2,2.1,0.5,2.7c0.3,0.6,0.9,1,1.6,1.4
		c0.7,0.3,1.7,0.5,3,0.5h1.5v3.4h-20.2v-3.4h1.1c1.8,0,3.1-0.1,3.6-0.4c0.9-0.4,1.5-1,1.8-1.9c0.2-0.5,0.3-1.7,0.3-3.7v-23.4H151z"
		/>
	<path id="XMLID_86_" fill="#450951" stroke="#5F0D70" stroke-width="0.6602" stroke-miterlimit="10" d="M228.3,229v-3.3
		c2.2-0.3,4.1-0.6,5.6-1.1c1.5-0.5,3.2-1.2,5.2-2.3h2.9v32.1c0,1.1,0.2,2,0.5,2.5c0.3,0.6,0.8,1,1.3,1.2c0.6,0.3,1.6,0.4,3.2,0.4
		h1.9v3.4h-20.6v-3.4h1.7c1.8,0,3-0.2,3.6-0.5c0.6-0.3,1.1-0.8,1.3-1.4c0.3-0.6,0.4-2,0.4-4.1V229H228.3z M238.5,204.3
		c1.3,0,2.4,0.4,3.3,1.3c0.9,0.9,1.4,2,1.4,3.3s-0.5,2.4-1.4,3.3s-2,1.4-3.3,1.4c-1.3,0-2.4-0.5-3.3-1.4s-1.4-2-1.4-3.3
		s0.5-2.4,1.4-3.3C236.1,204.7,237.2,204.3,238.5,204.3z"/>
	<path id="XMLID_89_" fill="#450951" stroke="#5F0D70" stroke-width="0.6602" stroke-miterlimit="10" d="M253.3,229v-3.3
		c2.4-0.3,4.2-0.6,5.4-1c1.2-0.4,2.9-1.2,5.1-2.4h2.9v7.6c3.5-3,6.6-5,9.1-6c2.5-1.1,5-1.6,7.6-1.6c2.2,0,4.1,0.4,5.8,1.1
		s3.1,1.7,4.1,3c1.1,1.3,1.8,2.7,2.1,4.3c0.2,1,0.3,2.5,0.3,4.5v17.6c0,2.1,0.2,3.5,0.5,4.1c0.3,0.6,0.8,1,1.5,1.3
		c0.7,0.3,2.3,0.4,4.9,0.4v3.4h-20.7v-3.4h1.1c1.9,0,3.2-0.2,3.9-0.5c0.7-0.3,1.2-0.9,1.5-1.5c0.3-0.7,0.5-2,0.5-4.1v-14.7
		c0-3-0.2-5.1-0.7-6.3c-0.5-1.2-1.3-2.1-2.5-2.9s-2.7-1.1-4.5-1.1c-2.2,0-4.5,0.6-7,1.7c-2.5,1.1-4.9,2.7-7.2,4.9v18.4
		c0,2.1,0.2,3.5,0.5,4.2c0.3,0.7,0.8,1.2,1.5,1.6c0.5,0.3,1.8,0.4,3.9,0.4h1.2v3.4h-20.8v-3.4h1c2,0,3.4-0.2,4.1-0.5
		s1.2-0.9,1.5-1.8c0.2-0.4,0.2-1.9,0.2-4.4V229H253.3z"/>
</g>
<g id="XMLID_76_">
</g>
<g id="XMLID_91_">
</g>
<g id="XMLID_92_">
</g>
<g id="XMLID_93_">
</g>
<g id="XMLID_94_">
</g>
<g id="XMLID_95_">
</g>
<g id="XMLID_96_">
</g>
<g id="XMLID_97_">
</g>
<g id="XMLID_98_">
</g>
<g id="XMLID_99_">
</g>
<g id="XMLID_100_">
</g>
<g id="XMLID_101_">
</g>
<g id="XMLID_102_">
</g>
<g id="XMLID_103_">
</g>
<g id="XMLID_104_">
</g>
</svg>
