<?xml version="1.0" encoding="utf-8"?>
<!-- Generator: Adobe Illustrator 18.0.0, SVG Export Plug-In . SVG Version: 6.00 Build 0)  -->
<!DOCTYPE svg PUBLIC "-//W3C//DTD SVG 1.1//EN" "http://www.w3.org/Graphics/SVG/1.1/DTD/svg11.dtd">
<svg version="1.1" id="Layer_1" xmlns="http://www.w3.org/2000/svg" xmlns:xlink="http://www.w3.org/1999/xlink" x="0px" y="0px"
	 viewBox="341 102 277 355" enable-background="new 341 102 277 355" xml:space="preserve">
<g>
	<g>
		<path fill="#FDFDFD" d="M433.3,371.1c-3.5,1.6-7.3,2.7-10.5,4.8c-3.2,2.2-3.5,5.8-0.3,8.2c3.5,2.6,7.4,5.1,11.5,6.6
			c19.2,6.7,39,7.2,58.9,4.8c13.2-1.6,26.1-4.7,38.9-10.1c-4.2-2-7.9-3.3-11.2-5.5c-4.3-2.9-8.6-3.1-13.6-2.1
			c-17.9,3.6-36,4.5-54.2,2.5c-5.8-0.6-11.5-1.8-17.1-3C432.4,376.5,431.3,374.2,433.3,371.1l0.1-0.2L433.3,371.1z M514.9,113.1
			c-0.4,0.5-0.6,0.6-0.6,0.7c0.2,1.3,0.4,2.7,0.6,4c2.3,14.3-0.4,27.8-9.7,38.7c-8.7,10.2-19,19.2-29.1,28
			c-11.4,9.9-24,18.3-33.1,30.6c-7.1,9.5-8.6,19.6-3.8,30.4c8.3,18.6,23.2,31.6,37.9,44.8c-1.3-3.2-2.5-6.3-4.3-9.1
			c-3.8-5.9-8-11.5-11.7-17.5c-11.7-19.4-10.2-35.4,5.6-51.7c7.6-7.8,16.4-14.6,24.4-21.9c13.6-12.4,25.5-26,30-44.5
			C524,133.9,522.1,123.1,514.9,113.1z M586,399.4c-2.3,2.7-4.1,5.8-6.7,7.8c-2.2,1.7-5.2,2.5-8,3.3c-22.6,6.2-45.9,8.2-69.2,8.7
			c-27,0.7-54.1,0.4-81.2-1c-13-0.6-25.9-4.5-38.7-7.2c-1.6-0.3-4.1-2.4-4.1-3.7c0-1.5,2-3.6,3.6-4.3c6.5-2.8,13.1-5.2,19.2-7.5
			c-6.3-2.6-13-0.2-19.5,2.2c-6.9,2.5-13.7,5.4-19.9,9.4c-6.7,4.3-5.9,8.9,1.5,11.7c4,1.5,8.2,2.5,12.4,3.2
			c34.8,5.4,69.8,7.9,105,6.8c26.8-0.8,53.4-3.1,79.4-10.1c8.6-2.3,17-6.2,25-10.4C590,405.4,589.5,401.9,586,399.4z M495.8,301.9
			c2.6-1.2,4.5-1.6,5.7-2.7c3.7-3.3,7.5-6.6,10.5-10.5c8.4-10.7,8.4-20,0.8-31.1c-3.1-4.5-6.4-8.9-9.2-13.6
			c-5.9-9.9-5.3-18.5,1.9-27.6c10.1-12.7,23.8-21,37.2-29.6c1.7-1.1,3.2-2.3,4.8-3.5c-0.2-0.4-0.4-0.8-0.6-1.2
			c-5.5,2-11.1,3.7-16.5,6c-15.2,6.5-29.8,14.1-40.5,27.2c-9.7,11.9-11.8,24.9-4.9,38.8c2.7,5.5,6.3,10.6,10,15.4
			C503.7,280.9,504.2,288.9,495.8,301.9z M432.9,296.7c-0.1-0.4-0.1-0.8-0.2-1.2c-4.3,0.6-8.8,0.7-13,2
			c-10.7,3.4-21.3,7.3-31.8,11.3c-1.6,0.6-3.7,2.9-3.7,4.3c0.1,1.4,2.4,3.2,4.1,3.9c4,1.5,8.1,2.8,12.3,3.5
			c22,3.9,44.3,3.8,66.6,3.2c22.3-0.6,44.4-2.6,66.1-8.1c3.7-0.9,7-3.2,10.5-4.9c-1.7-1.3-2.8-1.6-4-1.5
			c-25.2,2.2-50.4,5.3-75.7,6.4c-16.8,0.7-33.8-1.2-50.7-2.2c-2.1-0.1-4-2.6-5.9-4c1.6-1.6,3-3.8,4.9-4.7
			C419.2,301.8,426.1,299.3,432.9,296.7z M424.7,334.2c-3.2,1.6-6.5,3-9.5,4.9c-6.4,4.1-6.4,8.9,0.6,12.2c5.7,2.6,11.9,4.6,18,5.7
			c24.2,4.3,48.4,3.4,72.6-0.4c10.3-1.6,20.4-4,31.8-6.3c-3.5-2-5.9-2.8-7.6-4.4c-4-3.9-8.4-4-13.6-3c-22.5,4.4-45.1,5.9-68,4.1
			c-6.6-0.5-13.3-1.1-19.8-2.5C423,343.2,422.3,340.7,424.7,334.2z M413,437.5c-0.1,0.4-0.1,0.9-0.2,1.3c1.4,0.4,2.8,0.9,4.3,1.1
			c13.6,1.5,27.2,3.4,40.8,4.1c34.8,2,69.5,0.7,103.9-6.1c11.6-2.3,23.1-5.2,33-12.3c2.6-1.9,4.6-4.7,7.8-7.9
			c-11.3,4.1-20.7,8.4-30.5,10.9c-47.2,11.8-95.2,13.1-143.4,9.8C423.5,438,418.3,437.8,413,437.5z M555.4,355.2
			c-0.3-0.2,0,0.2,0.2,0.2c2.2-0.6,4.4-1.2,6.6-2c12.6-4.4,24.4-10.1,33.4-20.3c9.2-10.4,9.8-22.8,1.6-32.1
			c-7.5-8.5-24.4-12.6-35.9-5.2c0.1,0.1,0.2,0.4,0.3,0.4c1.4,0,2.9-0.1,4.3-0.2c8.1-0.8,14.9,1.8,19.9,8.3
			c5.1,6.8,4.8,14.1,1.2,21.3c-1.7,3.5-3.9,7.1-6.8,9.6C572.3,342.1,563.8,348.5,555.4,355.2z"/>
		<path fill="#E83436" d="M514.9,113.1c7.2,10,9.1,20.9,6.2,32.6c-4.5,18.5-16.4,32.1-30,44.5c-8.1,7.4-16.8,14.1-24.4,21.9
			c-15.8,16.3-17.4,32.3-5.6,51.7c3.6,6,7.9,11.6,11.7,17.5c1.8,2.8,3.1,5.9,4.3,9.1c-14.7-13.2-29.6-26.2-37.9-44.8
			c-4.8-10.8-3.3-21,3.8-30.4c9.2-12.2,21.8-20.7,33.1-30.6c10.2-8.8,20.4-17.9,29.1-28c9.3-10.9,12-24.4,9.7-38.7
			c-0.2-1.3-0.4-2.7-0.6-4C514.3,113.7,514.5,113.6,514.9,113.1z"/>
		<path fill="#1279BE" d="M586,399.4c3.6,2.5,4,6.1-1.2,8.8c-8,4.1-16.3,8-25,10.4c-25.9,7-52.6,9.2-79.4,10.1
			c-35.2,1.1-70.2-1.4-105-6.8c-4.2-0.7-8.4-1.7-12.4-3.2c-7.4-2.8-8.2-7.4-1.5-11.7c6.1-3.9,13-6.9,19.9-9.4
			c6.4-2.3,13.2-4.8,19.5-2.2c-6,2.3-12.7,4.7-19.2,7.5c-1.6,0.7-3.6,2.9-3.6,4.3c0,1.3,2.4,3.4,4.1,3.7c12.9,2.7,25.7,6.5,38.7,7.2
			c27,1.3,54.1,1.6,81.2,1c23.3-0.6,46.5-2.5,69.2-8.7c2.8-0.8,5.8-1.6,8-3.3C581.9,405.1,583.7,402.1,586,399.4z"/>
		<path fill="#E83334" d="M495.8,301.9c8.4-13,7.8-20.9-0.9-32.2c-3.8-4.8-7.3-10-10-15.4c-6.8-13.9-4.8-26.9,4.9-38.8
			c10.8-13.1,25.3-20.8,40.5-27.2c5.4-2.3,11-4,16.5-6c0.2,0.4,0.4,0.8,0.6,1.2c-1.6,1.2-3.1,2.4-4.8,3.5
			c-13.4,8.6-27.1,16.8-37.2,29.6c-7.2,9.1-7.8,17.7-1.9,27.6c2.8,4.7,6.1,9.1,9.2,13.6c7.7,11.1,7.6,20.4-0.8,31.1
			c-3,3.9-6.9,7.2-10.5,10.5C500.3,300.3,498.4,300.7,495.8,301.9z"/>
		<path fill="#0B77BD" d="M433.4,371.1c-2.1,3.1-1,5.4,2.3,6.2c5.7,1.3,11.4,2.4,17.1,3c18.2,2,36.3,1.1,54.2-2.5
			c5-1,9.2-0.8,13.6,2.1c3.2,2.1,7,3.5,11.2,5.5c-12.8,5.5-25.7,8.6-38.9,10.1c-19.9,2.4-39.7,1.9-58.9-4.8c-4.1-1.4-8-3.9-11.5-6.6
			c-3.2-2.4-2.9-6.1,0.3-8.2C426,373.8,429.8,372.7,433.4,371.1L433.4,371.1z"/>
		<path fill="#1178BD" d="M432.9,296.7c-6.8,2.6-13.7,5.1-20.3,8c-1.9,0.9-3.3,3.1-4.9,4.7c2,1.4,3.9,3.8,5.9,4
			c16.9,1.1,33.8,3,50.7,2.2c25.3-1.1,50.5-4.2,75.7-6.4c1.1-0.1,2.3,0.2,4,1.5c-3.5,1.7-6.8,4-10.5,4.9
			c-21.7,5.5-43.8,7.5-66.1,8.1c-22.3,0.6-44.5,0.7-66.6-3.2c-4.2-0.7-8.3-2-12.3-3.5c-1.7-0.6-4.1-2.5-4.1-3.9
			c-0.1-1.4,2-3.7,3.7-4.3c10.5-4,21.1-7.9,31.8-11.3c4.1-1.3,8.6-1.4,12.9-2C432.8,295.9,432.8,296.3,432.9,296.7z"/>
		<path fill="#0E78BD" d="M424.7,334.2c-2.4,6.6-1.7,9,4.6,10.3c6.5,1.4,13.2,2,19.8,2.5c22.8,1.8,45.5,0.3,68-4.1
			c5.2-1,9.6-0.9,13.6,3c1.6,1.6,4.1,2.4,7.6,4.4c-11.4,2.3-21.5,4.7-31.8,6.3c-24.2,3.8-48.4,4.7-72.6,0.4
			c-6.2-1.1-12.3-3.1-18-5.7c-7-3.2-7-8.1-0.6-12.2C418.2,337.1,421.5,335.8,424.7,334.2z"/>
		<path fill="#177BBE" d="M413,437.5c5.2,0.3,10.4,0.5,15.7,0.9c48.3,3.4,96.2,2.1,143.4-9.8c9.8-2.5,19.2-6.8,30.5-10.9
			c-3.1,3.2-5.1,6-7.8,7.9c-9.8,7.1-21.4,10.1-33,12.3c-34.3,6.7-69,8-103.9,6.1c-13.6-0.8-27.2-2.7-40.8-4.1
			c-1.5-0.2-2.9-0.7-4.3-1.1C412.9,438.4,413,437.9,413,437.5z"/>
		<path fill="#137ABE" d="M555.4,355.2c8.3-6.7,16.9-13.1,24.9-20.1c2.9-2.5,5-6.1,6.8-9.6c3.6-7.2,3.9-14.6-1.2-21.3
			c-4.9-6.6-11.8-9.1-19.9-8.3c-1.4,0.1-2.9,0.2-4.3,0.2c-0.1,0-0.2-0.3-0.3-0.4c11.5-7.4,28.4-3.3,35.9,5.2
			c8.2,9.3,7.6,21.8-1.6,32.1c-9,10.2-20.8,16-33.4,20.3c-2.2,0.8-4.4,1.4-6.6,2C555.5,355.4,555.2,355,555.4,355.2z"/>
		<polygon fill="#0B77BD" points="433.3,371.1 433.4,370.9 433.4,371.1 		"/>
	</g>
</g>
</svg>
