<?xml version="1.0" encoding="utf-8"?>
<!-- Generator: Adobe Illustrator 19.0.0, SVG Export Plug-In . SVG Version: 6.00 Build 0)  -->
<svg version="1.1" id="Layer_1" xmlns="http://www.w3.org/2000/svg" xmlns:xlink="http://www.w3.org/1999/xlink" x="0px" y="0px"
	 viewBox="0 0 167 179" style="enable-background:new 0 0 167 179;" xml:space="preserve">
<style type="text/css">
	.st0{fill:none;}
	.st1{fill:#999999;stroke:#999999;stroke-width:0.1094;stroke-miterlimit:10;}
	.st2{fill:#000066;stroke:#000066;stroke-width:0.4377;stroke-miterlimit:10;}
	.st3{fill:#333399;stroke:#333399;stroke-width:0.4377;stroke-miterlimit:10;}
	.st4{fill:#FFFFFF;}
	.st5{fill:#CCCCCC;stroke:#FFFFFF;stroke-width:0.6299;}
</style>
<rect id="XMLID_58_" x="8.1" y="7.9" class="st0" width="150" height="164.3"/>
<polygon id="XMLID_9_" class="st1" points="81.6,15.5 20.7,61.5 35.1,130.7 81.2,165 128,136.1 146.4,58.4 "/>
<g>
	<polygon id="XMLID_8_" class="st2" points="138.1,60.8 82.3,25.7 29.5,63.6 44.3,127.7 82.3,155.4 122.1,129.5 	"/>
	<polygon id="XMLID_7_" class="st3" points="81.6,25.9 29,63.6 43.8,127.7 81.6,155.1 	"/>
</g>
<g>
	<path class="st4" d="M76.7,57.6L71,64.2V94c0,5.5-0.1,9.4-0.4,11.8c-0.3,2.4-0.7,4.3-1.5,5.9c-1.8,4-5.4,5.9-10.5,5.9
		c-5.5,0-9.3-1.9-11.6-5.9c-1.8-3.1-2.6-9.1-2.6-17.8V63.2l-4.3-5.6h14.9l-4.3,6.1v30.1l0.1,7.1c0,4.6,0.6,7.9,1.9,9.7
		c1.3,1.9,3.5,2.9,6.6,2.9c3.4,0,5.7-1.5,7-4.3c1-2.4,1.6-7.4,1.6-15.2l0.1-29.8l-4.9-6.6L76.7,57.6L76.7,57.6z M77.8,60.7L73.5,66
		v28.6c0,9.3-0.5,15.4-1.5,18.3c-2,5.7-6.1,8.7-12.1,8.7c-5.2,0-9.1-1.8-11.6-5.6l0.3,0.2l1.1,0.9c2.6,2.2,5.9,3.3,10,3.3
		c5.8,0,9.7-2.7,11.6-8c1-2.9,1.5-8.7,1.5-17.4V65.4l4.7-5.6L77.8,60.7z M56.4,60.1l-3.1,4.5v34.2v3.1l1,5.8
		c0.5,1.2,1.4,2.6,2.8,4.3l0.1,0.4c-1.8-1-3-2.6-3.7-4.5c-0.6-2-1-5.1-1-9.2V64.2l3.6-5.1L56.4,60.1z"/>
</g>
<g>
	<path id="XMLID_1_" class="st5" d="M91.6,57.3H112l-5.7,6.2v47.8l5.5,4.9H91.6l6-5.3V63L91.6,57.3z M113.9,60l-4.3,4.6v46.7
		l7.2,8.6H94.5l-1.1-1.2h20.9l-5.9-6.9V64.1l4.8-5.2L113.9,60z"/>
</g>
</svg>
