<?xml version="1.0" encoding="utf-8"?>
<!-- Generator: Adobe Illustrator 19.0.0, SVG Export Plug-In . SVG Version: 6.00 Build 0)  -->
<svg version="1.1" id="Layer_1" xmlns="http://www.w3.org/2000/svg" xmlns:xlink="http://www.w3.org/1999/xlink" x="0px" y="0px"
	 viewBox="0 0 163 178" style="enable-background:new 0 0 163 178;" xml:space="preserve">
<style type="text/css">
	.st0{fill:none;}
	.st1{fill:#126AAD;}
	.st2{fill:#121B27;}
</style>
<rect id="XMLID_58_" x="6.1" y="6.9" class="st0" width="150" height="164.3"/>
<g>
	<path id="XMLID_14_" class="st1" d="M123.7,86.1c-2.6,9.9-41.8,37.4-73,6.2c-28-29.2-4.9-56.3-4.9-56.3s-8.7,29,18.9,50.3
		C95.5,110.1,123.7,86.1,123.7,86.1z"/>
	<path id="XMLID_13_" class="st1" d="M124.4,63.7c-1.8,7-28.2,28.4-51.5,4.4c-20.6-21.3-3.4-39.7-3.4-39.7s-6.2,20.5,13.3,35.5
		C104.4,80.6,124.4,63.7,124.4,63.7z"/>
	<path id="XMLID_12_" class="st1" d="M122.1,46.7c-1.1,4.3-16,14.8-31,0.7C78.3,34,89,22.6,89,22.6s-4.1,13.2,8.3,22.2
		C110.7,54.5,122.1,46.7,122.1,46.7z"/>
	<path id="XMLID_11_" class="st2" d="M27.4,131.1c0,0-2.2,14.8-4.3,16.9c-0.7,0.8-3.8,0.7-3.8,0.7l-0.6,4.8c0,0,5.2,0.3,7.1-0.5
		c4.4-2,7.3-22.3,7.3-22.3L27.4,131.1z"/>
	<polygon id="XMLID_10_" class="st2" points="33.8,128.6 34.9,124.3 28.9,124.3 28.3,128.6 	"/>
	<path class="st2" d="M52.8,118.4c-10.4-1.7-14.6,5.9-16.6,12.5c-2.6,8.6,3.5,13.8,5,14c1.5,0.2,18.5,0,18.5,0l1.1-4.9h-2.7
		C58.2,139.9,67.5,120.9,52.8,118.4z M52.5,139.7h-7.2c0,0-6.6,0-1.2-12.9c1.8-3.5,6.5-4.8,10.5-1.2
		C57.3,128.2,52.5,139.7,52.5,139.7z"/>
	<path id="XMLID_7_" class="st2" d="M71,124.3c0,0-2.8,13.7-1.5,15.5c5.7,0,1.7,0.1,6.4,0c0.5-1.3,3-15.5,3-15.5h5.1
		c0,0-3.2,17.7-4.1,20.9c-12,0-3.9-0.2-12-0.2c-8.5,0.4-1.9-20.7-1.9-20.7L71,124.3L71,124.3z"/>
	<path class="st2" d="M103.6,136.2c4.4-13.4-7-12.6-7-12.6s-10.5-0.7-11.7,11.4c-0.3,1.8-2.2,10,4,10c6.2,0,13.1,0,13.1,0l0.1-5.2
		c0,0-7.9,0.1-10.9,0c-2.3-0.9-0.6-3.4-0.6-3.4S90.5,136.2,103.6,136.2z M94.9,128.6c5.1-0.5,4,3.4,4,3.4h-7.7
		C91.2,132,91.8,128.9,94.9,128.6z"/>
	<path id="XMLID_4_" class="st2" d="M127,128.8c0,0.3-12.8,0-12.8,0l-3.7,16.2h-5.3l4.2-20.8c0,0,0,0,14.6,0
		C125.7,124.5,127,128.5,127,128.8z"/>
	<path id="XMLID_3_" class="st2" d="M126.6,130.7h-5.5c0,0,1.3,4.4,2.1,7.8c0.5,2.7-0.5,6.5-0.5,6.5h5.7l2.4-6.4l13.4-17.4h-6.8
		l-8.9,13.1L126.6,130.7z"/>
	<path id="XMLID_2_" class="st2" d="M44.1,126.8"/>
	<path id="XMLID_1_" class="st2" d="M52.1,139.7"/>
</g>
</svg>
