<?xml version="1.0" encoding="utf-8"?>
<!-- Generator: Adobe Illustrator 19.0.0, SVG Export Plug-In . SVG Version: 6.00 Build 0)  -->
<svg version="1.1" id="Layer_1" xmlns="http://www.w3.org/2000/svg" xmlns:xlink="http://www.w3.org/1999/xlink" x="0px" y="0px"
	 viewBox="0 0 165 175" style="enable-background:new 0 0 165 175;" xml:space="preserve">
<style type="text/css">
	.st0{fill:none;}
	.st1{fill:#C4A830;}
	.st2{fill:#E8DC2E;}
	.st3{fill:#FEE15F;}
	.st4{fill:#FFE772;}
	.st5{fill:#FFFFFF;}
	.st6{fill:none;stroke:#FFFFFF;stroke-width:0.3593;stroke-miterlimit:10;}
</style>
<rect id="XMLID_58_" x="8.1" y="4.9" class="st0" width="150" height="164.3"/>
<g>
	<polygon id="XMLID_11_" class="st1" points="33.6,136.9 15.2,24.3 151.5,24.3 133.1,136.9 83.4,149 	"/>
	<path class="st2" d="M151.3,24.6L133,136.8l-49.6,12.1l-49.6-12.1L15.4,24.6H151.3 M151.8,24.3H15l18.5,112.8l49.9,12.2l49.9-12.2
		L151.8,24.3L151.8,24.3z"/>
</g>
<g>
	<polygon id="XMLID_8_" class="st3" points="81.2,31.9 139.8,31.9 125.6,129.6 81.2,138.1 	"/>
	<path class="st4" d="M139.5,32.1l-14.1,97.3l-44.1,8.4V32.1H139.5 M140,31.7H81v106.7l44.8-8.6L140,31.7L140,31.7z"/>
</g>
<g>
	<polygon id="XMLID_5_" class="st5" points="38.9,115.2 38.9,106.5 67,108 67,46.5 75.2,46.5 75.2,108 73.4,108 73.3,108.4 
		75.2,108.5 75.2,116.9 	"/>
	<path class="st5" d="M75.2,46.9V108h-1.8l0,0.7l1.8,0v8.1L39.3,115v-8.2l27.4,1.5l0.2,0v-0.4V46.9H75.2 M75.6,46.5h-9v61.3
		l-27.7-1.5v9l36.6,1.8v-8.8l-2.1,0h2.1V46.5L75.6,46.5z"/>
</g>
<g>
	<polygon id="XMLID_2_" class="st5" points="95.5,57.2 96,79.9 124.3,78.5 120.4,113.2 86.4,116.8 86.8,106.7 112.8,104.6 
		114.7,86.8 87.5,88.3 87.1,46.6 128.9,46.8 127.1,57.2 	"/>
</g>
<line id="XMLID_1_" class="st6" x1="66.6" y1="46.6" x2="75.6" y2="46.6"/>
</svg>
