<?xml version="1.0" encoding="utf-8"?>
<!-- Generator: Adobe Illustrator 19.0.0, SVG Export Plug-In . SVG Version: 6.00 Build 0)  -->
<svg version="1.1" id="Layer_1" xmlns="http://www.w3.org/2000/svg" xmlns:xlink="http://www.w3.org/1999/xlink" x="0px" y="0px"
	 viewBox="0 0 162 178" style="enable-background:new 0 0 162 178;" xml:space="preserve">
<style type="text/css">
	.st0{fill:none;}
	.st1{fill:#003366;stroke:#003366;stroke-width:1.0054;stroke-miterlimit:10;}
	.st2{enable-background:new    ;}
	.st3{fill:#FFFFFF;}
</style>
<rect id="XMLID_58_" x="7.1" y="8.9" class="st0" width="150" height="164.3"/>
<path id="XMLID_3_" class="st1" d="M138.2,92.3c0,37.4-25,67.6-55.6,67.6S27,129.6,27,92.3c0-35,22-64.1,50.1-67.2
	c1.7-0.3,3.8-0.3,5.5-0.3C113.5,24.7,138.2,54.9,138.2,92.3z"/>
<g id="XMLID_1_" class="st2">
	<path id="XMLID_164_" class="st3" d="M71.6,134.4l-7.5-2.4l12-59.3l-16.8-4.5l-12,58.7l-7.5-2.4L62,16.1l7.5,2.4l-8.9,42.9
		c3.1,0.3,6.2,1,9.3,1.4c3.8,0.7,6.9,1,9.3,1.7c4.1,1.4,5.8,4.5,4.8,9.6L71.6,134.4z"/>
	<path id="XMLID_166_" class="st3" d="M118.6,133.1c-0.7,4.1-2.7,7.2-5.5,9.3c-2.7,2.1-5.8,2.7-9.3,1.7l-12.3-3.8L86.4,166l-7.5-2.4
		l18.9-93l7.5,2.4l-0.3,1.7c3.1,0.3,6.2,1,9.3,1.4c3.8,0.7,6.9,1,9.3,1.7c4.1,1.4,5.8,4.5,4.8,9.6L118.6,133.1z M111.4,129.6
		l8.9-43.2L103.5,82l-10.3,50.4l10.6,3.1C107.6,136.8,110.4,134.8,111.4,129.6z"/>
</g>
<g id="XMLID_206_">
</g>
</svg>
