<?xml version="1.0" encoding="utf-8"?>
<!-- Generator: Adobe Illustrator 19.0.0, SVG Export Plug-In . SVG Version: 6.00 Build 0)  -->
<svg version="1.1" id="Layer_1" xmlns="http://www.w3.org/2000/svg" xmlns:xlink="http://www.w3.org/1999/xlink" x="0px" y="0px"
	 viewBox="0 0 162 180" style="enable-background:new 0 0 162 180;" xml:space="preserve">
<style type="text/css">
	.st0{fill:none;}
	.st1{fill:#D4145A;stroke:#D4145A;stroke-width:0.7114;stroke-miterlimit:10;}
	.st2{fill:#29ABE2;stroke:#29ABE2;stroke-width:0.7114;stroke-miterlimit:10;}
</style>
<rect id="XMLID_58_" x="6.1" y="7.9" class="st0" width="150" height="164.3"/>
<polygon id="XMLID_6_" class="st1" points="143.3,100.7 143.8,75.3 82.1,46.3 19.1,73.1 18.6,98.5 81.2,67.9 "/>
<polygon id="XMLID_5_" class="st1" points="144.3,69.4 144.5,44 82.1,16.6 19.7,43.5 19.6,68.9 82.1,40.3 "/>
<polygon id="XMLID_4_" class="st1" points="143.9,133.4 144.5,108.1 82.6,81.6 19.7,105.6 19.2,130.9 82.1,106.9 "/>
<polygon id="XMLID_3_" class="st2" points="144.5,44.3 144.5,69.8 82,98.6 19.6,69.2 19.7,43.8 81.4,73.2 "/>
<polygon id="XMLID_2_" class="st2" points="143.8,75.7 143.4,101.1 82,133.4 18.5,98.8 19.1,73.5 82.1,106.9 "/>
<polygon id="XMLID_1_" class="st2" points="144.5,108.4 143.9,133.7 82,163.8 19,131.2 19.7,105.9 82,140.6 "/>
</svg>
