<?xml version="1.0" encoding="utf-8"?>
<!-- Generator: Adobe Illustrator 19.0.0, SVG Export Plug-In . SVG Version: 6.00 Build 0)  -->
<svg version="1.1" id="Layer_1" xmlns="http://www.w3.org/2000/svg" xmlns:xlink="http://www.w3.org/1999/xlink" x="0px" y="0px"
	 viewBox="0 0 166 178" style="enable-background:new 0 0 166 178;" xml:space="preserve">
<style type="text/css">
	.st0{fill:none;}
	.st1{fill:#90C541;}
	.st2{fill:#46483D;}
	.st3{fill:#FFFFFF;}
</style>
<rect id="XMLID_58_" x="7.6" y="5.4" class="st0" width="150" height="164.3"/>
<g id="Layer_x0020_1">
	<g id="_627126552">
		<polygon id="XMLID_10_" class="st1" points="82.7,13 114.8,31.5 146.8,50 146.8,87 146.8,124 114.8,142.5 82.7,161 50.7,142.5 
			18.6,124 18.6,87 18.6,50 50.7,31.5 		"/>
		<polygon id="XMLID_9_" class="st2" points="36.2,77.4 47.5,84.2 47.5,101.5 40.1,97.6 40.1,88.6 36.2,86.8 32.4,88.6 32.4,97.6 
			24.8,101.5 24.8,84.2 		"/>
		<polygon id="XMLID_8_" class="st3" points="66.9,77.9 72.6,81.2 78.3,84.5 78.3,91.1 78.3,97.7 72.6,101 66.9,104.3 61.2,101 
			55.5,97.7 55.5,91.1 55.5,84.5 61.2,81.2 		"/>
		<polygon id="XMLID_7_" class="st1" points="66.9,86.8 68.7,87.9 70.6,89 70.6,91.1 70.6,93.2 68.7,94.3 66.9,95.4 65,94.3 
			63.2,93.2 63.2,91.1 63.2,89 65,87.9 		"/>
		<polygon id="XMLID_6_" class="st2" points="97.5,77.9 103.2,81.2 108.9,84.5 108.9,91.1 108.9,97.7 103.2,101 97.5,104.3 
			91.8,101 86.1,97.7 86.1,91.1 86.1,84.5 91.8,81.2 		"/>
		<polygon id="XMLID_5_" class="st2" points="101.3,62.8 108.9,66.7 108.9,85.5 101.3,81.1 		"/>
		<polygon id="XMLID_4_" class="st2" points="128.2,77.9 131.6,79.8 132.2,80.2 139.6,84.4 139.6,88.3 139.6,89 132.5,92.8 
			127.9,95.4 135.6,100 128.2,104.2 124.8,102.3 124.3,102 116.8,97.6 116.8,93.7 116.8,93.1 116.8,84.4 120.2,82.5 120.8,82.2 		
			"/>
		<polygon id="XMLID_3_" class="st1" points="128.2,86.6 129.4,87.2 129.6,87.3 132.1,88.8 132.1,90.1 132.1,90.4 132.1,93.3 
			131,94 130.8,94.1 128.2,95.6 127.1,94.9 126.9,94.8 124.3,93.3 124.3,92 124.3,91.7 124.3,88.8 125.5,88.1 125.7,88 		"/>
		<polygon id="XMLID_2_" class="st2" points="128.2,89 128.7,89.3 128.8,89.3 130,90 130,90.7 130,90.8 130,92.1 129.5,92.4 
			129.4,92.5 128.2,93.1 127.7,92.8 127.6,92.8 126.4,92.1 126.4,91.5 126.4,91.4 126.4,90 127,89.7 127.1,89.7 		"/>
		<polygon id="XMLID_1_" class="st1" points="97.5,86.8 99.3,87.9 101.2,89 101.2,91.1 101.2,93.2 99.3,94.3 97.5,95.4 95.6,94.3 
			93.8,93.2 93.8,91.1 93.8,89 95.6,87.9 		"/>
	</g>
</g>
</svg>
