<?xml version="1.0" encoding="utf-8"?>
<!-- Generator: Adobe Illustrator 19.0.0, SVG Export Plug-In . SVG Version: 6.00 Build 0)  -->
<svg version="1.1" id="Layer_1" xmlns="http://www.w3.org/2000/svg" xmlns:xlink="http://www.w3.org/1999/xlink" x="0px" y="0px"
	 viewBox="0 0 161 177" style="enable-background:new 0 0 161 177;" xml:space="preserve">
<style type="text/css">
	.st0{fill:none;}
	.st1{fill:#8CC63F;}
	.st2{fill:none;stroke:#8CC63F;stroke-width:0.9436;stroke-miterlimit:10;}
	.st3{fill:#4F6019;stroke:#4F6019;stroke-width:1.276;stroke-miterlimit:10;}
</style>
<rect x="7" y="7.9" class="st0" width="150" height="164.3"/>
<g id="XMLID_4_">
	<path id="XMLID_14_" class="st1" d="M60.4,7.9L60.4,7.9c-14.9,0-24.2,11.5-16.7,20.7l41.7,51.9c3.4,4.3,3.4,9.6,0,13.8l-41.7,51.7
		c-7.4,9.2,1.8,20.7,16.7,20.7l0,0c6.9,0,13.3-2.7,16.4-7.8l52.7-65.6c3.7-3.5,3.7-8.8,0.3-13.1L77.1,14.7
		C73.8,10.4,67.3,7.9,60.4,7.9z"/>
	<path id="XMLID_13_" class="st2" d="M60.4,7.9L60.4,7.9c-14.9,0-24.2,11.5-16.7,20.7l41.7,51.9c3.4,4.3,3.4,9.6,0,13.8l-41.7,51.7
		c-7.4,9.2,1.8,20.7,16.7,20.7l0,0c6.9,0,13.3-2.7,16.4-7.8l52.7-65.6c3.7-3.5,3.7-8.8,0.3-13.1L77.1,14.7
		C73.8,10.4,67.3,7.9,60.4,7.9z"/>
</g>
<path id="XMLID_6_" class="st3" d="M45.4,141.9c-4.1,4.1-6,10.5-4.3,16.6H41c3.5,13.1,19.3,18.1,28.4,9.2l30.2-37.3L87.1,91.3
	L45.4,141.9z"/>
<g id="XMLID_83_">
</g>
</svg>
