<?xml version="1.0" encoding="utf-8"?>
<!-- Generator: Adobe Illustrator 19.0.0, SVG Export Plug-In . SVG Version: 6.00 Build 0)  -->
<svg version="1.1" id="Layer_1" xmlns="http://www.w3.org/2000/svg" xmlns:xlink="http://www.w3.org/1999/xlink" x="0px" y="0px"
	 viewBox="0 0 169.5 181" style="enable-background:new 0 0 169.5 181;" xml:space="preserve">
<style type="text/css">
	.st0{fill:none;}
	.st1{fill:#333333;stroke:#000000;stroke-width:0.6008;stroke-miterlimit:10;}
	.st2{fill:#FFFFFF;stroke:#000000;stroke-width:0.5449;stroke-miterlimit:10;}
	.st3{fill:#FFFFFF;}
	.st4{fill:#333333;}
</style>
<rect id="XMLID_58_" x="10.1" y="9.9" class="st0" width="150" height="164.3"/>
<circle id="XMLID_7_" class="st1" cx="86" cy="92" r="69.2"/>
<circle id="XMLID_6_" class="st2" cx="86" cy="92" r="46.3"/>
<g id="XMLID_1_">
	<path id="XMLID_105_" class="st0" d="M24,122.7c0-45.4,28.2-82.2,62.9-82.2s62.9,36.8,62.9,82.2"/>
	<path id="XMLID_61_" class="st3" d="M55.3,50.9c0.1,0.1,0.1,0.2,0.1,0.2c0.2,0.3,0.5,0.5,0.9,0.6c0.4,0.1,0.9-0.1,1.3-0.3
		c0.3-0.2,0.5-0.3,0.7-0.6c0.2-0.2,0.4-0.5,0.7-0.9l0.7,0.3c-0.6,1-1.3,1.8-2,2.2c-0.5,0.3-1,0.5-1.6,0.5c-0.4,0.1-0.8,0-1.1-0.2
		c-0.3-0.2-0.7-0.4-0.9-0.8c-0.1-0.1-0.1-0.2-0.2-0.3c-1.3,0.7-2.7,0.8-4,0.4c-1.3-0.3-2.3-1.1-3.1-2.3c-0.5-0.9-0.8-1.8-0.8-2.7
		s0.3-1.9,0.9-2.7c0.5-0.9,1.3-1.6,2.2-2.1c0.9-0.5,1.8-0.8,2.8-0.9c1-0.1,2,0.2,2.8,0.5c0.8,0.4,1.5,1.1,2,2c0.8,1.3,1,2.5,0.7,3.8
		C57.3,48.8,56.5,50,55.3,50.9z M49.8,42.8c-0.7,0.4-1.3,1-1.6,1.6c-0.3,0.6-0.5,1.3-0.4,2.1c0.1,0.8,0.3,1.6,0.8,2.5
		c0.5,0.8,1,1.4,1.7,1.8c0.7,0.4,1.3,0.6,2,0.5c0.7,0,1.4-0.2,2-0.6c0.7-0.4,1.1-0.9,1.5-1.5c0.3-0.6,0.4-1.3,0.4-2.1
		c-0.1-0.8-0.3-1.6-0.8-2.4c-0.5-0.8-1.1-1.4-1.8-1.9c-0.6-0.4-1.3-0.6-1.9-0.6C51.1,42.2,50.5,42.4,49.8,42.8z"/>
	<path id="XMLID_92_" class="st3" d="M58.2,35.8l4.2-1.3l0.2,0.6l-0.3,0.1c-0.3,0.1-0.6,0.2-0.7,0.3c-0.1,0.1-0.2,0.2-0.2,0.3
		c0,0.1,0,0.4,0.1,0.7l1.4,4.4c0.2,0.8,0.5,1.4,0.8,1.6c0.3,0.3,0.8,0.5,1.3,0.7c0.5,0.1,1.1,0.1,1.7-0.1c0.6-0.2,1.1-0.5,1.5-0.9
		c0.4-0.4,0.7-0.9,0.8-1.3c0.1-0.4,0-1.1-0.2-1.9l-1.3-4.3c-0.1-0.3-0.2-0.5-0.3-0.7C67.1,34.1,67,34,66.8,34c-0.2,0-0.4,0-0.7,0.1
		l-0.3,0.1l-0.2-0.6l3.6-1.1l0.2,0.6l-0.3,0.1c-0.4,0.1-0.7,0.3-0.8,0.5c-0.1,0.2-0.1,0.5,0,0.9l1.4,4.5c0.3,0.8,0.3,1.6,0.1,2.2
		s-0.5,1.3-1.1,1.7c-0.5,0.5-1.3,0.9-2.1,1.1c-0.8,0.3-1.6,0.3-2.4,0.2c-0.8-0.1-1.4-0.4-1.9-0.8c-0.5-0.4-0.8-1-1-1.7L59.9,37
		c-0.1-0.3-0.2-0.5-0.3-0.7c-0.1-0.1-0.2-0.2-0.3-0.2c-0.1,0-0.3,0-0.7,0.1l-0.3,0.2L58.2,35.8z"/>
	<path id="XMLID_94_" class="st3" d="M78.2,30.1l1.3-0.1l3.8,8.4c0.2,0.4,0.4,0.7,0.5,0.8c0.2,0.1,0.4,0.2,0.7,0.2h0.2v0.6l-4,0.2
		v-0.6c0.1,0,0.3,0,0.4-0.1c0.3,0,0.4-0.1,0.5-0.1c0.2-0.1,0.2-0.2,0.2-0.4c0-0.1-0.1-0.3-0.3-0.8l-0.8-2l-4.1,0.2l-0.8,2.2
		c-0.1,0.2-0.1,0.4-0.1,0.5c0,0.1,0.1,0.2,0.1,0.3c0.1,0.1,0.2,0.1,0.2,0.2c0.1,0.1,0.3,0.1,0.5,0.1c0.2,0,0.3,0,0.4,0v0.6l-3.4,0.1
		v-0.6c0.3,0,0.5-0.1,0.7-0.1c0.1-0.1,0.3-0.2,0.3-0.3c0.1-0.1,0.2-0.4,0.4-0.8L78.2,30.1z M77,35.9l3.5-0.1l-1.9-4.4L77,35.9z"/>
	<path id="XMLID_97_" class="st3" d="M88.7,29l4.3,0.9l-0.1,0.6l-0.4-0.1c-0.3-0.1-0.5-0.1-0.7-0.1c-0.2,0.1-0.3,0.1-0.3,0.2
		c-0.1,0.1-0.2,0.3-0.2,0.5l-1.5,7c-0.1,0.3-0.1,0.5-0.1,0.6c0,0.1,0.1,0.2,0.2,0.2c0.1,0.1,0.3,0.1,0.7,0.2l0.6,0.1
		c0.7,0.2,1.3,0.2,1.9,0.1c0.5-0.1,1-0.3,1.5-0.5c0.4-0.3,0.9-0.7,1.4-1.3l0.7,0.4l-1.9,2.9l-8-1.6l0.1-0.6l0.3,0.1
		c0.3,0.1,0.5,0.1,0.7,0.1c0.1-0.1,0.2-0.1,0.3-0.2s0.2-0.3,0.2-0.6l1.4-6.9c0.1-0.3,0.1-0.6,0.1-0.7c-0.1-0.1-0.1-0.2-0.2-0.3
		c-0.1-0.1-0.3-0.2-0.7-0.2l-0.3-0.1L88.7,29z"/>
	<path id="XMLID_99_" class="st3" d="M101.4,31.1l4,1.6l-0.2,0.6l-0.3-0.1c-0.3-0.1-0.5-0.2-0.7-0.2c-0.2,0-0.3,0.1-0.4,0.2
		c-0.1,0.1-0.3,0.4-0.4,0.8l-2.5,6.2c-0.1,0.3-0.2,0.5-0.2,0.7c0,0.2,0.1,0.3,0.2,0.4c0.1,0.1,0.3,0.2,0.6,0.3l0.3,0.1l-0.2,0.6
		l-4-1.6l0.2-0.6l0.3,0.1c0.3,0.1,0.5,0.2,0.7,0.2s0.3-0.1,0.4-0.2c0.1-0.1,0.2-0.3,0.3-0.7l2.5-6.3c0.2-0.3,0.2-0.6,0.2-0.8
		s-0.1-0.3-0.2-0.4c-0.1-0.1-0.3-0.2-0.6-0.3l-0.3-0.1L101.4,31.1z"/>
	<path id="XMLID_101_" class="st3" d="M110.2,33.3l0.5,0.3l-0.1,0.3l5.9,3.6l0.2-0.3l0.5,0.3l-0.5,3.2l-0.8-0.2
		c0.1-0.9,0.1-1.6-0.2-2.1c-0.2-0.5-0.7-1-1.3-1.4c-0.3-0.2-0.4-0.3-0.5-0.3c-0.1,0-0.1,0-0.2,0.1c-0.1,0.1-0.2,0.2-0.3,0.4l-3.7,6
		c-0.2,0.3-0.3,0.5-0.3,0.6c0,0.1,0,0.2,0,0.3c0.1,0.1,0.1,0.2,0.2,0.3c0.1,0.1,0.3,0.3,0.7,0.5l-0.3,0.5l-3.7-2.3l0.3-0.5
		c0.4,0.3,0.7,0.4,0.8,0.4c0.2,0.1,0.3,0.1,0.5-0.1c0.2-0.1,0.3-0.3,0.5-0.6l3.8-6.2c0.1-0.2,0.2-0.3,0.2-0.4s0-0.1-0.1-0.2
		c-0.1-0.1-0.2-0.2-0.3-0.3c-0.5-0.3-0.9-0.5-1.3-0.5s-0.8-0.1-1.2,0.1s-0.9,0.3-1.4,0.7l-0.5-0.6L110.2,33.3z"/>
	<path id="XMLID_103_" class="st3" d="M121.2,39.3l3.1,2.9l-0.4,0.4l-0.3-0.3c-0.2-0.2-0.4-0.3-0.4-0.3c-0.1,0-0.2,0-0.3,0.1
		c-0.1,0.1-0.1,0.2-0.2,0.4c0,0.1,0,0.1-0.1,0.2l-0.9,4.2l4.4-1.1c0.2-0.1,0.3-0.1,0.3-0.1c0.1,0,0.1-0.1,0.1-0.1
		c0.1-0.1,0.1-0.1,0.1-0.2c0-0.1,0-0.1-0.1-0.2c-0.1-0.1-0.2-0.2-0.3-0.3l-0.3-0.3l0.4-0.4l2.6,2.4l-0.4,0.4
		c-0.2-0.2-0.4-0.4-0.5-0.4c-0.2-0.1-0.3-0.1-0.4-0.1c-0.1,0-0.3,0.1-0.7,0.1l-5.4,1.3l-1.7,1.9c-0.3,0.3-0.4,0.5-0.4,0.6
		c-0.1,0.1,0,0.3,0.1,0.4c0.1,0.1,0.3,0.4,0.7,0.8l-0.4,0.4l-3.2-3l0.4-0.4l0.3,0.2c0.3,0.3,0.4,0.4,0.6,0.4c0.2,0.1,0.3,0.1,0.4,0
		c0.1-0.1,0.3-0.2,0.5-0.4l1.6-1.7l1.1-5.6c0.1-0.4,0.1-0.8,0.1-0.9c-0.1-0.2-0.3-0.4-0.5-0.7L121.2,39.3z"/>
</g>
<g id="XMLID_3_">
	<path id="XMLID_89_" class="st0" d="M30.6,75.5c0,35.3,24.8,63.9,55.4,63.9s55.4-28.6,55.4-63.9"/>
	<path id="XMLID_68_" class="st3" d="M38.4,116.7l0.5,1l-6.4,6.7c-0.3,0.3-0.5,0.6-0.5,0.8c-0.1,0.2,0,0.4,0.1,0.7l0.1,0.1l-0.5,0.3
		l-1.6-3l0.5-0.3c0.1,0.1,0.1,0.2,0.2,0.3c0.1,0.2,0.2,0.3,0.3,0.3c0.2,0.1,0.3,0.1,0.4,0c0.1-0.1,0.3-0.2,0.6-0.5l1.5-1.5l-1.6-3.1
		l-2.3,0.4c-0.2,0.1-0.4,0.1-0.5,0.1c-0.1,0.1-0.2,0.1-0.2,0.2c-0.1,0.1-0.1,0.2-0.1,0.3c0,0.1,0.1,0.2,0.1,0.4
		c0.1,0.1,0.1,0.2,0.1,0.3l-0.5,0.3l-1.3-2.5l0.5-0.3c0.1,0.2,0.2,0.4,0.3,0.5c0.1,0.1,0.2,0.1,0.4,0.2c0.2,0,0.4,0,0.9-0.1
		L38.4,116.7z M32.7,118.3l1.4,2.6l3.3-3.4L32.7,118.3z"/>
	<path id="XMLID_71_" class="st3" d="M48.6,129.1l0.3,0.4l-2,2.6l-0.5-0.4c0.4-0.9,0.7-1.7,0.7-2.6c0-0.7-0.2-1.3-0.7-1.8
		c-0.3-0.3-0.5-0.5-0.9-0.7s-0.7-0.2-0.9-0.2c-0.3,0.1-0.5,0.1-0.8,0.3c-0.2,0.2-0.3,0.3-0.4,0.5c-0.1,0.2-0.1,0.5-0.1,0.8
		c0.1,0.3,0.2,0.7,0.4,1.3l0.7,1.7c0.1,0.2,0.2,0.5,0.3,1c0.1,0.4,0.2,0.8,0.1,1.1c0,0.3-0.1,0.7-0.3,0.9c-0.2,0.3-0.4,0.6-0.7,0.8
		c-0.7,0.5-1.4,0.7-2.3,0.6c-0.9-0.1-1.7-0.6-2.3-1.4c-0.3-0.4-0.6-0.9-0.7-1.3c-0.1-0.4-0.2-1-0.2-1.6l-1,0.4l-0.3-0.4l2.5-2.8
		l0.5,0.4c-0.4,0.6-0.7,1.3-0.8,1.9c-0.1,0.6-0.2,1.1-0.1,1.7c0.1,0.5,0.3,1,0.6,1.4c0.4,0.5,0.9,0.8,1.6,0.9c0.5,0.1,1,0,1.4-0.3
		c0.3-0.3,0.5-0.7,0.6-1c0.1-0.4-0.1-1-0.4-1.7l-0.7-1.7c-0.4-0.9-0.5-1.7-0.4-2.3c0.1-0.6,0.4-1.1,0.9-1.5c0.4-0.3,0.8-0.5,1.3-0.5
		c0.5-0.1,1,0.1,1.5,0.3s1,0.6,1.4,1.1c0.3,0.4,0.6,0.9,0.7,1.4c0.1,0.3,0.2,0.7,0.1,1.1L48.6,129.1z"/>
	<path id="XMLID_73_" class="st3" d="M59.1,136.8l0.4,0.3l-1.4,3l-0.7-0.2c0.3-1,0.3-1.9,0.1-2.7c-0.2-0.7-0.5-1.2-1-1.6
		c-0.3-0.3-0.7-0.4-1-0.5c-0.3-0.1-0.7-0.1-0.9,0.1c-0.3,0.1-0.5,0.2-0.7,0.4c-0.2,0.2-0.2,0.4-0.3,0.7c-0.1,0.3,0,0.5,0.1,0.8
		c0.1,0.3,0.3,0.7,0.7,1.2l1,1.6c0.1,0.2,0.3,0.5,0.5,0.9c0.2,0.4,0.3,0.8,0.4,1.1c0.1,0.3,0,0.7-0.1,1c-0.1,0.3-0.3,0.7-0.5,0.9
		c-0.5,0.7-1.3,1-2.1,1.1c-0.9,0.1-1.7-0.2-2.6-0.9c-0.4-0.3-0.8-0.7-1-1.1c-0.2-0.4-0.4-0.9-0.5-1.6l-0.9,0.6l-0.4-0.3l1.9-3.3
		l0.6,0.3c-0.3,0.7-0.4,1.4-0.4,2c0,0.6,0.1,1.1,0.3,1.6c0.2,0.5,0.5,0.9,0.9,1.2c0.5,0.4,1.1,0.6,1.7,0.5c0.5-0.1,1-0.2,1.3-0.6
		c0.3-0.4,0.4-0.8,0.3-1.1c-0.1-0.4-0.3-1-0.8-1.6l-1-1.5c-0.5-0.8-0.8-1.6-0.9-2.2c0-0.6,0.2-1.1,0.5-1.6c0.3-0.4,0.7-0.7,1.1-0.8
		c0.4-0.2,1-0.2,1.6-0.1c0.6,0.1,1.1,0.4,1.6,0.8c0.4,0.3,0.8,0.7,1,1.2c0.2,0.3,0.3,0.7,0.4,1L59.1,136.8z"/>
	<path id="XMLID_75_" class="st3" d="M65.7,139.3l3.4,1.5l-0.3,0.6l-0.2-0.1c-0.3-0.1-0.5-0.2-0.6-0.2c-0.1,0-0.2,0.1-0.3,0.2
		c-0.1,0.1-0.2,0.3-0.4,0.7l-1.9,4.3c-0.3,0.8-0.5,1.4-0.5,1.8s0.2,0.9,0.4,1.3s0.7,0.8,1.1,0.9c0.5,0.2,1,0.3,1.5,0.2
		s1-0.3,1.3-0.5c0.3-0.3,0.7-0.8,1-1.6l1.8-4.1c0.1-0.3,0.2-0.5,0.2-0.7s-0.1-0.3-0.1-0.4s-0.2-0.2-0.5-0.3l-0.2-0.1l0.3-0.6
		l2.9,1.3l-0.3,0.6l-0.2-0.1c-0.3-0.2-0.6-0.2-0.8-0.1c-0.2,0.1-0.4,0.3-0.5,0.7l-2,4.4c-0.3,0.8-0.8,1.4-1.3,1.9s-1.1,0.7-1.7,0.8
		c-0.7,0.1-1.4-0.1-2-0.3c-0.7-0.3-1.2-0.7-1.6-1.3c-0.4-0.5-0.7-1.1-0.7-1.7c-0.1-0.6,0.1-1.3,0.4-2l2.1-4.7
		c0.1-0.3,0.2-0.5,0.2-0.7c0-0.2-0.1-0.3-0.1-0.4c-0.1-0.1-0.2-0.2-0.4-0.3l-0.3-0.2L65.7,139.3z"/>
	<path id="XMLID_77_" class="st3" d="M80.7,143.1l4.8,0.7c0.9,0.1,1.6,0.3,2.1,0.6c0.4,0.3,0.8,0.6,1,1s0.3,0.9,0.2,1.4
		c-0.1,0.5-0.3,1-0.5,1.4c-0.3,0.4-0.7,0.7-1.2,0.9c-0.5,0.2-1.1,0.2-1.9,0.1l2.1,3.7c0.2,0.3,0.3,0.5,0.3,0.5
		c0.2,0.2,0.3,0.3,0.4,0.4c0.2,0.1,0.3,0.2,0.5,0.2h0.2l-0.1,0.6l-2.1-0.3l-2.8-5.4l-1.2-0.2L82,152c-0.1,0.4-0.1,0.6-0.1,0.7
		c0,0.2,0.1,0.3,0.2,0.4c0.1,0.1,0.3,0.2,0.7,0.2l0.2,0.1l-0.1,0.6l-3.6-0.5l0.1-0.6l0.3,0.1c0.2,0.1,0.4,0.1,0.5,0
		c0.1,0,0.2-0.1,0.3-0.2c0.1-0.1,0.2-0.2,0.2-0.3c0-0.1,0.1-0.3,0.1-0.8l0.9-6.8c0.1-0.3,0.1-0.5,0-0.7c-0.1-0.2-0.1-0.2-0.2-0.3
		c-0.1-0.1-0.3-0.1-0.5-0.2l-0.4-0.1L80.7,143.1z M83.1,144.3l-0.5,3.9l2,0.3c0.7,0.1,1.1,0.1,1.4,0.1c0.4-0.1,0.7-0.3,1-0.5
		c0.3-0.3,0.4-0.7,0.5-1.1c0.1-0.4,0-0.8-0.1-1.1c-0.1-0.3-0.3-0.5-0.5-0.7c-0.3-0.2-0.7-0.3-1.2-0.4L83.1,144.3z"/>
	<path id="XMLID_80_" class="st3" d="M98.6,142.1l1.1-0.2l4.1,8.2c0.2,0.4,0.4,0.7,0.5,0.8c0.2,0.1,0.4,0.2,0.6,0.1h0.2l0.1,0.6
		l-3.4,0.5l-0.1-0.6c0.1,0,0.2-0.1,0.3-0.1c0.2-0.1,0.4-0.1,0.4-0.1c0.1-0.1,0.2-0.2,0.2-0.4c0-0.1-0.1-0.3-0.3-0.8l-0.9-1.9
		l-3.4,0.5l-0.4,2.3c-0.1,0.2-0.1,0.4-0.1,0.5c0,0.1,0.1,0.2,0.1,0.3c0.1,0.1,0.1,0.1,0.2,0.2c0.1,0,0.2,0,0.4,0
		c0.1,0,0.2-0.1,0.3-0.1l0.1,0.6l-2.8,0.4l-0.1-0.6c0.3-0.1,0.4-0.1,0.5-0.2c0.1-0.1,0.2-0.2,0.3-0.3c0.1-0.2,0.2-0.4,0.2-0.8
		L98.6,142.1z M98.2,148.1l2.9-0.4l-2.1-4.3L98.2,148.1z"/>
	<path id="XMLID_83_" class="st3" d="M108.1,138.5l2.7-1.1l7,5.6l-2.3-5.5c-0.2-0.3-0.3-0.5-0.4-0.7c-0.1-0.1-0.3-0.2-0.4-0.2
		c-0.1-0.1-0.3,0-0.5,0.1l-0.2,0.1l-0.2-0.6l2.9-1.3l0.2,0.6l-0.2,0.1c-0.3,0.1-0.4,0.2-0.5,0.3c-0.1,0.1-0.2,0.3-0.2,0.5
		c0,0.2,0.1,0.4,0.2,0.8l3.3,7.9l-0.8,0.3l-8.4-6.6l2.9,6.9c0.2,0.4,0.3,0.6,0.3,0.7c0.1,0.1,0.2,0.2,0.3,0.2
		c0.1,0.1,0.2,0.1,0.3,0.1c0.1,0,0.3-0.1,0.7-0.2l0.2,0.6l-2.9,1.3l-0.2-0.6l0.2-0.1c0.3-0.1,0.5-0.3,0.6-0.4
		c0.1-0.1,0.1-0.3,0.1-0.4s-0.1-0.4-0.3-0.8l-2.6-6.1c-0.2-0.4-0.3-0.6-0.3-0.7c-0.1-0.2-0.2-0.2-0.4-0.3c-0.2,0-0.4,0.1-0.7,0.2
		l-0.2,0.1L108.1,138.5z"/>
	<path id="XMLID_85_" class="st3" d="M126.4,126.3l0.4-0.3l2.8,2.3l-0.4,0.5c-0.8-0.4-1.3-0.7-1.6-0.8c-0.5-0.2-1-0.2-1.5-0.2
		c-0.5,0.1-1,0.2-1.4,0.5c-0.5,0.4-0.8,0.9-1,1.5c-0.2,0.6-0.2,1.3-0.1,2s0.5,1.5,1,2.2c0.5,0.7,1.1,1.3,1.9,1.6
		c0.7,0.4,1.4,0.5,2,0.5c0.7-0.1,1.3-0.2,1.8-0.6c0.5-0.4,0.9-0.9,1.1-1.6c0.3-0.7,0.4-1.4,0.4-2.3h0.7c0.1,0.5,0.1,1-0.1,1.5
		c-0.1,0.7-0.3,1.4-0.6,1.9c-0.3,0.5-0.7,1-1.3,1.4c-1.2,0.9-2.5,1.1-4,0.7c-1.2-0.3-2.2-1-3.1-2.2c-0.6-0.8-1-1.7-1.1-2.6
		c-0.2-0.9-0.1-1.8,0.2-2.6c0.3-0.8,0.8-1.5,1.5-2c0.4-0.3,0.8-0.5,1.1-0.6c0.4-0.1,0.9-0.2,1.4-0.2L126.4,126.3z"/>
	<path id="XMLID_87_" class="st3" d="M130.2,120.8l5.1-5.8l2.7,1.1l-0.2,0.6c-0.4-0.2-0.8-0.3-1.1-0.3c-0.3-0.1-0.6,0-0.9,0.1
		c-0.3,0.1-0.5,0.2-0.8,0.3c-0.2,0.2-0.5,0.5-1,1l-1.5,1.7l2.9,2.5l0.8-0.9c0.3-0.3,0.4-0.6,0.4-0.9s-0.1-0.5-0.2-0.7
		c-0.1-0.2-0.3-0.4-0.7-0.7l-0.1-0.1l0.4-0.5l3.5,3l-0.4,0.5l-0.3-0.3c-0.3-0.2-0.5-0.4-0.6-0.4c-0.2-0.1-0.3-0.1-0.5-0.1
		c-0.2,0-0.3,0.1-0.5,0.1c-0.1,0.1-0.3,0.3-0.5,0.5l-0.8,0.9l2.6,2.2c0.3,0.2,0.4,0.4,0.5,0.4c0.1,0.1,0.2,0.1,0.2,0
		c0.1-0.1,0.2-0.2,0.4-0.4l0.9-1.1c0.5-0.6,0.9-1.1,1-1.6c0.1-0.5,0.2-1,0.1-1.5c-0.1-0.4-0.3-0.9-0.6-1.5l0.6-0.3l1.8,2.9l-5.2,6.1
		l-0.5-0.4l0.2-0.2c0.2-0.2,0.3-0.4,0.3-0.5c0.1-0.1,0-0.3-0.1-0.4c-0.1-0.1-0.2-0.3-0.4-0.5l-5.4-4.7c-0.3-0.2-0.4-0.3-0.5-0.4
		c-0.1-0.1-0.3,0-0.4,0.1c-0.1,0.1-0.3,0.2-0.5,0.6L130.2,120.8z"/>
</g>
<g id="XMLID_4_">
	<path id="XMLID_65_" class="st4" d="M83.6,62.6c1.7,2.1,3.2,4.5,4.1,7.4c1,2.9,1.5,6,1.4,9.5c0,2.8-0.4,5.3-1,7.7
		c-0.7,2.3-1.6,4.5-2.8,6.3c-1.1,1.8-2.6,3.3-4.1,4.6c-1.6,1.3-3.4,2.3-5.3,3.1c0,2.3,0.8,4.4,2.2,6.2c1.5,1.9,3,2.7,4.7,2.8
		c1.5,0,2.7-0.1,3.5-0.2s1.5-0.2,2-0.3v2.5c-0.9,0.3-1.9,0.5-3.2,0.8c-1.3,0.3-3.1,0.4-5.3,0.4c-1.3,0-2.5-0.2-3.7-0.7
		c-1.2-0.4-2.3-1.1-3.3-2c-1-0.9-1.8-2-2.5-3.4c-0.7-1.4-1-3.1-1.3-5.1c-2.7-0.1-5.2-0.8-7.5-2s-4.3-2.8-5.9-4.8
		c-1.6-2.1-2.9-4.5-3.8-7.2c-0.9-2.8-1.4-5.8-1.3-9.1c0-3.6,0.5-6.8,1.6-9.6c1-2.8,2.5-5.2,4.3-7.3c1.8-2,3.9-3.5,6.2-4.6
		s4.8-1.6,7.4-1.6c2.7,0,5.2,0.6,7.5,1.7C79.8,59,81.9,60.6,83.6,62.6z M79.1,93.9c1.1-1.9,1.9-4,2.3-6.4c0.5-2.4,0.8-5.1,0.8-8
		c0-3.1-0.2-5.8-0.8-8.3c-0.5-2.6-1.3-4.7-2.3-6.5c-1-1.8-2.3-3.2-3.9-4.1c-1.6-1-3.4-1.5-5.4-1.5c-2.3,0-4.2,0.5-5.8,1.7
		c-1.6,1.1-2.9,2.7-3.9,4.6c-1,1.8-1.7,4-2.2,6.4c-0.5,2.5-0.7,5-0.8,7.7c0,3,0.2,5.7,0.7,8.1c0.5,2.4,1.3,4.6,2.3,6.4
		c1,1.9,2.3,3.3,3.8,4.3c1.5,1,3.4,1.6,5.6,1.6c2,0,3.9-0.5,5.5-1.5C76.8,97.2,78.1,95.8,79.1,93.9z"/>
</g>
<g id="XMLID_8_">
	<path id="XMLID_62_" class="st4" d="M120.5,120l-16.5,0.2v-2.2c1.5-0.1,2.7-0.3,3.6-0.7c1-0.3,1.4-0.7,1.4-1.1c0-0.2,0-0.4-0.1-0.7
		c-0.1-0.3-0.1-0.5-0.2-0.7l-3.4-9.7l-13.9,0.2c-0.5,1.4-0.9,2.7-1.3,3.8c-0.3,1.1-0.6,2.1-0.9,2.9c-0.2,0.9-0.4,1.6-0.5,2.1
		c-0.1,0.5-0.1,1-0.1,1.4c0,0.8,0.6,1.5,1.8,1.9c1.2,0.4,2.5,0.7,4,0.8v2.2l-14.9,0.2v-2.2c0.5-0.1,1.1-0.2,1.8-0.4
		c0.7-0.2,1.3-0.5,1.8-0.8c0.8-0.5,1.3-1.1,1.7-1.7c0.4-0.6,0.8-1.4,1.2-2.5c1.9-5.4,4-11.6,6.4-18.5c2.3-6.8,4.4-12.9,6.2-18.3h2.2
		l13.6,37.3c0.3,0.8,0.6,1.4,1,1.9c0.4,0.5,0.9,1,1.5,1.4c0.4,0.3,1,0.5,1.7,0.7c0.7,0.2,1.3,0.3,1.7,0.3L120.5,120z M104.4,102.4
		l-6.2-16.8l-5.7,16.9L104.4,102.4z"/>
</g>
<g id="XMLID_118_">
</g>
</svg>
