<?xml version="1.0" encoding="utf-8"?>
<!-- Generator: Adobe Illustrator 19.0.0, SVG Export Plug-In . SVG Version: 6.00 Build 0)  -->
<svg version="1.1" id="Layer_1" xmlns="http://www.w3.org/2000/svg" xmlns:xlink="http://www.w3.org/1999/xlink" x="0px" y="0px"
	 viewBox="0 0 167.5 179" style="enable-background:new 0 0 167.5 179;" xml:space="preserve">
<style type="text/css">
	.st0{fill:none;}
	.st1{fill:url(#XMLID_65_);stroke:#1894E8;stroke-width:0.7097;stroke-miterlimit:10;}
	.st2{fill:url(#XMLID_67_);stroke:url(#XMLID_68_);stroke-width:0.7097;stroke-miterlimit:10;}
	.st3{fill:url(#XMLID_69_);stroke:url(#XMLID_70_);stroke-width:0.7097;stroke-miterlimit:10;}
	.st4{fill:#F3F2FC;stroke:#F5F5F7;stroke-width:2.1292;stroke-miterlimit:10;}
</style>
<rect id="XMLID_58_" x="9.6" y="5.4" class="st0" width="150" height="164.3"/>
<linearGradient id="XMLID_65_" gradientUnits="userSpaceOnUse" x1="0.9242" y1="129.1327" x2="122.3397" y2="63.366" gradientTransform="matrix(1 0 0 1 0 4)">
	<stop  offset="0" style="stop-color:#CCE0F4"/>
	<stop  offset="4.191671e-002" style="stop-color:#C3DCF2"/>
	<stop  offset="0.1117" style="stop-color:#A9D2EE"/>
	<stop  offset="0.2006" style="stop-color:#80C2E7"/>
	<stop  offset="0.3042" style="stop-color:#47ACDE"/>
	<stop  offset="0.3713" style="stop-color:#1E9CD7"/>
	<stop  offset="0.7873" style="stop-color:#0075BE"/>
	<stop  offset="0.9856" style="stop-color:#005B97"/>
</linearGradient>
<path id="XMLID_9_" class="st1" d="M145.1,54.1c-11.9-20.8-34.4-34.9-60.3-34.9c-38.2,0-69.2,30.7-69.2,68.5s31,68.5,69.2,68.5
	S154,125.5,154,87.7c0-10.6-2.5-20.7-6.8-29.7C146.5,56.8,145.8,55.5,145.1,54.1z"/>
<radialGradient id="XMLID_67_" cx="-2080.3174" cy="1850.7582" r="142.1091" gradientTransform="matrix(-0.2347 -0.5244 0.4775 -0.2137 -1261.4584 -615.8587)" gradientUnits="userSpaceOnUse">
	<stop  offset="0.2755" style="stop-color:#FFFFFF"/>
	<stop  offset="0.5102" style="stop-color:#000000"/>
</radialGradient>
<linearGradient id="XMLID_68_" gradientUnits="userSpaceOnUse" x1="-1675.4235" y1="803.5639" x2="-1512.7996" y2="803.5639" gradientTransform="matrix(-0.4085 -0.9128 0.9128 -0.4085 -1288.9243 -1040.6932)">
	<stop  offset="0" style="stop-color:#FFFFFF"/>
	<stop  offset="1" style="stop-color:#000000"/>
</linearGradient>
<path id="XMLID_10_" class="st2" d="M112.5,79.9l33.9-23.3c-0.2-0.4-0.4-0.7-0.6-1.1l-35.3,22.4L58.5,23.5c-0.1,0-0.2,0-0.4,0
	l50.5,55.7l-61.3,42l63.2-40l37.2,38.8c0.1-0.1,0.2-0.2,0.4-0.4c0.1-0.1,0.2-0.2,0.3-0.3L112.5,79.9z"/>
<radialGradient id="XMLID_69_" cx="-2080.4006" cy="1850.9866" r="99.2794" gradientTransform="matrix(-0.2347 -0.5244 0.4775 -0.2137 -1261.4584 -615.8587)" gradientUnits="userSpaceOnUse">
	<stop  offset="0.2755" style="stop-color:#FFFFFF"/>
	<stop  offset="0.5102" style="stop-color:#000000"/>
</radialGradient>
<linearGradient id="XMLID_70_" gradientUnits="userSpaceOnUse" x1="-1652.1436" y1="814.7253" x2="-1536.175" y2="814.7253" gradientTransform="matrix(-0.4085 -0.9128 0.9128 -0.4085 -1288.9243 -1040.6932)">
	<stop  offset="0" style="stop-color:#FFFFFF"/>
	<stop  offset="1" style="stop-color:#000000"/>
</linearGradient>
<path id="XMLID_8_" class="st3" d="M153.9,77.1c0-0.1-0.1-0.3-0.1-0.4l-42.4,1.8l-6.3-57.1H105l4.6,57.1L56,82.7l53.8-2.3l6.6,59.8
	l-4.8-59.9L153.9,77.1z"/>
<g id="XMLID_3_">
	<path id="XMLID_61_" class="st4" d="M55.7,132.7c-4.8-1.3-9.4-2.8-13.4-4.2c-0.7-0.3-1.5-0.6-2.1-0.6c-8.4-0.4-15.5-6.7-15.5-18.4
		c0-11.6,6.9-19.2,16.4-19.2s15.8,7.7,15.8,18.4c0,9.4-4.2,15.3-10,17.5v0.2c3.5,0.9,7.3,1.8,10.3,2.3L55.7,132.7z M51.9,109
		c0-7.3-3.6-14.8-11.1-14.8c-7.7,0-11.4,7.3-11.4,15.2c-0.1,7.7,4,14.7,11.1,14.7C47.8,124.1,51.9,117.3,51.9,109z"/>
	<path id="XMLID_64_" class="st4" d="M68,94.9H57.3v-4h26v4H72.5v32.4h-4.6L68,94.9L68,94.9z"/>
	<path id="XMLID_66_" class="st4" d="M87.2,91.4c2.2-0.4,5-0.7,8.7-0.7c4.5,0,7.7,1.1,9.9,3.1c1.9,1.7,3.1,4.4,3.1,7.6
		c0,3.3-0.9,5.9-2.7,7.7c-2.4,2.6-6.3,4-10.7,4c-1.3,0-2.6-0.1-3.6-0.4v14.5h-4.5L87.2,91.4L87.2,91.4z M91.8,108.9
		c1,0.3,2.3,0.4,3.8,0.4c5.5,0,8.8-2.8,8.8-7.7c0-4.8-3.3-7.1-8.3-7.1c-2,0-3.5,0.1-4.3,0.4V108.9z"/>
</g>
</svg>
