<?xml version="1.0" encoding="utf-8"?>
<!-- Generator: Adobe Illustrator 19.0.0, SVG Export Plug-In . SVG Version: 6.00 Build 0)  -->
<svg version="1.1" id="Layer_1" xmlns="http://www.w3.org/2000/svg" xmlns:xlink="http://www.w3.org/1999/xlink" x="0px" y="0px"
	 viewBox="0 0 166 175" style="enable-background:new 0 0 166 175;" xml:space="preserve">
<style type="text/css">
	.st0{fill:none;}
	.st1{enable-background:new    ;}
	.st2{fill:#CC0000;}
</style>
<rect id="XMLID_58_" x="8.1" y="5.9" class="st0" width="150" height="164.3"/>
<g id="XMLID_109_" class="st1">
	<g id="XMLID_110_">
		<path id="XMLID_124_" class="st2" d="M123.3,38.9c-0.6,3.9-5.4,6.9-22.8,14.3c-38,16.3-51,30.5-57.4,39.9l-0.1-31
			C50.2,52,63.3,38.3,101.1,22c18.3-7.8,21.7-10.8,22.1-14.1L123.3,38.9"/>
		<path id="XMLID_121_" class="st2" d="M123.3,38.9v-31c-0.4,3.3-3.8,6.3-22.1,14.1c-38,16.3-51,30-58.2,40.2l0.1,30.9
			c6.4-9.3,19.4-23.5,57.5-39.9C117.9,45.8,122.7,42.7,123.3,38.9 M123.3,39.6c-0.3,4-7.5,7.8-22.5,14.3
			C62.5,70.3,49.3,84.7,42.8,94.2l-0.1-32.3c6.5-9.5,19.6-23.8,57.8-40.3c17.3-7.5,22.3-10.5,22.8-14.3V39.6"/>
		<path id="XMLID_120_" class="st2" d="M123.4,77c-0.6,3.9-5.4,6.9-22.8,14.3c-38,16.4-51,30.6-57.5,39.9L43,100.4
			c7.2-10.2,20.3-23.9,58.1-40.2c18.3-7.8,21.7-10.8,22.1-14.1L123.4,77"/>
		<path id="XMLID_117_" class="st2" d="M123.4,77l-0.1-30.9c-0.4,3.3-3.8,6.3-22.1,14.1c-37.9,16.2-51,30-58.1,40.1v31
			c6.4-9.3,19.4-23.5,57.5-39.9C118,83.9,122.8,80.9,123.4,77 M123.4,77.7c-0.3,4-7.5,7.8-22.5,14.3c-38.3,16.5-51.4,30.9-57.9,40.4
			L42.8,100c6.5-9.4,19.5-23.8,57.7-40.2c17.4-7.5,22.3-10.6,22.8-14.3L123.4,77.7"/>
		<path id="XMLID_116_" class="st2" d="M123.5,114.9c-0.6,3.9-5.4,6.9-22.8,14.3c-38,16.3-51,30.5-57.5,39.9l-0.1-30.9
			c7.2-10.2,20.3-23.9,58.1-40.2c18.3-7.8,21.7-10.8,22.1-14.1L123.5,114.9"/>
		<path id="XMLID_113_" class="st2" d="M123.5,114.9L123.4,84c-0.4,3.3-3.8,6.3-22.1,14.1c-37.9,16.2-51,30-58.1,40.2l0.1,30.9
			c6.4-9.3,19.4-23.5,57.5-39.9C118,121.8,122.9,118.8,123.5,114.9 M123.5,115.6c-0.3,4-7.5,7.8-22.5,14.3
			c-38.3,16.5-51.4,30.9-57.9,40.4l-0.1-32.3c6.5-9.4,19.5-23.8,57.7-40.2c17.4-7.5,22.3-10.6,22.8-14.4L123.5,115.6"/>
	</g>
</g>
<g id="XMLID_93_">
</g>
</svg>
