<?xml version="1.0" encoding="utf-8"?>
<!-- Generator: Adobe Illustrator 19.0.0, SVG Export Plug-In . SVG Version: 6.00 Build 0)  -->
<svg version="1.1" id="Layer_1" xmlns="http://www.w3.org/2000/svg" xmlns:xlink="http://www.w3.org/1999/xlink" x="0px" y="0px"
	 viewBox="0 0 160 180" style="enable-background:new 0 0 160 180;" xml:space="preserve">
<style type="text/css">
	.st0{fill:none;}
	.st1{fill:none;stroke:#FFFFFF;stroke-width:1.2082;stroke-miterlimit:10;}
	.st2{fill:#ED1C24;stroke:#ED1C24;stroke-width:0.3567;stroke-miterlimit:10;}
	.st3{fill:#F1F70B;}
	.st4{fill:#0071BC;stroke:#0071BC;stroke-width:0.3567;stroke-miterlimit:10;}
	.st5{fill:#FF931E;stroke:#FF931E;stroke-width:0.3567;stroke-miterlimit:10;}
	.st6{fill:#39B54A;stroke:#39B54A;stroke-width:0.3567;stroke-miterlimit:10;}
	.st7{fill:#FFFFFF;}
</style>
<rect id="XMLID_1_" x="6.1" y="6.9" class="st0" width="150" height="164.3"/>
<g id="XMLID_2_">
	<path id="XMLID_15_" class="st1" d="M45.8,65.2l-8.9-5.9c-1,1.6-2.1,3.2-2.9,4.9l9.5,4.9c-3.4,6.7-5.1,14.2-4.8,21.7
		c0.1,1.1,0.1,2.2,0.3,3.3c0.1,0.7,0.2,1.5,0.3,2.2c0.1,1,0.4,2.1,0.7,3.2c0.7,2.7,1.6,5.4,2.9,8c0.1,0.3,0.3,0.7,0.4,1
		c1,1.8,2.1,3.7,3.2,5.4c0.2,0.3,0.4,0.6,0.6,0.8c0.3,0.4,0.6,0.8,1,1.2l-8.4,6.7c1.2,1.5,2.4,2.9,3.8,4.3l7.6-7.5
		c2,2,4.1,3.8,6.5,5.4c0.6,0.4,1.2,0.7,1.8,1.1c1.8,1.1,3.7,2.1,5.6,2.9c5.9,2.6,12.3,3.7,18.9,3.4c4.5-0.2,9-1.1,13.3-2.6l3.7,10
		c1.8-0.7,3.5-1.4,5.2-2.3l-4.8-9.5c0.4-0.1,0.7-0.4,1.1-0.6c1.8-1,3.6-2.1,5.3-3.4c0.6-0.4,1.1-0.8,1.6-1.2c3.7-3.1,7-6.7,9.5-10.9
		c0.1-0.3,0.4-0.6,0.5-0.9c1-1.8,2-3.7,2.7-5.6c0.1-0.3,0.2-0.7,0.4-1c1-2.6,1.7-5.4,2.2-8.2c0.1-1,0.3-2.1,0.4-3.2
		c0.1-0.7,0.1-1.5,0.1-2.2c0.1-1.1,0-2.2,0-3.3l0,0l10.7-0.4c-0.1-2.1-0.3-3.8-0.5-5.7l-10.6,1.5c-2.5-16.8-14.7-30.6-31.1-35.1
		l2.9-10.3c-1.8-0.5-3.7-1-5.6-1.2l-1.9,10.6c-2.9-0.5-5.9-0.7-8.9-0.5C66.2,46.5,53.4,53.7,45.8,65.2z M81.2,76.4
		c7.8-0.3,14.4,5.7,14.7,13.5c0.3,7.8-5.7,14.4-13.5,14.7S68,98.8,67.7,91.1C67.4,83.3,73.4,76.7,81.2,76.4z"/>
	<path id="XMLID_18_" class="st2" d="M92.3,25.3l7.3,13l-10.7,8.1c-2.9-0.5-5.9-0.7-8.9-0.5c-13.7,0.5-26.5,7.8-34.1,19.2l-4.4-11.2
		l-15,1C31.9,46.7,40.9,38,49.6,33c8.9-5.1,19.1-8.1,29.4-8.5C83.5,24.3,87.9,24.6,92.3,25.3z"/>
	<path id="XMLID_19_" class="st3" d="M93.2,47.4l10.3-6.8l-6.7-13.7c24.5,6.8,44.9,27.4,48.6,52.5l-9.9,10.2l-11.2-7
		C121.9,65.7,109.7,52,93.2,47.4z"/>
	<path id="XMLID_20_" class="st4" d="M38.6,90.8c0.1,1.1,0.1,2.2,0.3,3.3c0.1,0.7,0.2,1.5,0.3,2.2c0.1,1,0.4,2.1,0.7,3.2
		c0.7,2.7,1.6,5.4,2.9,8c0.1,0.3,0.3,0.7,0.4,1c1,1.8,2.1,3.7,3.2,5.4c0.2,0.3,0.4,0.6,0.6,0.8c0.3,0.4,0.6,0.8,1,1.2L35,117.4
		l-3.2,13.4c-0.4-0.6-1.5-2.8-2-3.4c-0.3-0.4-0.6-0.8-0.9-1.2c-1.8-2.6-3.4-5.3-4.8-8.1c-0.2-0.4-0.4-1-0.7-1.4
		c-1.8-3.8-3.2-7.8-4.3-12c-0.4-1.5-0.7-3.2-1-4.8c-0.1-1.1-0.4-2.1-0.4-3.2c-0.2-1.6-0.3-3.2-0.4-4.9c-0.6-11.2,1.9-22.5,7.1-32.4
		l13.4-2.3l5.6,12.2C40,75.8,38.3,83.3,38.6,90.8z"/>
	<path id="XMLID_21_" class="st5" d="M57.4,124.7c0.6,0.4,1.2,0.7,1.8,1.1c1.8,1.1,3.7,2.1,5.6,2.9c5.9,2.6,12.3,3.7,18.9,3.4
		c4.5-0.2,9-1.1,13.3-2.6l-2.1,11.8l12.1,7.7c-6.3,2.3-15.5,4.3-22.3,4.5c-9.8,0.4-19.3-1.3-28.2-5.2c-2.9-1.2-5.6-2.7-8.3-4.3
		c-0.9-0.5-1.8-1.1-2.6-1.7c-3.4-2.3-6.7-5.1-9.6-8.1l2.7-13.9l12.5-1.1C52.9,121.3,55.1,123,57.4,124.7z"/>
	<path id="XMLID_22_" class="st6" d="M102,127.1c1.8-1,3.6-2.1,5.3-3.4c0.6-0.4,1.1-0.8,1.6-1.2c3.7-3.1,7-6.7,9.5-10.9
		c0.1-0.3,0.4-0.6,0.5-0.9c1-1.8,2-3.7,2.7-5.6c0.1-0.3,0.2-0.7,0.4-1c1-2.6,1.7-5.4,2.2-8.2c0.1-1,0.3-2.1,0.4-3.2
		c0.1-0.7,0.1-1.5,0.1-2.2c0.1-1.1,0-2.2,0-3.3l0,0l10.9,4.9l10.3-8.7c0.1,1.6,0.2,6.2,0.1,7.8c0,1.1-0.1,2.2-0.2,3.2
		c-0.1,1.6-0.4,3.2-0.6,4.8c-0.7,4.2-1.8,8.3-3.2,12.3c-0.2,0.5-0.4,1-0.6,1.5c-1.2,2.9-2.6,5.7-4.1,8.4c-0.3,0.4-0.5,0.9-0.8,1.3
		c-3.8,6.2-8.6,11.7-14.2,16.2c-0.8,0.7-1.6,1.3-2.4,1.9c-2.5,1.8-5.1,3.5-7.9,5c-0.5,0.3-1.1,0.6-1.6,0.8l-12.5-7.2l3-12
		C101.4,127.4,101.7,127.3,102,127.1z"/>
	<path id="XMLID_26_" class="st7" d="M81.2,76.4c-7.8,0.3-13.8,6.9-13.5,14.7c0.3,7.8,6.9,13.8,14.7,13.5s13.8-6.9,13.5-14.7
		S89,76,81.2,76.4z M81.2,76.7c7.6-0.3,14,5.6,14.3,13.1s-5.6,14-13.1,14.3s-14-5.6-14.3-13.1C67.8,83.4,73.6,77,81.2,76.7z"/>
</g>
</svg>
