<?xml version="1.0" encoding="utf-8"?>
<!-- Generator: Adobe Illustrator 19.0.0, SVG Export Plug-In . SVG Version: 6.00 Build 0)  -->
<svg version="1.1" id="Layer_1" xmlns="http://www.w3.org/2000/svg" xmlns:xlink="http://www.w3.org/1999/xlink" x="0px" y="0px"
	 viewBox="0 0 167 177" style="enable-background:new 0 0 167 177;" xml:space="preserve">
<style type="text/css">
	.st0{fill:none;}
	.st1{opacity:0.22;}
	.st2{fill:#464D4E;}
	.st3{fill:none;stroke:#000000;stroke-width:1.4719;stroke-miterlimit:10;}
	.st4{fill:url(#XMLID_69_);stroke:#000000;stroke-width:0.9812;stroke-miterlimit:10;}
	.st5{enable-background:new    ;}
	.st6{fill:#FFFFFF;}
	.st7{fill:none;stroke:#000000;stroke-width:0.9812;stroke-miterlimit:10;}
</style>
<rect id="XMLID_58_" x="10.6" y="6.4" class="st0" width="150" height="164.3"/>
<g id="Layer_1_1_">
	<g id="XMLID_8_" class="st1">
	</g>
	<g id="XMLID_5_">
		<path id="XMLID_7_" class="st2" d="M132.6,132.4c0.1,8.4-6.7,15.5-15.2,15.6l-82.1,1c-8.4,0.1-15.5-6.7-15.6-15.2l-1-84.7
			c-0.1-8.4,6.7-15.5,15.2-15.6l82.1-1c8.4-0.1,15.5,6.7,15.6,15.2L132.6,132.4z"/>
		<path id="XMLID_6_" class="st3" d="M132.6,132.4c0.1,8.4-6.7,15.5-15.2,15.6l-82.1,1c-8.4,0.1-15.5-6.7-15.6-15.2l-1-84.7
			c-0.1-8.4,6.7-15.5,15.2-15.6l82.1-1c8.4-0.1,15.5,6.7,15.6,15.2L132.6,132.4z"/>
	</g>
	
		<linearGradient id="XMLID_69_" gradientUnits="userSpaceOnUse" x1="61.0461" y1="267.5091" x2="138.4641" y2="282.6586" gradientTransform="matrix(0.998 6.320903e-002 -6.320903e-002 0.998 6.5483 -223.1182)">
		<stop  offset="0" style="stop-color:#FFFFFF"/>
		<stop  offset="1" style="stop-color:#088723"/>
	</linearGradient>
	<polygon id="XMLID_4_" class="st4" points="152,46.3 91.9,102.2 91.1,101 91,101 58.3,62.6 68.9,48.3 92.7,77.7 145.1,28.9 	"/>
	<g id="XMLID_3_" class="st5">
		<path id="XMLID_68_" class="st6" d="M30.2,126.9l6.6-0.6c0.3,2.6,1.1,4.8,2.3,6.5c1.2,1.7,2.9,3,5.3,4c2.4,1,5.1,1.5,8.1,1.5
			c2.6,0,5-0.4,7-1.3c2-0.8,3.5-1.9,4.5-3.3s1.5-2.9,1.4-4.5c0-1.7-0.5-3.1-1.5-4.3c-1-1.2-2.6-2.3-4.8-3c-1.4-0.5-4.6-1.4-9.4-2.5
			c-4.9-1.1-8.2-2.2-10.2-3.1c-2.6-1.3-4.4-2.9-5.7-4.9c-1.3-1.9-1.9-4.1-1.9-6.5c0-2.6,0.7-5.2,2.2-7.5c1.5-2.3,3.7-4.1,6.5-5.3
			c2.9-1.2,6.1-1.9,9.7-1.9c3.9,0,7.4,0.5,10.4,1.8c3,1.2,5.3,3,7,5.4c1.6,2.4,2.6,5.2,2.7,8.3l-6.7,0.6c-0.4-3.3-1.7-5.8-3.7-7.5
			c-2.1-1.7-5.2-2.5-9.2-2.5c-4.2,0-7.3,0.9-9.2,2.5s-2.8,3.4-2.8,5.6c0,1.9,0.7,3.4,2.1,4.7c1.4,1.2,4.9,2.4,10.5,3.6
			c5.7,1.2,9.6,2.3,11.7,3.2c3.1,1.4,5.3,3.1,6.9,5.3c1.5,2.2,2.3,4.7,2.3,7.5c0,2.8-0.7,5.4-2.3,7.9c-1.6,2.5-3.9,4.5-6.9,5.9
			s-6.4,2.2-10.1,2.2c-4.8,0-8.8-0.6-12-1.9c-3.2-1.3-5.8-3.4-7.7-6.2C31.4,133.6,30.3,130.4,30.2,126.9z"/>
		<path id="XMLID_70_" class="st6" d="M107,130.6l6.7,0.7c-1,3.9-2.9,7-5.7,9.2c-2.8,2.2-6.5,3.3-10.9,3.4c-5.6,0-10-1.6-13.3-5
			c-3.3-3.4-5-8.2-5.1-14.4c-0.1-6.4,1.5-11.4,4.8-15c3.2-3.6,7.5-5.4,12.8-5.5c5.1,0,9.3,1.6,12.6,5.1c3.3,3.4,5,8.3,5.1,14.6
			c0,0.4,0,1,0,1.7l-28.5,0.3c0.3,4.2,1.5,7.4,3.7,9.6c2.2,2.2,4.8,3.3,8,3.2c2.4,0,4.4-0.7,6-2C104.8,135.3,106,133.3,107,130.6z
			 M85.6,120.4l21.3-0.2c-0.3-3.2-1.2-5.6-2.6-7.2c-2.1-2.5-4.8-3.7-8-3.6c-3,0-5.4,1.1-7.5,3.1C86.9,114.4,85.8,117.1,85.6,120.4z"
			/>
	</g>
	<g id="XMLID_2_" class="st5">
		<path id="XMLID_63_" class="st7" d="M30.2,126.9l6.6-0.6c0.3,2.6,1.1,4.8,2.3,6.5c1.2,1.7,2.9,3,5.3,4c2.4,1,5.1,1.5,8.1,1.5
			c2.6,0,5-0.4,7-1.3c2-0.8,3.5-1.9,4.5-3.3s1.5-2.9,1.4-4.5c0-1.7-0.5-3.1-1.5-4.3c-1-1.2-2.6-2.3-4.8-3c-1.4-0.5-4.6-1.4-9.4-2.5
			c-4.9-1.1-8.2-2.2-10.2-3.1c-2.6-1.3-4.4-2.9-5.7-4.9c-1.3-1.9-1.9-4.1-1.9-6.5c0-2.6,0.7-5.2,2.2-7.5c1.5-2.3,3.7-4.1,6.5-5.3
			c2.9-1.2,6.1-1.9,9.7-1.9c3.9,0,7.4,0.5,10.4,1.8c3,1.2,5.3,3,7,5.4c1.6,2.4,2.6,5.2,2.7,8.3l-6.7,0.6c-0.4-3.3-1.7-5.8-3.7-7.5
			c-2.1-1.7-5.2-2.5-9.2-2.5c-4.2,0-7.3,0.9-9.2,2.5s-2.8,3.4-2.8,5.6c0,1.9,0.7,3.4,2.1,4.7c1.4,1.2,4.9,2.4,10.5,3.6
			c5.7,1.2,9.6,2.3,11.7,3.2c3.1,1.4,5.3,3.1,6.9,5.3c1.5,2.2,2.3,4.7,2.3,7.5c0,2.8-0.7,5.4-2.3,7.9c-1.6,2.5-3.9,4.5-6.9,5.9
			s-6.4,2.2-10.1,2.2c-4.8,0-8.8-0.6-12-1.9c-3.2-1.3-5.8-3.4-7.7-6.2C31.4,133.6,30.3,130.4,30.2,126.9z"/>
		<path id="XMLID_65_" class="st7" d="M107,130.6l6.7,0.7c-1,3.9-2.9,7-5.7,9.2c-2.8,2.2-6.5,3.3-10.9,3.4c-5.6,0-10-1.6-13.3-5
			c-3.3-3.4-5-8.2-5.1-14.4c-0.1-6.4,1.5-11.4,4.8-15c3.2-3.6,7.5-5.4,12.8-5.5c5.1,0,9.3,1.6,12.6,5.1c3.3,3.4,5,8.3,5.1,14.6
			c0,0.4,0,1,0,1.7l-28.5,0.3c0.3,4.2,1.5,7.4,3.7,9.6c2.2,2.2,4.8,3.3,8,3.2c2.4,0,4.4-0.7,6-2C104.8,135.3,106,133.3,107,130.6z
			 M85.6,120.4l21.3-0.2c-0.3-3.2-1.2-5.6-2.6-7.2c-2.1-2.5-4.8-3.7-8-3.6c-3,0-5.4,1.1-7.5,3.1C86.9,114.4,85.8,117.1,85.6,120.4z"
			/>
	</g>
</g>
<g id="XMLID_86_">
</g>
</svg>
