<?xml version="1.0" encoding="utf-8"?>
<!-- Generator: Adobe Illustrator 19.0.0, SVG Export Plug-In . SVG Version: 6.00 Build 0)  -->
<svg version="1.1" id="Layer_1" xmlns="http://www.w3.org/2000/svg" xmlns:xlink="http://www.w3.org/1999/xlink" x="0px" y="0px"
	 viewBox="-315 162.7 177 185" enable-background="new -315 162.7 177 185" xml:space="preserve">
<ellipse id="XMLID_1_" fill="#1A8799" cx="-226.2" cy="191.4" rx="67.5" ry="18.7"/>
<g id="XMLID_68_" enable-background="new    ">
	<g>
		<defs>
			<path id="SVGID_1_" d="M-300.4,178c0,2.3,2.4,4.5,7.6,6.7c18.1,7.6,62.6,10.7,99.4,7.1c26.3-2.6,41.6-8,41.6-13.6l-0.4,173.5
				c0,5.6-15.3,11-41.6,13.6c-36.8,3.7-81.3,0.5-99.4-7.1c-5.2-2.2-7.6-4.5-7.6-6.7C-300.7,299.5-300.5,230.1-300.4,178z"/>
		</defs>
		<clipPath id="SVGID_2_">
			<use xlink:href="#SVGID_1_"  overflow="visible"/>
		</clipPath>
		<path id="XMLID_84_" clip-path="url(#SVGID_2_)" fill="#1A8199" d="M-152,237.7c-1.3,5.3-16.4,10.4-41.5,12.9
			c-36.8,3.7-81.3,0.5-99.4-7.1c-4.7-2-7.1-4-7.5-6.1v-30.7c0.4,2,2.9,4.1,7.5,6.1c18.1,7.6,62.6,10.7,99.4,7.1
			c25.2-2.5,40.2-7.5,41.5-12.9V237.7"/>
	</g>
	<g>
		<defs>
			<path id="SVGID_3_" d="M-300.4,178c0,2.3,2.4,4.5,7.6,6.7c18.1,7.6,62.6,10.7,99.4,7.1c26.3-2.6,41.6-8,41.6-13.6l-0.4,173.5
				c0,5.6-15.3,11-41.6,13.6c-36.8,3.7-81.3,0.5-99.4-7.1c-5.2-2.2-7.6-4.5-7.6-6.7C-300.7,299.5-300.5,230.1-300.4,178z"/>
		</defs>
		<clipPath id="SVGID_4_">
			<use xlink:href="#SVGID_3_"  overflow="visible"/>
		</clipPath>
		<path id="XMLID_81_" clip-path="url(#SVGID_4_)" fill="#1A8799" d="M-300.4,206.7l-0.1,30.6c0.4,2,2.9,4.1,7.5,6.1
			c18.1,7.6,62.6,10.7,99.4,7.1c25.2-2.5,40.2-7.5,41.5-12.9l0.1-30.6c-1.3,5.3-16.4,10.4-41.5,12.9c-36.8,3.7-81.3,0.5-99.4-7.1
			C-297.5,210.8-300,208.8-300.4,206.7 M-151.9,238.1c-0.8,5.5-16,10.6-41.6,13.2c-36.8,3.7-81.3,0.5-99.4-7.1
			c-4.9-2.1-7.3-4.2-7.6-6.3l0.1-32.2c0.2,2.1,2.7,4.3,7.6,6.3c18.1,7.6,62.6,10.7,99.4,7.1c25.6-2.5,40.8-7.7,41.6-13.2
			L-151.9,238.1"/>
	</g>
	<g>
		<defs>
			<path id="SVGID_5_" d="M-300.4,178c0,2.3,2.4,4.5,7.6,6.7c18.1,7.6,62.6,10.7,99.4,7.1c26.3-2.6,41.6-8,41.6-13.6l-0.4,173.5
				c0,5.6-15.3,11-41.6,13.6c-36.8,3.7-81.3,0.5-99.4-7.1c-5.2-2.2-7.6-4.5-7.6-6.7C-300.7,299.5-300.5,230.1-300.4,178z"/>
		</defs>
		<clipPath id="SVGID_6_">
			<use xlink:href="#SVGID_5_"  overflow="visible"/>
		</clipPath>
		<path id="XMLID_80_" clip-path="url(#SVGID_6_)" fill="#1A8199" d="M-152.1,279.4c-1.3,5.3-16.4,10.4-41.5,12.9
			c-36.8,3.7-81.3,0.5-99.4-7.1c-4.7-2-7.1-4-7.5-6.1l0.1-30.6c0.4,2,2.9,4.1,7.5,6.1c18.1,7.6,62.6,10.7,99.4,7.1
			c25.2-2.5,40.2-7.5,41.5-12.9L-152.1,279.4"/>
	</g>
	<g>
		<defs>
			<path id="SVGID_7_" d="M-300.4,178c0,2.3,2.4,4.5,7.6,6.7c18.1,7.6,62.6,10.7,99.4,7.1c26.3-2.6,41.6-8,41.6-13.6l-0.4,173.5
				c0,5.6-15.3,11-41.6,13.6c-36.8,3.7-81.3,0.5-99.4-7.1c-5.2-2.2-7.6-4.5-7.6-6.7C-300.7,299.5-300.5,230.1-300.4,178z"/>
		</defs>
		<clipPath id="SVGID_8_">
			<use xlink:href="#SVGID_7_"  overflow="visible"/>
		</clipPath>
		<path id="XMLID_77_" clip-path="url(#SVGID_8_)" fill="#1A8799" d="M-300.5,248.5l-0.1,30.6c0.4,2,2.9,4.1,7.5,6.1
			c18.1,7.6,62.6,10.7,99.4,7.1c25.2-2.5,40.2-7.5,41.5-12.9l0.1-30.6c-1.3,5.3-16.4,10.4-41.5,12.9c-36.8,3.7-81.3,0.5-99.4-7.1
			C-297.6,252.6-300.1,250.5-300.5,248.5 M-152,279.9c-0.8,5.5-16,10.6-41.6,13.2c-36.9,3.6-81.4,0.4-99.4-7.1
			c-4.9-2.1-7.3-4.2-7.6-6.3l0.1-32.2c0.2,2.1,2.7,4.3,7.6,6.3c18.1,7.6,62.6,10.7,99.4,7.1c25.6-2.5,40.8-7.7,41.6-13.2L-152,279.9
			"/>
	</g>
	<g>
		<defs>
			<path id="SVGID_9_" d="M-300.4,178c0,2.3,2.4,4.5,7.6,6.7c18.1,7.6,62.6,10.7,99.4,7.1c26.3-2.6,41.6-8,41.6-13.6l-0.4,173.5
				c0,5.6-15.3,11-41.6,13.6c-36.8,3.7-81.3,0.5-99.4-7.1c-5.2-2.2-7.6-4.5-7.6-6.7C-300.7,299.5-300.5,230.1-300.4,178z"/>
		</defs>
		<clipPath id="SVGID_10_">
			<use xlink:href="#SVGID_9_"  overflow="visible"/>
		</clipPath>
		<path id="XMLID_76_" clip-path="url(#SVGID_10_)" fill="#1A8199" d="M-152.2,321.8c-1.3,5.3-16.4,10.4-41.5,12.9
			c-36.8,3.7-81.3,0.5-99.4-7.1c-4.7-2-7.1-4-7.5-6.1l0.1-30.6c0.4,2,2.9,4.1,7.5,6.1c18.1,7.6,62.6,10.7,99.4,7.1
			c25.2-2.5,40.2-7.5,41.5-12.9L-152.2,321.8"/>
	</g>
	<g>
		<defs>
			<path id="SVGID_11_" d="M-300.4,178c0,2.3,2.4,4.5,7.6,6.7c18.1,7.6,62.6,10.7,99.4,7.1c26.3-2.6,41.6-8,41.6-13.6l-0.4,173.5
				c0,5.6-15.3,11-41.6,13.6c-36.8,3.7-81.3,0.5-99.4-7.1c-5.2-2.2-7.6-4.5-7.6-6.7C-300.7,299.5-300.5,230.1-300.4,178z"/>
		</defs>
		<clipPath id="SVGID_12_">
			<use xlink:href="#SVGID_11_"  overflow="visible"/>
		</clipPath>
		<path id="XMLID_73_" clip-path="url(#SVGID_12_)" fill="#1A8799" d="M-300.6,290.9l-0.1,30.6c0.4,2,2.9,4.1,7.5,6.1
			c18.1,7.6,62.6,10.7,99.4,7.1c25.2-2.5,40.2-7.5,41.5-12.9l0.1-30.6c-1.3,5.3-16.4,10.4-41.5,12.9c-36.8,3.7-81.3,0.5-99.4-7.1
			C-297.7,295-300.2,292.9-300.6,290.9 M-152.2,322.3c-0.8,5.5-16,10.6-41.6,13.2c-36.8,3.7-81.3,0.5-99.4-7.1
			c-4.9-2.1-7.3-4.2-7.6-6.3l0.1-32.2c0.2,2.1,2.7,4.3,7.6,6.3c18.1,7.6,62.6,10.7,99.4,7.1c25.6-2.5,40.8-7.7,41.6-13.2
			L-152.2,322.3"/>
	</g>
</g>
<g id="XMLID_186_">
</g>
<g id="XMLID_194_">
</g>
<g id="XMLID_195_">
</g>
<g id="XMLID_196_">
</g>
<g id="XMLID_197_">
</g>
<g id="XMLID_198_">
</g>
<g id="XMLID_199_">
</g>
<g id="XMLID_200_">
</g>
<g id="XMLID_201_">
</g>
<g id="XMLID_202_">
</g>
<g id="XMLID_203_">
</g>
<g id="XMLID_204_">
</g>
<g id="XMLID_205_">
</g>
<g id="XMLID_206_">
</g>
<g id="XMLID_207_">
</g>
<g id="XMLID_208_">
</g>
<g id="XMLID_209_">
</g>
<g id="XMLID_210_">
</g>
<g id="XMLID_212_">
</g>
<g id="XMLID_213_">
</g>
</svg>
