<?xml version="1.0" encoding="utf-8"?>
<!-- Generator: Adobe Illustrator 19.0.0, SVG Export Plug-In . SVG Version: 6.00 Build 0)  -->
<svg version="1.1" id="Layer_1" xmlns="http://www.w3.org/2000/svg" xmlns:xlink="http://www.w3.org/1999/xlink" x="0px" y="0px"
	 viewBox="0 0 165 175" style="enable-background:new 0 0 165 175;" xml:space="preserve">
<style type="text/css">
	.st0{fill:none;}
	.st1{fill:#7AC943;stroke:#7AC943;stroke-width:0.4215;stroke-miterlimit:10;}
	.st2{fill:#F5FCF8;stroke:#F2F9F5;stroke-width:4.2546;stroke-miterlimit:10;}
</style>
<rect id="XMLID_1_" x="7.1" y="5.9" class="st0" width="150" height="164.3"/>
<path id="XMLID_3_" class="st1" d="M80.2,148.9l-54.8-42.9c-7.9-6.2-9.3-17.5-3.1-25.5l40.1-51.3c6.2-7.9,17.5-9.3,25.5-3.1
	c0.5,0.4,14.1,11.1,27.7,21.7c13.3,10.4,26.5,20.7,27.1,21.2c0.9,0.7,5.9,4.8,6.8,12.1c0.6,4.6-0.7,9.4-3.7,13.3l-40.1,51.3
	C99.5,153.7,88.1,155.1,80.2,148.9z"/>
<g id="XMLID_2_">
	<path id="XMLID_2202_" class="st2" d="M134.3,107.3c0,18.3-19.5,27.6-58.6,27.6c-14.3,0-26.9-1.1-38-3.2l4-11.7
		c12.8,2.9,24.8,4.4,36.3,4.4c25.8,0,38.7-4.8,38.7-14.3c0-4.8-3.3-8.9-10-12.3c-4.5-2.2-13.3-5.4-26.4-9.1
		c-13.8-4-23.5-7.7-29-11.1c-7.6-4.8-11.5-10.6-11.5-17.6c0-7.3,3.9-13.3,11.7-17.9c8.7-5.1,21-7.8,37-7.8c18.1,0,30.4,0.8,37.1,2.3
		l-2.8,11.8C111.3,46,99,44.8,86,44.8c-19.5,0-29.2,4.3-29.2,12.8c0,4.1,2.8,7.5,8.4,10.4c3.6,1.7,11.7,4.4,24.1,7.9
		c14.2,4,24.4,7.8,30.7,11.5C129.6,92.7,134.3,99.4,134.3,107.3z"/>
</g>
</svg>
