<?xml version="1.0" encoding="utf-8"?>
<!-- Generator: Adobe Illustrator 19.0.0, SVG Export Plug-In . SVG Version: 6.00 Build 0)  -->
<svg version="1.1" id="Layer_1" xmlns="http://www.w3.org/2000/svg" xmlns:xlink="http://www.w3.org/1999/xlink" x="0px" y="0px"
	 viewBox="0 0 167 178" style="enable-background:new 0 0 167 178;" xml:space="preserve">
<style type="text/css">
	.st0{fill:none;}
	.st1{fill:#603813;stroke:#603813;stroke-width:0.784;stroke-miterlimit:10;}
	.st2{fill:#754C24;stroke:#754C24;stroke-width:0.784;stroke-miterlimit:10;}
	.st3{fill:#F2F2F2;}
</style>
<rect id="XMLID_58_" x="8.1" y="6.9" class="st0" width="150" height="164.3"/>
<g id="XMLID_1_">
	<path id="XMLID_2_" class="st1" d="M82.3,17.2c0,0-40.7,22.5-68,19.1c-6.7-0.8-0.8,89.3,70.5,124.7"/>
	<path id="XMLID_3_" class="st2" d="M82,17.2c0,0,40.7,20.8,67.7,16c7-1.1,12.1,85.6-65.1,127.8"/>
</g>
<g id="XMLID_5_">
	<path id="XMLID_144_" class="st3" d="M76.1,47.6c-0.3,0.6-0.3,0.8-0.6,1.1l-2.8,5.9c-0.8,2.2-1.7,4.8-2.5,7.9v0.3h-0.3v-0.6
		c-0.8-3.9-2-6.5-3.4-7.9s-3.7-2.2-6.5-2.2c-1.1,0-2.5,0-3.7,0.3h-0.6v54.2l4.8,5.3H42.4L48,106V56.3h-2.8c-2.8,0-4.8,0.6-5.9,2
		s-2,3.7-2,7h-1.1c0.3-3.9,1.1-6.7,2.5-8.1c1.4-1.4,3.4-2.2,6.5-2.2h2.5h0.6v-2.5c-1.4-0.3-2.5-0.3-3.9-0.3c-3.4,0-5.9,0.8-7.3,2.5
		c-1.4,1.7-2.2,4.8-2.5,9H34c-1.1-4.5-2.8-9.8-5.3-15.4l-0.3-0.6C28.4,47.6,76.1,47.6,76.1,47.6z M67.9,58.5c-2-1.7-4.5-2.5-7.3-2.5
		c-0.6,0-1.1,0-2,0.3l0.3,50.3l6.5,9.3H44.9l-0.8-1.4h19.1l-5.3-7.6V54.9h2.2c2.5,0,4.5,0.3,5.6,0.8C66.8,56.3,67.4,57.1,67.9,58.5z
		 M78.6,50.9c-2,2.8-3.7,7.9-5.9,14.6l-0.3,0.6l-0.8-0.8v-0.6c2-7,3.9-11.8,5.6-14.3l0.3-0.3L78.6,50.9z"/>
</g>
<g id="XMLID_6_">
	<path id="XMLID_139_" class="st3" d="M91.8,47.3h46.1c-2,2.8-3.1,4.8-3.9,6.5c-0.8,1.7-1.7,4.2-3.1,7.6l-0.3,1.1
		c-2-4.5-3.9-7.6-5.9-8.7c-2-1.4-5.1-2-9.5-2h-2.5h-4.2h-1.7v23.6h2.8V54.6h1.4c2,0,3.7-0.3,5.9-0.3c5.9,0,9.8,1.7,11.2,5.3
		c-1.4-1.7-3.1-2.5-4.8-3.1c-1.7-0.6-4.2-0.8-7.9-0.8c-1.4,0-2.8,0-4.8,0.3v19.4h6.7l7-8.4V88l-7.3-8.4H107v25.3l5.6,6.5H91l7.3-6.5
		V83.2c-2.2,0-4.2,0.8-5.9,2.8L91,84.6c1.7-2.2,3.9-3.1,6.7-3.1v-2.2c-0.6,0-1.1,0-1.4,0c-2.8,0-5.1,1.4-7,3.9L89,82.4
		c1.4-4.5,4.2-6.7,8.7-7V54L91.8,47.3z M119.6,83.2h-9v21.6l7.9,11H92.9l-1.1-1.4H116l-6.5-9V81.8h9L119.6,83.2z M127.5,68.1v21.6
		l-1.1-0.8V67.2L127.5,68.1z M141.2,50.4c-4.2,5.6-7,10.7-7.9,15.4l-0.8-0.8c1.1-5.3,3.9-10.4,8.1-15.4L141.2,50.4z"/>
</g>
<g id="XMLID_160_">
</g>
</svg>
