<?xml version="1.0" encoding="utf-8"?>
<!-- Generator: Adobe Illustrator 19.0.0, SVG Export Plug-In . SVG Version: 6.00 Build 0)  -->
<svg version="1.1" id="Layer_1" xmlns="http://www.w3.org/2000/svg" xmlns:xlink="http://www.w3.org/1999/xlink" x="0px" y="0px"
	 viewBox="0 0 164 174" style="enable-background:new 0 0 164 174;" xml:space="preserve">
<style type="text/css">
	.st0{fill:none;}
	.st1{fill:url(#XMLID_64_);}
	.st2{fill:none;stroke:#000000;stroke-width:3.5568;stroke-miterlimit:10;}
	.st3{fill:#030405;stroke:#000000;stroke-width:4.0129;stroke-miterlimit:10;}
	.st4{fill:#FFFFFF;}
	.st5{fill:#FFFFFF;stroke:#1A1A1A;stroke-width:0.1893;stroke-miterlimit:10;}
	.st6{fill:#FFFFFF;stroke:#1A1A1A;stroke-width:0.1899;stroke-miterlimit:10;}
	.st7{fill:#FFFFFF;stroke:#1A1A1A;stroke-width:0.1649;stroke-miterlimit:10;}
</style>
<rect id="XMLID_58_" x="7.1" y="4.9" class="st0" width="150" height="164.3"/>
<g id="XMLID_1_">
	
		<linearGradient id="XMLID_64_" gradientUnits="userSpaceOnUse" x1="6.3328" y1="109.7524" x2="134.8256" y2="74.5135" gradientTransform="matrix(1 0 0 -1 0 176)">
		<stop  offset="4.500000e-002" style="stop-color:#FFFFFF"/>
		<stop  offset="1" style="stop-color:#2C2829"/>
		<stop  offset="1" style="stop-color:#302C2D"/>
		<stop  offset="1" style="stop-color:#2A2627"/>
	</linearGradient>
	<path id="XMLID_19_" class="st1" d="M134.2,149.6H30.9c-8.7,0-15.8-7.1-15.8-15.8V40.5c0-8.7,7.1-15.8,15.8-15.8h103.3
		c8.7,0,15.8,7.1,15.8,15.8v93.4C150,142.6,142.9,149.6,134.2,149.6z"/>
	<path id="XMLID_18_" class="st2" d="M134.2,149.6H30.9c-8.7,0-15.8-7.1-15.8-15.8V40.5c0-8.7,7.1-15.8,15.8-15.8h103.3
		c8.7,0,15.8,7.1,15.8,15.8v93.4C150,142.6,142.9,149.6,134.2,149.6z"/>
</g>
<path id="XMLID_2_" class="st3" d="M113.9,137.6H51.1c-10.5,0-19.1-8.5-19.1-19.1V54.9c0-10.5,8.5-19.1,19.1-19.1H114
	c10.5,0,19.1,8.5,19.1,19.1v63.6C133,129,124.5,137.6,113.9,137.6z"/>
<g id="XMLID_3_">
	<path id="XMLID_65_" class="st4" d="M59.1,95.3l5.1,0.6c-0.6,3.4-2,6.1-4.3,8c-2.3,1.9-5.2,2.9-8.5,2.9c-4.2,0-7.6-1.3-10.2-4
		c-2.6-2.7-3.9-6.5-3.9-11.4c0-3.2,0.6-6,1.7-8.4c1.1-2.4,2.8-4.2,5.1-5.4c2.2-1.2,4.7-1.8,7.4-1.8c3.4,0,6.1,0.8,8.2,2.4
		c2.1,1.6,3.5,4,4.1,7l-5.1,0.8c-0.5-2-1.3-3.5-2.6-4.5c-1.2-1-2.7-1.5-4.5-1.5c-2.6,0-4.8,0.9-6.4,2.7s-2.5,4.7-2.5,8.7
		c0,4,0.8,6.9,2.4,8.7c1.6,1.8,3.7,2.7,6.3,2.7c2.1,0,3.8-0.6,5.1-1.8C57.8,99.7,58.7,97.8,59.1,95.3z"/>
</g>
<rect id="XMLID_6_" x="71.1" y="99.9" class="st5" width="5.3" height="5.5"/>
<rect id="XMLID_5_" x="71.1" y="84.4" class="st5" width="5.3" height="5.5"/>
<polygon id="XMLID_4_" class="st6" points="92,106.2 87.5,105.6 82.4,73.2 87.2,74.9 "/>
<polygon id="XMLID_8_" class="st7" points="119.7,109.9 119.7,114.3 92.6,114.3 92.6,109.9 "/>
</svg>
