<?xml version="1.0" encoding="utf-8"?>
<!-- Generator: Adobe Illustrator 21.0.2, SVG Export Plug-In . SVG Version: 6.00 Build 0)  -->
<svg version="1.1" id="Layer_1" xmlns="http://www.w3.org/2000/svg" xmlns:xlink="http://www.w3.org/1999/xlink" x="0px" y="0px"
	 viewBox="0 0 152 157" style="enable-background:new 0 0 152 157;" xml:space="preserve">
<style type="text/css">
	.st0{fill:#66CC00;stroke:#66CC00;stroke-miterlimit:10;}
	.st1{fill:#CC0000;stroke:#CC0000;stroke-miterlimit:10;}
</style>
<g>
	<g>
		<path class="st0" d="M37.8,45.7c-0.6,0-1.4,0.1-2.3,0.4c-0.9,0.2-1.7,0.5-2.3,0.9c-0.7,0.4-1.2,1.1-1.5,2.1c-0.3,1-0.4,2-0.4,3.2
			v44c0,2.3-0.3,4.7-0.9,7.3c-0.6,2.6-1.4,4.9-2.5,6.9c-1.3,2.4-2.9,4.2-4.6,5.5s-3.8,2-6.2,2c-3.6,0-6.5-1.6-8.7-4.8
			C6.1,110,5,105.7,5,100.3c0-2.4,0.4-4.5,1.1-6.3s1.9-2.8,3.4-2.8c1.3,0,2.4,0.6,3.2,1.7s1.2,2.7,1.2,4.6c0,1.1-0.2,2.2-0.4,3.3
			c-0.3,1.1-0.6,2.1-1,3c-0.3,0.8-0.7,1.7-1.1,2.8c-0.4,1.1-0.7,2-0.9,2.9c0.5,1.2,1.2,2.2,2.2,3.1c1,0.9,2.3,1.3,3.9,1.3
			c1.6,0,2.9-0.6,3.9-1.7s1.8-2.7,2.3-4.7c0.5-1.8,0.8-4.1,1-6.7c0.2-2.6,0.3-5.6,0.3-8.9V52.8c0-1.2-0.1-2.2-0.4-3.1
			c-0.3-0.8-0.8-1.5-1.6-2.2c-0.7-0.6-1.5-1-2.5-1.3c-1-0.3-1.9-0.5-2.5-0.6V42h20.6L37.8,45.7L37.8,45.7z"/>
	</g>
	<g>
		<path class="st1" d="M83.3,58.5c-0.6,0-1.4,0.2-2.6,0.5c-1.1,0.3-2,0.8-2.7,1.4c-0.7,0.7-1.2,2-1.5,4.1c-0.3,2-0.4,4.6-0.4,7.5
			v26.4c0,3.3-0.5,6.3-1.5,8.8c-1,2.5-2.3,4.5-4,6.1c-1.6,1.5-3.4,2.6-5.2,3.3c-1.8,0.7-3.6,1-5.2,1c-2.7,0-5-0.5-7.1-1.4
			c-2.1-1-3.8-2.2-5.2-3.9c-1.4-1.6-2.4-3.5-3.1-5.6c-0.7-2.1-1.1-4.3-1.1-6.6V64.2c0-1-0.1-1.8-0.4-2.5c-0.2-0.7-0.7-1.3-1.5-1.9
			c-0.5-0.4-1.2-0.7-2-1c-0.8-0.2-1.5-0.4-2-0.4v-3.1h18.4v3.1c-0.6,0-1.3,0.1-2.2,0.4c-0.9,0.2-1.5,0.4-2,0.6
			c-0.7,0.3-1.2,0.9-1.4,1.7c-0.2,0.8-0.4,1.7-0.4,2.6v33.5c0,1.6,0.1,3.3,0.4,5.1c0.3,1.8,0.8,3.4,1.6,5c0.8,1.6,1.9,2.9,3.3,3.8
			c1.4,1,3.3,1.5,5.7,1.5c2.3,0,4.2-0.5,5.8-1.5c1.6-1,2.8-2.3,3.7-3.9c0.9-1.5,1.5-3.2,1.8-4.8c0.4-1.7,0.5-3.4,0.5-5.1V72.4
			c0-3.2-0.2-5.7-0.5-7.7c-0.3-2-0.8-3.3-1.5-3.9c-0.7-0.7-1.7-1.3-3-1.7c-1.2-0.4-2.2-0.6-2.9-0.7v-3.1h18.1V58.5z"/>
	</g>
	<g>
		<path class="st1" d="M82.3,88c0-2.2-2.4-2.1-4.8-2v-2.3c2.3,0,4.9-1.1,8-3.2v6.3l2-2.5c2.3-2.6,5.3-3.8,8.9-3.8
			c6.4,0,8,5.4,8,10.2v20.2c0,2,1.1,2.9,2.3,2.9h2.5v2.3H96.6v-2.3h2.3c1.4,0,2.4-1,2.4-2.9V90.6c0-3.8-1.8-7.8-6.3-7.8
			c-3.5,0-8.2,3.2-9.4,8.2v20.1c0,2,0.9,2.6,2,2.6h2.4v2.3H77.8v-2.3h1.9c1.5,0,2.7-0.2,2.7-2.6V88z"/>
		<path class="st1" d="M119,87.7c0-2-2.6-2-4.8-2v-2.3c2.3,0,4.9-1,8-2.9V111c0,2.1,1.4,2.7,2.6,2.7h3.7v2.3h-16v-2.3h3.7
			c1.4,0,2.7-0.7,2.7-2.7L119,87.7L119,87.7z M123.6,63.8c0,2-1.4,3.5-3,3.5c-1.8,0-2.7-1.7-2.7-3.5c0-2,1-3.3,2.7-3.3
			C122.2,60.5,123.6,61.8,123.6,63.8z"/>
		<path class="st1" d="M140.5,106.8c0,4.5,0.3,7.4,3.8,7.4c1.6,0,3.7-1.6,6.3-5l1.4,1.6c-3.1,3.9-4.8,5.8-8.5,5.8
			c-5.1,0-6.1-5.2-6.1-9.8V83.5h-5.7v-2.3c5.8,0,7.1-4.7,7.1-16h1.8v16h8.7v2.3h-8.7V106.8z"/>
	</g>
</g>
</svg>
