<?xml version="1.0" encoding="utf-8"?>
<!-- Generator: Adobe Illustrator 19.0.0, SVG Export Plug-In . SVG Version: 6.00 Build 0)  -->
<svg version="1.1" id="Layer_1" xmlns="http://www.w3.org/2000/svg" xmlns:xlink="http://www.w3.org/1999/xlink" x="0px" y="0px"
	 viewBox="-385 170 167 183" style="enable-background:new -385 170 167 183;" xml:space="preserve">
<style type="text/css">
	.st0{fill:none;}
	.st1{fill:#006699;}
	.st2{fill:none;stroke:#006699;stroke-width:13.7467;stroke-miterlimit:10;}
	.st3{fill:none;stroke:#006699;stroke-width:12.1765;stroke-miterlimit:10;}
	.st4{fill:none;stroke:#006699;stroke-width:0.4916;stroke-miterlimit:10;}
	.st5{fill:none;stroke:#006699;stroke-width:0.5074;stroke-miterlimit:10;}
	.st6{fill:none;stroke:#006699;stroke-width:0.6766;stroke-miterlimit:10;}
</style>
<rect x="-376" y="178.9" class="st0" width="150" height="164.3"/>
<g id="XMLID_186_">
</g>
<g id="XMLID_194_">
</g>
<g id="XMLID_195_">
</g>
<g id="XMLID_196_">
</g>
<g id="XMLID_197_">
</g>
<g id="XMLID_198_">
</g>
<g id="XMLID_199_">
</g>
<g id="XMLID_200_">
</g>
<g id="XMLID_201_">
</g>
<g id="XMLID_202_">
</g>
<g id="XMLID_203_">
</g>
<g id="XMLID_204_">
</g>
<g id="XMLID_205_">
</g>
<g id="XMLID_206_">
</g>
<g id="XMLID_207_">
</g>
<g id="XMLID_208_">
</g>
<g id="XMLID_209_">
</g>
<g id="XMLID_210_">
</g>
<g id="XMLID_212_">
</g>
<g id="XMLID_213_">
</g>
<g>
	<g>
		<path class="st1" d="M-344.3,306.8c-2.8-1.4-5.4-2.7-7.9-4.4c-1.5-0.9-3.6-1.6-3.8-0.1c-1.5,8.8-2.2,20.8-1.3,33
			c0.1,1,1.3,1.9,2.8,1.9l12.5-0.1c1.4,0,2.6-0.9,2.4-2c-0.8-9.8-0.6-18.2,0.1-24.3c0.1-0.7-0.1-1.3-1.3-1.7
			C-341.9,308.1-343.2,307.4-344.3,306.8z"/>
	</g>
	<g>
		<path class="st2" d="M-344.3,306.8c-2.8-1.4-5.4-2.7-7.9-4.4c-1.5-0.9-3.6-1.6-3.8-0.1c-1.5,8.8-2.2,20.8-1.3,33
			c0.1,1,1.3,1.9,2.8,1.9l12.5-0.1c1.4,0,2.6-0.9,2.4-2c-0.8-9.8-0.6-18.2,0.1-24.3c0.1-0.7-0.1-1.3-1.3-1.7
			C-341.9,308.1-343.2,307.4-344.3,306.8z"/>
	</g>
</g>
<g>
	<g>
		<path class="st1" d="M-254.5,238c-0.4,0.1-0.8,0.4-0.8,0.7c-6.5,28.6-23.1,33.8-40.4,39.5c-0.1,0.1-0.6,0.1-0.8,0.3
			c-0.8,0.1-1.3,0.7-1,1.3l0,0c0,0.1,0.1,0.3,0.1,0.4c2.8,2.1,4.7,4.8,6.4,6.8c0.4,0.6,1.8,0.9,2.8,0.6c0.1-0.1,0.8-0.1,1-0.3
			c19.1-6.1,45.8-23.8,54.4-56c0.1-1-1.8-1.6-3.2-1.1L-254.5,238z"/>
	</g>
	<g>
		<path class="st3" d="M-254.5,238c-0.4,0.1-0.8,0.4-0.8,0.7c-6.5,28.6-23.1,33.8-40.4,39.5c-0.1,0.1-0.6,0.1-0.8,0.3
			c-0.8,0.1-1.3,0.7-1,1.3l0,0c0,0.1,0.1,0.3,0.1,0.4c2.8,2.1,4.7,4.8,6.4,6.8c0.4,0.6,1.8,0.9,2.8,0.6c0.1-0.1,0.8-0.1,1-0.3
			c19.1-6.1,45.8-23.8,54.4-56c0.1-1-1.8-1.6-3.2-1.1L-254.5,238z"/>
	</g>
</g>
<g>
	<g>
		<path class="st1" d="M-253.3,336.8c0.8,0,1.4-0.4,1.4-0.9c-1.8-19.5-7.2-33-17.1-42.1c-9.6-8.7-21.8-12.4-32.8-15.7
			c-17.7-5.3-34.6-10.1-42.9-38.6c0-0.1-0.1-0.4-0.6-0.6l-20.5-8.1c-1.3-0.4-2.6,0.1-2.2,0.9c10.2,32.7,38.3,49.9,57.9,55.6
			c19.9,5.8,37,10.9,40.2,48.9c0,0.4,0.8,0.9,1.5,0.9L-253.3,336.8z"/>
	</g>
	<g>
		<path class="st3" d="M-253.3,336.8c0.8,0,1.4-0.4,1.4-0.9c-1.8-19.5-7.2-33-17.1-42.1c-9.6-8.7-21.8-12.4-32.8-15.7
			c-17.7-5.3-34.6-10.1-42.9-38.6c0-0.1-0.1-0.4-0.6-0.6l-20.5-8.1c-1.3-0.4-2.6,0.1-2.2,0.9c10.2,32.7,38.3,49.9,57.9,55.6
			c19.9,5.8,37,10.9,40.2,48.9c0,0.4,0.8,0.9,1.5,0.9L-253.3,336.8z"/>
	</g>
</g>
<g>
	<g>
		<ellipse class="st1" cx="-298.1" cy="188.8" rx="14.3" ry="7.7"/>
	</g>
	<g>
		<ellipse class="st4" cx="-298.1" cy="188.8" rx="14.3" ry="7.7"/>
	</g>
</g>
<g>
	<g>
		<ellipse class="st1" cx="-353.3" cy="205.7" rx="14.3" ry="8.1"/>
	</g>
	<g>
		<ellipse class="st5" cx="-353.3" cy="205.7" rx="14.3" ry="8.1"/>
	</g>
</g>
<g>
	<g>
		<ellipse class="st1" cx="-247.1" cy="206.1" rx="14.3" ry="8.1"/>
	</g>
	<g>
		<ellipse class="st5" cx="-247.1" cy="206.1" rx="14.3" ry="8.1"/>
	</g>
</g>
<g>
	<g>
		<path class="st1" d="M-296,248c-1.5,1.6-4,1.6-5.6,0l-15.7-15.4c-1.5-1.6-0.8-2.7,1.8-2.7l32.7-0.1c2.6,0,3.6,1.3,1.9,2.7
			L-296,248z"/>
	</g>
	<g>
		<path class="st6" d="M-296,248c-1.5,1.6-4,1.6-5.6,0l-15.7-15.4c-1.5-1.6-0.8-2.7,1.8-2.7l32.7-0.1c2.6,0,3.6,1.3,1.9,2.7
			L-296,248z"/>
	</g>
</g>
</svg>
