<?xml version="1.0" encoding="utf-8"?>
<!-- Generator: Adobe Illustrator 19.0.0, SVG Export Plug-In . SVG Version: 6.00 Build 0)  -->
<svg version="1.1" id="Layer_1" xmlns="http://www.w3.org/2000/svg" xmlns:xlink="http://www.w3.org/1999/xlink" x="0px" y="0px"
	 viewBox="0 0 192 192" enable-background="new 0 0 192 192" xml:space="preserve">
<polygon id="XMLID_1_" fill="#F9A730" stroke="#F9A730" stroke-width="0.3651" stroke-miterlimit="10" points="27.3,141.1 6,136.5 
	6,103.1 27.3,109.2 "/>
<polygon id="XMLID_3_" fill="#F9A730" stroke="#F9A730" stroke-width="0.1501" stroke-miterlimit="10" points="52.4,101.1 
	29.9,106.9 7.5,101.3 29.9,95.4 "/>
<polygon id="XMLID_4_" fill="#F9A730" stroke="#F9A730" stroke-width="0.3651" stroke-miterlimit="10" points="31.7,140.9 53,136.8 
	53,103.4 31.7,109.5 "/>
<polygon id="XMLID_7_" fill="#F9A730" stroke="#F9A730" stroke-width="0.3651" stroke-miterlimit="10" points="79.5,141.1 
	58.2,136.5 58.2,103.1 79.5,109.2 "/>
<polygon id="XMLID_6_" fill="#F9A730" stroke="#F9A730" stroke-width="0.1501" stroke-miterlimit="10" points="104.6,100.1 
	82.1,105.9 59.7,100.3 82.1,94.4 "/>
<polygon id="XMLID_5_" fill="#F9A730" stroke="#F9A730" stroke-width="0.3651" stroke-miterlimit="10" points="83.9,140.9 
	105.2,136.8 105.2,103.4 83.9,109.5 "/>
<polygon id="XMLID_16_" fill="#F9A730" stroke="#F9A730" stroke-width="0.3651" stroke-miterlimit="10" points="107.1,96.5 
	85.8,91.8 85.8,58.4 107.1,64.5 "/>
<polygon id="XMLID_15_" fill="#F9A730" stroke="#F9A730" stroke-width="0.1501" stroke-miterlimit="10" points="131.6,55.9 
	109.1,61.7 86.7,56.1 109.1,50.2 "/>
<polygon id="XMLID_14_" fill="#F9A730" stroke="#F9A730" stroke-width="0.3651" stroke-miterlimit="10" points="111.5,96.2 
	132.8,92.1 132.8,58.7 111.5,64.8 "/>
<polygon id="XMLID_13_" fill="#F9A730" stroke="#F9A730" stroke-width="0.3651" stroke-miterlimit="10" points="159.3,96.5 
	138,91.8 138,58.4 159.3,64.5 "/>
<polygon id="XMLID_12_" fill="#F9A730" stroke="#F9A730" stroke-width="0.1501" stroke-miterlimit="10" points="184.4,55.9 
	162,61.7 139.5,56.1 162,50.2 "/>
<polygon id="XMLID_11_" fill="#F9A730" stroke="#F9A730" stroke-width="0.3651" stroke-miterlimit="10" points="164,97.3 185.2,93 
	184.7,59.5 163.5,65.9 "/>
<polygon id="XMLID_19_" fill="#F9A730" stroke="#F9A730" stroke-width="0.3651" stroke-miterlimit="10" points="133.2,52.3 
	111.9,47.7 111.9,14.3 133.2,20.3 "/>
<polygon id="XMLID_18_" fill="#F9A730" stroke="#F9A730" stroke-width="0.1501" stroke-miterlimit="10" points="157.6,11.7 
	135.2,17.5 112.8,11.9 135.2,6 "/>
<polygon id="XMLID_17_" fill="#F9A730" stroke="#F9A730" stroke-width="0.3651" stroke-miterlimit="10" points="137.6,52 158.9,48 
	158.9,14.6 137.6,20.6 "/>
<polygon id="XMLID_10_" fill="#F9A730" stroke="#F9A730" stroke-width="0.3651" stroke-miterlimit="10" points="52.7,186.9 
	31.4,182.3 31.4,148.9 52.7,154.9 "/>
<polygon id="XMLID_9_" fill="#F9A730" stroke="#F9A730" stroke-width="0.1501" stroke-miterlimit="10" points="77.8,145.8 
	55.4,151.6 32.9,146 55.4,140.1 "/>
<polygon id="XMLID_8_" fill="#F9A730" stroke="#F9A730" stroke-width="0.3651" stroke-miterlimit="10" points="57.1,186.6 
	78.4,182.6 78.4,149.2 57.1,155.2 "/>
<g id="XMLID_84_">
</g>
<g id="XMLID_85_">
</g>
<g id="XMLID_86_">
</g>
<g id="XMLID_87_">
</g>
<g id="XMLID_88_">
</g>
<g id="XMLID_89_">
</g>
<g id="XMLID_90_">
</g>
<g id="XMLID_91_">
</g>
<g id="XMLID_92_">
</g>
<g id="XMLID_93_">
</g>
<g id="XMLID_94_">
</g>
<g id="XMLID_95_">
</g>
<g id="XMLID_96_">
</g>
<g id="XMLID_97_">
</g>
<g id="XMLID_98_">
</g>
</svg>
