<svg xmlns="http://www.w3.org/2000/svg" id="Layer_1" viewBox="0 0 872 175"><style>.st0{fill:#181818}.st1{fill:#29aae2}.st2{fill:#151515}.st3{fill:#1d1d1d}.st4{fill:#f5fbfe}.st5{fill:#f6fbfe}.st6{fill:#f8fcfe}.st7{fill:#37ade3}.st8{fill:#36ade2}.st10,.st9{fill:none;stroke:#000;stroke-width:4;stroke-miterlimit:10}.st10{stroke:#29aae2}.st11{fill:#b3b3b3}.st12{font-family:&apos;MyriadPro-Regular&apos;}.st13{font-size:66.7925px}</style><path class="st0" d="M282.1 59.9c-1.2-2.7-3.5-3.5-6.2-3.5-3.9-.2-8.1-.5-12.1-.5-3 0-4.2-1.2-4.2-4.2s1.5-3.7 4.2-3.7c5.9.2 12.1-.5 18 1.2 7.4 2 10.4 5.7 10.4 13.3v14.6c0 7.7-3 11.4-10.1 13.3-4.2 1.2-8.4 1.2-12.6 1.2-10.1-.2-20.2 1.2-30.1-1-10.4-2.2-12.8-6.2-12.1-17.8.5-6.7 5.2-10.6 14.1-11.8 11.6-1.5 23.4-.5 35.3-1 1.4.4 3.2 1.1 5.4-.1zm-22.5 23.7v.5h11.6c1 0 2-.2 3-.2 7.4-.7 8.9-3 8.1-12.3-.2-5.2-5.4-1.7-8.1-3-.7-.5-2 0-3 0-8.6 0-17.5-.2-26.2.2-5.7.2-7.9 2.7-7.9 7.7 0 4.9 2 6.9 7.4 7.4 5 .2 9.9-.3 15.1-.3z"/><path class="st1" d="M498.2 113.6H492v-6.2c.2-28.6 0-80.5 0-91.6 9.9-.2 245.3 0 365.5 0h5.7v5.7c-.2 28.9-.2 57.7 0 86.6v5.2h-5.4c-60.2-.2-120.4 0-180.6 0m19.2-37.9h15.1c13.8 0 11.6 1.2 11.8-11.8 0-8.1-2.7-11.6-11.1-13.6-7.9-1.7-34.6-1.2-40 .2-7.4 2.2-10.4 5.9-10.4 13.8v13.6c0 7.9 3.2 11.8 10.9 14.1 6.7 1.7 13.3.7 20 1 2.5 0 3-2 3-3.7 0-2-.7-3.7-3.2-3.7h-7.2c-3.7-.2-7.4-.2-10.9-1.7-2.7-1.2-3.5-3.7-3-6.4s3-1.5 4.4-1.7c7-.4 13.9-.1 20.6-.1zm67.1 0H779c12.8 0 11.6.7 11.4-11.8 0-7.4-3.2-11.6-10.4-13.3-7.9-2-16-1-24.2-1-5.7 0-11.4-.5-17 1-7.2 2-10.1 5.7-10.1 13.1v15.1c0 7.7 3 11.1 10.4 13.3 6.7 1.7 13.3 1 20 1 2.7 0 3.2-2 3.2-4.2 0-2.5-1-3.2-3.5-3.2s-4.9.2-7.7 0c-3.7-.2-7.4-.2-10.6-2.2-2.2-1.2-2.7-3.2-2.5-5.7.5-3 2.7-1.7 4.4-1.7 7.3-.7 14.2-.4 21.1-.4zm-243.4 17h17.1c3.5 0 6.9-.7 10.4-2.2 3.7-1.7 5.9-4.2 6.4-8.9.7-10.1-4.2-12.8-12.3-14.3-9.6-1.5-19-.5-28.6-1-3-.2-5.4-1.2-5.4-4.7 0-3.2 2.2-3.9 4.9-4.7 4.7-1 9.4-.5 14.1-.5 2.5 0 3.2-1.2 3.2-3.5 0-2 0-3.9-2.7-3.9-6.4.2-12.8-1-19 .7-7.7 2-10.1 5.4-9.9 12.8.2 5.9 3.7 9.4 10.6 10.6 8.6 1.7 17.5.5 26.2 1 2.2 0 4.4 0 6.4.7 2.5.7 3.2 2.7 3.2 4.9 0 2.5-1.5 3.7-3.7 4.2-3 .5-5.9 1-8.9 1h-29.9c-2.7 0-4.2.7-4.2 3.7 0 2.7 1.2 3.9 3.9 3.7 6.2.4 12.3.4 18.2.4zm75.6 0h22.7c2.7 0 4.7-.2 4.7-3.7 0-3.2-1.7-3.9-4.7-3.7-6.7 0-13.1.2-19.7 0-7.4-.2-14.8.7-22.2-.5-6.4-1-7.9-2.7-7.9-9.4V66c0-6.4 1.5-8.4 8.1-9.1 13.6-1.5 27.1-.2 40.7-.7 2.7 0 5.2.2 5.2-3.7 0-3.5-2.2-3.7-5.2-3.7h-39.2c-3.9 0-7.7.7-11.4 2.2-4.9 2-7.9 5.4-7.7 11.1v15.1c0 8.6 2.7 12.1 11.1 14.1 9.2 2.4 18.3.6 25.5 1.1zm261.3-17V64.3c0-8.1-3.2-12.8-11.4-14.3-12.8-2.2-26.2-2.2-39 0-7.2 1.2-10.6 5.7-10.9 12.6-.2 8.4 0 16.8 0 25.2 0 3.7 1.7 4.9 5.4 4.9 3.5 0 4.7-1.5 4.7-4.9-.2-7.7.2-15.5 0-23.2-.2-4.4 2-6.9 5.9-7.4 9.9-1.5 19.7-1.5 29.6 0 4.2.7 6.4 3 6.2 7.7-.2 7.7 0 15.1-.2 22.7 0 3.7 1.2 5.2 4.9 5.2s5.2-1.7 5.2-5.2c-.4-4.1-.4-8-.4-12.2zm-227.8-.7c0 4.4.2 8.6 0 13.1-.2 3.7 1.2 4.9 4.9 5.2 3.7 0 4.7-1.5 4.4-4.9-.2-7.7 0-15.5 0-23.2 0-4.4 1.7-7.2 6.7-7.9 3.2-.5 6.4-.5 9.6-.5 2.7 0 3-1.7 3-3.7s-.2-3.7-3-3.7c-5.9 0-11.8-.5-17.5 1.7-5.4 2.2-8.1 5.7-8.1 11.4-.2 4.1 0 8.3 0 12.5z"/><path class="st2" d="M351.6 75.4h-21.2c-1.2 0-3.7 0-3.7 1-.2 2-2.2 8.4 6.9 8.1 4.4 0 8.6.5 13.1.2 3 0 3.9 1.7 3.9 4.2s-1 3.9-3.9 3.7c-6.7-.5-13.3.5-20-1.2-7.2-2-10.1-5.9-10.1-13.6V65.2c0-10.1 2.7-14.3 12.8-15.5 12.6-1.5 25.4-2 38 .5 7.9 1.5 10.9 5.2 10.6 13.3-.2 13.6 2.2 11.8-11.8 12.1-4.7-.2-9.7-.2-14.6-.2zm-4.7-8.2h17c1.5 0 4.4 0 4.4-1.5.2-2.7.7-5.7-2.2-7.2-1.5-.7-3.2-1.2-4.7-1.5-9.1-.7-18.3-.7-27.6 0-1.7 0-3.2.7-4.7 1.5-3.2 1.7-2.7 4.7-2.5 7.4.3 2.6 15.1 1.3 20.3 1.3z"/><path class="st0" d="M414.5 49c6.7 0 13.3-.7 20 1 6.9 2 10.4 5.7 10.6 12.8.2 8.4 0 16.8 0 25.2 0 3.5-1.5 5.2-5.2 5.2s-4.9-1.5-4.7-5.2c.2-7.7 0-15.1.2-22.7.2-5.2-2.5-7.7-6.9-8.1-9.4-1-18.8-1-28.1 0-4.2.5-6.4 2.7-6.4 7.4.2 7.7 0 15.5.2 23.2 0 3.7-1.5 5.2-4.9 5.2-3.7 0-5.4-1.5-5.2-5.4.2-7.2 0-14.3 0-21.7 0-11.1 4.4-16 15.8-16.8 5-.4 9.7-.1 14.6-.1zM212.4 36.4h26.2c3 0 5.4.2 5.4 4.2s-2.2 4.7-5.7 4.4c-5.4-.2-16 0-16 0h-4.9s-.2 3 0 4.7c.2 12.3 0 24.9.2 37.3 0 3.7-.7 6.2-5.2 6.2s-5.7-2-5.7-6.2c.2-12.6 0-25.2.2-37.8V45h-21.4c-3.2 0-4.7-1.2-4.7-4.4 0-3.5 1.7-4.2 4.7-4.2h26.9z"/><path class="st3" d="M456.2 73.9V56.8H453c-3 0-3.7-1.5-3.7-3.9 0-2.7 1-4.2 3.9-3.7 2 .2 3.2.2 3.2.2s.2-3 0-3.7v-4.4c0-3.7 2-4.9 5.4-4.9 3.5 0 4.4 1.7 4.4 4.9 0 4.2.2 7.9.2 7.9h7.7c2.5 0 4.7.2 7.2 0 3-.2 4.2 1 4.2 3.9 0 3-1.5 4.2-4.4 3.9-3.5-.2-7.2 0-10.6 0-2.7 0-4.4.2-4.4.2s-.2 1.5-.2 4.2c.2 9.1 0 18.3.2 27.1 0 3.7-1.5 4.7-4.7 4.7s-5.2-1-5.2-4.7V73.9z"/><path class="st0" d="M310.1 64.8v22.7c0 3.5-1 5.7-5.2 5.7-3.9 0-5.2-2-5.2-5.7V41.6c0-3.5 1-5.7 5.2-5.9 4.4 0 5.4 2.5 5.2 6.2v22.9z"/><path class="st4" d="M712.1 50c8.1 2 11.1 5.4 11.1 13.6-.2 13.1 2 11.8-11.8 11.8h-38.5s-1 .7-1.2 1.7c-.5 2.7.2 4.9 3 6.4 3.5 1.5 7.2 1.7 10.9 1.7 2.2.2 4.7 0 7.2 0s3.2 1.7 3.2 3.7-.5 3.7-3 3.7c-6.7-.2-13.3.7-20-1-7.7-2-10.9-6.2-10.9-14.1V63.9c0-7.9 3-11.6 10.4-13.8m20.1 17.1h16c1.7 0 4.7 1.5 5.2-2.2.2-3-.2-5.7-3.5-7.2-1-.5-2.2-.7-3.5-1-8.1-1.5-16.3-.7-24.7-.5-2.5 0-5.4.5-7.9 1.7-3.2 1.5-3.5 4.4-3 7.2.5 3.2 3.2 1.7 4.9 1.7 5.7.6 11.1.3 16.5.3zM780 50c7.2 1.7 10.4 5.9 10.4 13.3 0 12.6 1.2 11.8-11.4 11.8h-15.5c-6.9 0-23.2-.5-24.2.2-.5.2-.7.7-1 1.7-.2 2.2.2 4.4 2.5 5.7 3.2 2 7.2 2 10.6 2.2 2.5.2 4.9 0 7.7 0 2.2 0 3.5 1 3.5 3.2s-.2 4.2-3.2 4.2c-6.7-.2-13.3.7-20-1-7.7-2-10.4-5.4-10.4-13.3V62.9c0-7.4 3-10.9 10.1-13.1M759 67.2h16.5c1.7 0 4.4 1.2 4.7-2 .2-2.7.5-5.4-2.5-6.9-1.2-.5-2.5-1-3.7-1.2-8.4-1.5-16.8-.7-25.2-.5-2.5 0-4.9.2-7.4 1.5-3.2 1.5-3.7 4.2-3.5 7.2.5 3.5 3.5 2 5.2 2 5.6.2 10.8-.1 15.9-.1z"/><path class="st5" d="M520.1 92.4h-18.3c-2.7 0-3.9-1-3.9-3.7 0-3 1.5-3.7 4.2-3.7H532c3 0 5.9-.5 8.9-1 2.2-.5 3.7-1.7 3.7-4.2s-.7-4.2-3.2-4.9c-2.2-.7-4.2-.7-6.4-.7-8.6-.2-17.5.7-26.2-1-6.9-1.5-10.4-4.9-10.6-10.6-.2-7.4 2.2-10.9 9.9-12.8 6.2-1.7 12.6-.5 19-.7 2.7 0 2.7 2 2.7 3.9 0 2.2-.7 3.5-3.2 3.5-4.7 0-9.4-.2-14.1.5-2.7.5-4.9 1.5-4.9 4.7 0 3.5 2.5 4.4 5.4 4.7 9.6.5 19.2-.5 28.6 1 8.1 1.2 13.1 4.2 12.3 14.3-.2 4.4-2.7 7.2-6.4 8.9-3.2 1.5-6.7 2.2-10.4 2.2h-2c-4.8-.4-9.8-.4-15-.4z"/><path class="st6" d="M595.7 92.4c-7.4-.5-16.3 1-25.2-1-8.4-2-11.1-5.4-11.1-14.1V62.2c0-5.7 2.7-9.1 7.7-11.1 3.7-1.5 7.4-2.2 11.4-2.2h39.2c2.7 0 5.2.2 5.2 3.7 0 3.7-2.5 3.7-5.2 3.7-13.6.2-27.1-1-40.7.7-6.7.7-8.1 2.7-8.1 9.1v9.1c0 6.4 1.5 8.1 7.9 9.4 7.4 1.2 14.8.5 22.2.5 6.7.2 13.1 0 19.7 0 2.7 0 4.7.5 4.7 3.7 0 3.5-2.2 3.7-4.7 3.7-7.2-.1-14.4-.1-23-.1z"/><path class="st4" d="M857 75.4v12.1c0 3.5-1.2 5.2-5.2 5.2-3.7 0-4.9-1.5-4.9-5.2.2-7.7-.2-15.1.2-22.7.2-4.7-2-7.2-6.2-7.7-9.9-1.5-19.7-1.5-29.6 0-3.9.5-5.9 3-5.9 7.4.2 7.7 0 15.5 0 23.2 0 3.5-1.2 4.7-4.7 4.9-3.5 0-5.4-1.2-5.4-4.9 0-8.4-.2-16.8 0-25.2.2-6.9 3.9-11.4 10.9-12.6 13.1-2.2 26.2-2.2 39 0 7.9 1.2 11.1 5.9 11.4 14.3.7 3.8.4 7.5.4 11.2z"/><path class="st6" d="M629.2 74.7V62.1c.2-5.9 2.7-9.1 8.1-11.4 5.7-2.2 11.6-1.5 17.5-1.7 2.7 0 2.5 7.4 0 7.4-3.2 0-6.4 0-9.6.5-4.9.7-6.7 3.5-6.7 7.9V88c0 3.2-.7 4.9-4.4 4.9s-5.2-1.2-4.9-5.2v-13z"/><path class="st7" d="M692.6 67.2c-5.4 0-20.5 1.2-21-2-.5-3-.2-5.7 3-7.2 2.5-1.2 5.2-1.5 7.9-1.7 8.1-.2 16.3-.7 24.7.5 1.2.2 2.2.5 3.5 1 3.2 1.2 3.7 3.9 3.5 7.2-.8 3.7-16.4 2.2-21.6 2.2z"/><path class="st8" d="M759 67.2c-4.4 0-16.3 1-19.7-1-.5-.2-1-.7-1-1.2-.5-3 .2-5.7 3.5-7.2 2.5-1.2 4.9-1.5 7.4-1.5 8.4-.2 16.8-1 25.2.5 1.2.2 2.7.5 3.7 1.2 3 1.5 3 4.2 2.5 6.9 0 .7-1 1.2-2.5 1.7-4.8 1.4-14.9.6-19.1.6z"/><path class="st9" d="M75.4 38.4h95.8l-31.5 67.1H43z"/><path class="st10" d="M42.7 6.5L11.2 70.4h96.4l32.1-63.9z"/><path class="st9" d="M119.3 38.4h10"/><text transform="matrix(1.0412 0 0 1 683.05 168.3)" class="st11 st12 st13">b e t a</text></svg>